Paranoia Sans.ufo
<glyph name="tFALSE" format="2">
  <advance width="5141"/>
  <outline>
    <contour>
      <point x="63.0" y="1216.0" type="curve" smooth="yes"/>
      <point x="926.0" y="1216.0" type="line" smooth="yes"/>
      <point x="949.0" y="1216.0"/>
      <point x="965.0" y="1211.0"/>
      <point x="975.0" y="1199.0" type="curve" smooth="yes"/>
      <point x="985.0" y="1188.0"/>
      <point x="990.0" y="1170.0"/>
      <point x="990.0" y="1144.0" type="curve" smooth="yes"/>
      <point x="990.0" y="1118.0"/>
      <point x="985.0" y="1099.0"/>
      <point x="975.0" y="1088.0" type="curve" smooth="yes"/>
      <point x="965.0" y="1077.0"/>
      <point x="949.0" y="1071.0"/>
      <point x="926.0" y="1071.0" type="curve" smooth="yes"/>
      <point x="570.0" y="1071.0" type="line"/>
      <point x="570.0" y="77.0" type="line" smooth="yes"/>
      <point x="570.0" y="54.0"/>
      <point x="565.0" y="37.0"/>
      <point x="554.0" y="27.0" type="curve" smooth="yes"/>
      <point x="543.0" y="17.0"/>
      <point x="523.0" y="12.0"/>
      <point x="496.0" y="12.0" type="curve" smooth="yes"/>
      <point x="494.0" y="12.0" type="line" smooth="yes"/>
      <point x="466.0" y="12.0"/>
      <point x="447.0" y="17.0"/>
      <point x="436.0" y="27.0" type="curve" smooth="yes"/>
      <point x="425.0" y="37.0"/>
      <point x="419.0" y="54.0"/>
      <point x="419.0" y="77.0" type="curve" smooth="yes"/>
      <point x="419.0" y="1071.0" type="line"/>
      <point x="63.0" y="1071.0" type="line" smooth="yes"/>
      <point x="41.0" y="1071.0"/>
      <point x="24.0" y="1077.0"/>
      <point x="15.0" y="1088.0" type="curve"/>
      <point x="5.0" y="1099.0"/>
      <point x="0.0" y="1118.0"/>
      <point x="0.0" y="1144.0" type="curve" smooth="yes"/>
      <point x="0.0" y="1170.0"/>
      <point x="5.0" y="1188.0"/>
      <point x="15.0" y="1199.0" type="curve"/>
      <point x="24.0" y="1211.0"/>
      <point x="41.0" y="1216.0"/>
    </contour>
    <contour>
      <point x="1929.0" y="515.0" type="curve"/>
      <point x="2195.0" y="111.0" type="line" smooth="yes"/>
      <point x="2204.0" y="96.0"/>
      <point x="2209.0" y="83.0"/>
      <point x="2209.0" y="72.0" type="curve" smooth="yes"/>
      <point x="2209.0" y="62.0"/>
      <point x="2205.0" y="53.0"/>
      <point x="2197.0" y="45.0" type="curve"/>
      <point x="2190.0" y="37.0"/>
      <point x="2178.0" y="30.0"/>
      <point x="2162.0" y="22.0" type="curve"/>
      <point x="2138.0" y="12.0"/>
      <point x="2121.0" y="7.0"/>
      <point x="2109.0" y="7.0" type="curve" smooth="yes"/>
      <point x="2091.0" y="7.0"/>
      <point x="2076.0" y="16.0"/>
      <point x="2064.0" y="35.0" type="curve" smooth="yes"/>
      <point x="1764.0" y="498.0" type="line"/>
      <point x="1541.0" y="498.0" type="line"/>
      <point x="1541.0" y="77.0" type="line" smooth="yes"/>
      <point x="1541.0" y="54.0"/>
      <point x="1535.0" y="37.0"/>
      <point x="1524.0" y="27.0" type="curve" smooth="yes"/>
      <point x="1513.0" y="17.0"/>
      <point x="1494.0" y="12.0"/>
      <point x="1467.0" y="12.0" type="curve" smooth="yes"/>
      <point x="1464.0" y="12.0" type="line" smooth="yes"/>
      <point x="1437.0" y="12.0"/>
      <point x="1418.0" y="17.0"/>
      <point x="1407.0" y="27.0" type="curve" smooth="yes"/>
      <point x="1396.0" y="37.0"/>
      <point x="1390.0" y="54.0"/>
      <point x="1390.0" y="77.0" type="curve" smooth="yes"/>
      <point x="1390.0" y="1148.0" type="line" smooth="yes"/>
      <point x="1390.0" y="1173.0"/>
      <point x="1395.0" y="1190.0"/>
      <point x="1405.0" y="1200.0" type="curve"/>
      <point x="1414.0" y="1211.0"/>
      <point x="1431.0" y="1216.0"/>
      <point x="1453.0" y="1216.0" type="curve" smooth="yes"/>
      <point x="1777.0" y="1216.0" type="line" smooth="yes"/>
      <point x="1867.0" y="1216.0"/>
      <point x="1942.0" y="1201.0"/>
      <point x="2004.0" y="1171.0" type="curve" smooth="yes"/>
      <point x="2066.0" y="1141.0"/>
      <point x="2113.0" y="1100.0"/>
      <point x="2144.0" y="1046.0" type="curve" smooth="yes"/>
      <point x="2176.0" y="992.0"/>
      <point x="2192.0" y="928.0"/>
      <point x="2192.0" y="855.0" type="curve" smooth="yes"/>
      <point x="2192.0" y="768.0"/>
      <point x="2169.0" y="695.0"/>
      <point x="2125.0" y="636.0" type="curve" smooth="yes"/>
      <point x="2080.0" y="578.0"/>
      <point x="2015.0" y="537.0"/>
    </contour>
    <contour>
      <point x="1541.0" y="1071.0" type="line"/>
      <point x="1541.0" y="643.0" type="line"/>
      <point x="1756.0" y="643.0" type="line" smooth="yes"/>
      <point x="1943.0" y="643.0"/>
      <point x="2037.0" y="713.0"/>
      <point x="2037.0" y="855.0" type="curve" smooth="yes"/>
      <point x="2037.0" y="926.0"/>
      <point x="2014.0" y="980.0"/>
      <point x="1967.0" y="1016.0" type="curve" smooth="yes"/>
      <point x="1920.0" y="1053.0"/>
      <point x="1850.0" y="1071.0"/>
      <point x="1756.0" y="1071.0" type="curve" smooth="yes"/>
    </contour>
    <contour>
      <point x="3413.0" y="1226.0" type="curve" smooth="yes"/>
      <point x="3415.0" y="1226.0" type="line" smooth="yes"/>
      <point x="3442.0" y="1226.0"/>
      <point x="3462.0" y="1221.0"/>
      <point x="3473.0" y="1211.0" type="curve" smooth="yes"/>
      <point x="3484.0" y="1201.0"/>
      <point x="3489.0" y="1184.0"/>
      <point x="3489.0" y="1161.0" type="curve" smooth="yes"/>
      <point x="3489.0" y="438.0" type="line" smooth="yes"/>
      <point x="3489.0" y="344.0"/>
      <point x="3471.0" y="264.0"/>
      <point x="3434.0" y="199.0" type="curve" smooth="yes"/>
      <point x="3397.0" y="133.0"/>
      <point x="3345.0" y="84.0"/>
      <point x="3279.0" y="50.0" type="curve" smooth="yes"/>
      <point x="3213.0" y="17.0"/>
      <point x="3136.0" y="0.0"/>
      <point x="3048.0" y="0.0" type="curve" smooth="yes"/>
      <point x="2960.0" y="0.0"/>
      <point x="2883.0" y="17.0"/>
      <point x="2816.0" y="50.0" type="curve" smooth="yes"/>
      <point x="2750.0" y="84.0"/>
      <point x="2698.0" y="133.0"/>
      <point x="2661.0" y="199.0" type="curve" smooth="yes"/>
      <point x="2625.0" y="264.0"/>
      <point x="2606.0" y="344.0"/>
      <point x="2606.0" y="438.0" type="curve" smooth="yes"/>
      <point x="2606.0" y="1161.0" type="line" smooth="yes"/>
      <point x="2606.0" y="1184.0"/>
      <point x="2612.0" y="1201.0"/>
      <point x="2623.0" y="1211.0" type="curve" smooth="yes"/>
      <point x="2634.0" y="1221.0"/>
      <point x="2653.0" y="1226.0"/>
      <point x="2681.0" y="1226.0" type="curve" smooth="yes"/>
      <point x="2683.0" y="1226.0" type="line" smooth="yes"/>
      <point x="2710.0" y="1226.0"/>
      <point x="2729.0" y="1221.0"/>
      <point x="2740.0" y="1211.0" type="curve" smooth="yes"/>
      <point x="2751.0" y="1201.0"/>
      <point x="2757.0" y="1184.0"/>
      <point x="2757.0" y="1161.0" type="curve" smooth="yes"/>
      <point x="2757.0" y="458.0" type="line" smooth="yes"/>
      <point x="2757.0" y="355.0"/>
      <point x="2782.0" y="278.0"/>
      <point x="2832.0" y="226.0" type="curve" smooth="yes"/>
      <point x="2883.0" y="175.0"/>
      <point x="2954.0" y="149.0"/>
      <point x="3048.0" y="149.0" type="curve" smooth="yes"/>
      <point x="3141.0" y="149.0"/>
      <point x="3213.0" y="175.0"/>
      <point x="3263.0" y="226.0" type="curve" smooth="yes"/>
      <point x="3313.0" y="278.0"/>
      <point x="3338.0" y="355.0"/>
      <point x="3338.0" y="458.0" type="curve" smooth="yes"/>
      <point x="3338.0" y="1161.0" type="line" smooth="yes"/>
      <point x="3338.0" y="1184.0"/>
      <point x="3344.0" y="1201.0"/>
      <point x="3355.0" y="1211.0" type="curve" smooth="yes"/>
      <point x="3366.0" y="1221.0"/>
      <point x="3385.0" y="1226.0"/>
    </contour>
    <contour>
      <point x="4084.0" y="167.0" type="line"/>
      <point x="4689.0" y="167.0" type="line" smooth="yes"/>
      <point x="4712.0" y="167.0"/>
      <point x="4728.0" y="161.0"/>
      <point x="4738.0" y="150.0" type="curve" smooth="yes"/>
      <point x="4748.0" y="139.0"/>
      <point x="4753.0" y="121.0"/>
      <point x="4753.0" y="95.0" type="curve" smooth="yes"/>
      <point x="4753.0" y="68.0"/>
      <point x="4748.0" y="50.0"/>
      <point x="4738.0" y="39.0" type="curve" smooth="yes"/>
      <point x="4728.0" y="28.0"/>
      <point x="4712.0" y="22.0"/>
      <point x="4689.0" y="22.0" type="curve" smooth="yes"/>
      <point x="3996.0" y="22.0" type="line" smooth="yes"/>
      <point x="3973.0" y="22.0"/>
      <point x="3957.0" y="27.0"/>
      <point x="3947.0" y="38.0" type="curve" smooth="yes"/>
      <point x="3938.0" y="48.0"/>
      <point x="3933.0" y="66.0"/>
      <point x="3933.0" y="91.0" type="curve" smooth="yes"/>
      <point x="3933.0" y="1148.0" type="line" smooth="yes"/>
      <point x="3933.0" y="1173.0"/>
      <point x="3938.0" y="1190.0"/>
      <point x="3947.0" y="1200.0" type="curve" smooth="yes"/>
      <point x="3957.0" y="1211.0"/>
      <point x="3973.0" y="1216.0"/>
      <point x="3996.0" y="1216.0" type="curve" smooth="yes"/>
      <point x="4669.0" y="1216.0" type="line" smooth="yes"/>
      <point x="4692.0" y="1216.0"/>
      <point x="4708.0" y="1211.0"/>
      <point x="4718.0" y="1199.0" type="curve" smooth="yes"/>
      <point x="4728.0" y="1188.0"/>
      <point x="4732.0" y="1170.0"/>
      <point x="4732.0" y="1144.0" type="curve" smooth="yes"/>
      <point x="4732.0" y="1118.0"/>
      <point x="4728.0" y="1099.0"/>
      <point x="4718.0" y="1088.0" type="curve" smooth="yes"/>
      <point x="4708.0" y="1077.0"/>
      <point x="4692.0" y="1071.0"/>
      <point x="4669.0" y="1071.0" type="curve" smooth="yes"/>
      <point x="4084.0" y="1071.0" type="line"/>
      <point x="4084.0" y="710.0" type="line"/>
      <point x="4543.0" y="710.0" type="line" smooth="yes"/>
      <point x="4566.0" y="710.0"/>
      <point x="4582.0" y="705.0"/>
      <point x="4592.0" y="694.0" type="curve" smooth="yes"/>
      <point x="4602.0" y="682.0"/>
      <point x="4607.0" y="664.0"/>
      <point x="4607.0" y="638.0" type="curve" smooth="yes"/>
      <point x="4607.0" y="612.0"/>
      <point x="4602.0" y="593.0"/>
      <point x="4592.0" y="582.0" type="curve" smooth="yes"/>
      <point x="4582.0" y="571.0"/>
      <point x="4566.0" y="565.0"/>
      <point x="4543.0" y="565.0" type="curve" smooth="yes"/>
      <point x="4084.0" y="565.0" type="line"/>
    </contour>
  </outline>
</glyph>
<glyph name="tPARANOIASANS" format="2">
  <advance width="16640"/>
  <outline>
    <contour>
      <point x="12225.0" y="351.0" type="curve"/>
      <point x="12165.0" y="351.0" type="line"/>
      <point x="12165.0" y="351.0" type="line"/>
      <point x="12165.0" y="393.0"/>
      <point x="12154.0" y="426.0"/>
      <point x="12133.0" y="453.0" type="curve" smooth="yes"/>
      <point x="12112.0" y="479.0"/>
      <point x="12082.0" y="500.0"/>
      <point x="12043.0" y="517.0" type="curve" smooth="yes"/>
      <point x="12017.0" y="528.0"/>
      <point x="11989.0" y="538.0"/>
      <point x="11958.0" y="545.0" type="curve" smooth="yes"/>
      <point x="11928.0" y="552.0"/>
      <point x="11887.0" y="560.0"/>
      <point x="11835.0" y="569.0" type="curve" smooth="yes"/>
      <point x="11778.0" y="579.0"/>
      <point x="11731.0" y="589.0"/>
      <point x="11694.0" y="598.0" type="curve" smooth="yes"/>
      <point x="11656.0" y="607.0"/>
      <point x="11621.0" y="619.0"/>
      <point x="11589.0" y="634.0" type="curve" smooth="yes"/>
      <point x="11537.0" y="657.0"/>
      <point x="11496.0" y="689.0"/>
      <point x="11467.0" y="730.0" type="curve" smooth="yes"/>
      <point x="11450.0" y="755.0"/>
      <point x="11438.0" y="784.0"/>
      <point x="11431.0" y="817.0" type="curve"/>
      <point x="11602.0" y="817.0" type="line"/>
      <point x="11615.0" y="801.0"/>
      <point x="11633.0" y="786.0"/>
      <point x="11657.0" y="775.0" type="curve"/>
      <point x="11680.0" y="762.0"/>
      <point x="11707.0" y="753.0"/>
      <point x="11738.0" y="745.0" type="curve" smooth="yes"/>
      <point x="11768.0" y="738.0"/>
      <point x="11812.0" y="729.0"/>
      <point x="11869.0" y="719.0" type="curve" smooth="yes"/>
      <point x="11924.0" y="710.0"/>
      <point x="11970.0" y="701.0"/>
      <point x="12007.0" y="693.0" type="curve" smooth="yes"/>
      <point x="12044.0" y="684.0"/>
      <point x="12079.0" y="673.0"/>
      <point x="12112.0" y="660.0" type="curve" smooth="yes"/>
      <point x="12177.0" y="634.0"/>
      <point x="12228.0" y="596.0"/>
      <point x="12265.0" y="548.0" type="curve" smooth="yes"/>
      <point x="12301.0" y="500.0"/>
      <point x="12319.0" y="434.0"/>
      <point x="12319.0" y="351.0" type="curve"/>
      <point x="12319.0" y="351.0" type="line"/>
      <point x="12379.0" y="351.0" type="line"/>
      <point x="12379.0" y="280.0"/>
      <point x="12363.0" y="219.0"/>
      <point x="12330.0" y="166.0" type="curve" smooth="yes"/>
      <point x="12296.0" y="114.0"/>
      <point x="12247.0" y="73.0"/>
      <point x="12181.0" y="44.0" type="curve" smooth="yes"/>
      <point x="12115.0" y="15.0"/>
      <point x="12033.0" y="0.0"/>
      <point x="11937.0" y="0.0" type="curve" smooth="yes"/>
      <point x="11860.0" y="0.0"/>
      <point x="11786.0" y="10.0"/>
      <point x="11713.0" y="31.0" type="curve" smooth="yes"/>
      <point x="11639.0" y="51.0"/>
      <point x="11573.0" y="80.0"/>
      <point x="11513.0" y="117.0" type="curve" smooth="yes"/>
      <point x="11491.0" y="131.0"/>
      <point x="11479.0" y="149.0"/>
      <point x="11479.0" y="172.0" type="curve" smooth="yes"/>
      <point x="11479.0" y="187.0"/>
      <point x="11484.0" y="204.0"/>
      <point x="11493.0" y="222.0" type="curve" smooth="yes"/>
      <point x="11509.0" y="252.0"/>
      <point x="11527.0" y="267.0"/>
      <point x="11549.0" y="267.0" type="curve" smooth="yes"/>
      <point x="11560.0" y="267.0"/>
      <point x="11571.0" y="263.0"/>
      <point x="11583.0" y="255.0" type="curve" smooth="yes"/>
      <point x="11633.0" y="223.0"/>
      <point x="11689.0" y="197.0"/>
      <point x="11750.0" y="178.0" type="curve" smooth="yes"/>
      <point x="11812.0" y="159.0"/>
      <point x="11874.0" y="149.0"/>
      <point x="11937.0" y="149.0" type="curve" smooth="yes"/>
      <point x="12031.0" y="149.0"/>
      <point x="12103.0" y="167.0"/>
      <point x="12152.0" y="204.0" type="curve" smooth="yes"/>
      <point x="12200.0" y="240.0"/>
      <point x="12224.0" y="289.0"/>
    </contour>
    <contour>
      <point x="14388.0" y="817.0" type="line"/>
      <point x="14687.0" y="351.0" type="line"/>
      <point x="14716.0" y="351.0" type="line"/>
      <point x="14716.0" y="817.0" type="line"/>
      <point x="14863.0" y="817.0" type="line"/>
      <point x="14863.0" y="351.0" type="line"/>
      <point x="14923.0" y="351.0" type="line"/>
      <point x="14923.0" y="59.0" type="line" smooth="yes"/>
      <point x="14923.0" y="41.0"/>
      <point x="14917.0" y="27.0"/>
      <point x="14905.0" y="16.0" type="curve" smooth="yes"/>
      <point x="14892.0" y="5.0"/>
      <point x="14873.0" y="0.0"/>
      <point x="14848.0" y="0.0" type="curve" smooth="yes"/>
      <point x="14830.0" y="0.0"/>
      <point x="14814.0" y="5.0"/>
      <point x="14801.0" y="14.0" type="curve" smooth="yes"/>
      <point x="14788.0" y="23.0"/>
      <point x="14775.0" y="37.0"/>
      <point x="14763.0" y="55.0" type="curve" smooth="yes"/>
      <point x="14574.0" y="351.0" type="line"/>
      <point x="14514.0" y="351.0" type="line"/>
      <point x="14215.0" y="817.0" type="line"/>
    </contour>
    <contour>
      <point x="6338.0" y="351.0" type="curve"/>
      <point x="6278.0" y="351.0" type="line"/>
      <point x="6250.0" y="431.0"/>
      <point x="6236.0" y="520.0"/>
      <point x="6236.0" y="619.0" type="curve" smooth="yes"/>
      <point x="6236.0" y="690.0"/>
      <point x="6243.0" y="756.0"/>
      <point x="6258.0" y="817.0" type="curve"/>
      <point x="6418.0" y="817.0" type="line"/>
      <point x="6400.0" y="758.0"/>
      <point x="6391.0" y="692.0"/>
      <point x="6391.0" y="619.0" type="curve" smooth="yes"/>
      <point x="6391.0" y="523.0"/>
      <point x="6406.0" y="439.0"/>
      <point x="6437.0" y="369.0" type="curve"/>
      <point x="6439.0" y="363.0"/>
      <point x="6442.0" y="357.0"/>
      <point x="6445.0" y="351.0" type="curve"/>
      <point x="6505.0" y="351.0" type="line"/>
      <point x="6535.0" y="289.0"/>
      <point x="6575.0" y="240.0"/>
      <point x="6627.0" y="206.0" type="curve" smooth="yes"/>
      <point x="6683.0" y="168.0"/>
      <point x="6748.0" y="149.0"/>
      <point x="6823.0" y="149.0" type="curve" smooth="yes"/>
      <point x="6898.0" y="149.0"/>
      <point x="6964.0" y="168.0"/>
      <point x="7020.0" y="206.0" type="curve" smooth="yes"/>
      <point x="7071.0" y="240.0"/>
      <point x="7112.0" y="289.0"/>
      <point x="7141.0" y="351.0" type="curve"/>
      <point x="7081.0" y="351.0" type="line"/>
      <point x="7084.0" y="357.0"/>
      <point x="7087.0" y="363.0"/>
      <point x="7090.0" y="369.0" type="curve"/>
      <point x="7120.0" y="439.0"/>
      <point x="7135.0" y="523.0"/>
      <point x="7135.0" y="619.0" type="curve" smooth="yes"/>
      <point x="7135.0" y="692.0"/>
      <point x="7126.0" y="758.0"/>
      <point x="7108.0" y="817.0" type="curve"/>
      <point x="7268.0" y="817.0" type="line"/>
      <point x="7283.0" y="756.0"/>
      <point x="7290.0" y="690.0"/>
      <point x="7290.0" y="619.0" type="curve" smooth="yes"/>
      <point x="7290.0" y="520.0"/>
      <point x="7276.0" y="431.0"/>
      <point x="7248.0" y="351.0" type="curve"/>
      <point x="7308.0" y="351.0" type="line"/>
      <point x="7301.0" y="331.0"/>
      <point x="7293.0" y="312.0"/>
      <point x="7285.0" y="294.0" type="curve" smooth="yes"/>
      <point x="7241.0" y="201.0"/>
      <point x="7180.0" y="128.0"/>
      <point x="7100.0" y="77.0" type="curve" smooth="yes"/>
      <point x="7020.0" y="26.0"/>
      <point x="6928.0" y="0.0"/>
      <point x="6823.0" y="0.0" type="curve" smooth="yes"/>
      <point x="6719.0" y="0.0"/>
      <point x="6626.0" y="26.0"/>
      <point x="6547.0" y="77.0" type="curve" smooth="yes"/>
      <point x="6467.0" y="128.0"/>
      <point x="6405.0" y="201.0"/>
      <point x="6362.0" y="294.0" type="curve" smooth="yes"/>
      <point x="6353.0" y="312.0"/>
      <point x="6345.0" y="331.0"/>
    </contour>
    <contour>
      <point x="5454.0" y="817.0" type="line"/>
      <point x="5752.0" y="351.0" type="line"/>
      <point x="5782.0" y="351.0" type="line"/>
      <point x="5782.0" y="817.0" type="line"/>
      <point x="5928.0" y="817.0" type="line"/>
      <point x="5928.0" y="351.0" type="line"/>
      <point x="5988.0" y="351.0" type="line"/>
      <point x="5988.0" y="59.0" type="line" smooth="yes"/>
      <point x="5988.0" y="41.0"/>
      <point x="5982.0" y="27.0"/>
      <point x="5970.0" y="16.0" type="curve" smooth="yes"/>
      <point x="5957.0" y="5.0"/>
      <point x="5938.0" y="0.0"/>
      <point x="5913.0" y="0.0" type="curve" smooth="yes"/>
      <point x="5895.0" y="0.0"/>
      <point x="5879.0" y="5.0"/>
      <point x="5866.0" y="14.0" type="curve" smooth="yes"/>
      <point x="5853.0" y="23.0"/>
      <point x="5841.0" y="37.0"/>
      <point x="5828.0" y="55.0" type="curve"/>
      <point x="5639.0" y="351.0" type="line"/>
      <point x="5579.0" y="351.0" type="line"/>
      <point x="5280.0" y="817.0" type="line"/>
    </contour>
    <contour>
      <point x="16054.0" y="351.0" type="curve"/>
      <point x="15994.0" y="351.0" type="line"/>
      <point x="15994.0" y="351.0" type="line"/>
      <point x="15994.0" y="393.0"/>
      <point x="15983.0" y="426.0"/>
      <point x="15962.0" y="453.0" type="curve" smooth="yes"/>
      <point x="15941.0" y="479.0"/>
      <point x="15911.0" y="500.0"/>
      <point x="15872.0" y="517.0" type="curve" smooth="yes"/>
      <point x="15846.0" y="528.0"/>
      <point x="15818.0" y="538.0"/>
      <point x="15788.0" y="545.0" type="curve" smooth="yes"/>
      <point x="15757.0" y="552.0"/>
      <point x="15716.0" y="560.0"/>
      <point x="15664.0" y="569.0" type="curve" smooth="yes"/>
      <point x="15607.0" y="579.0"/>
      <point x="15561.0" y="589.0"/>
      <point x="15523.0" y="598.0" type="curve" smooth="yes"/>
      <point x="15485.0" y="607.0"/>
      <point x="15451.0" y="619.0"/>
      <point x="15418.0" y="634.0" type="curve" smooth="yes"/>
      <point x="15366.0" y="657.0"/>
      <point x="15326.0" y="689.0"/>
      <point x="15297.0" y="730.0" type="curve" smooth="yes"/>
      <point x="15279.0" y="755.0"/>
      <point x="15267.0" y="784.0"/>
      <point x="15260.0" y="817.0" type="curve"/>
      <point x="15431.0" y="817.0" type="line"/>
      <point x="15444.0" y="801.0"/>
      <point x="15462.0" y="786.0"/>
      <point x="15486.0" y="775.0" type="curve"/>
      <point x="15509.0" y="762.0"/>
      <point x="15536.0" y="753.0"/>
      <point x="15567.0" y="745.0" type="curve" smooth="yes"/>
      <point x="15597.0" y="738.0"/>
      <point x="15641.0" y="729.0"/>
      <point x="15698.0" y="719.0" type="curve" smooth="yes"/>
      <point x="15753.0" y="710.0"/>
      <point x="15799.0" y="701.0"/>
      <point x="15836.0" y="693.0" type="curve" smooth="yes"/>
      <point x="15873.0" y="684.0"/>
      <point x="15908.0" y="673.0"/>
      <point x="15941.0" y="660.0" type="curve" smooth="yes"/>
      <point x="16006.0" y="634.0"/>
      <point x="16057.0" y="596.0"/>
      <point x="16094.0" y="548.0" type="curve" smooth="yes"/>
      <point x="16130.0" y="500.0"/>
      <point x="16149.0" y="434.0"/>
      <point x="16149.0" y="351.0" type="curve"/>
      <point x="16149.0" y="351.0" type="line"/>
      <point x="16209.0" y="351.0" type="line"/>
      <point x="16209.0" y="280.0"/>
      <point x="16192.0" y="219.0"/>
      <point x="16159.0" y="166.0" type="curve" smooth="yes"/>
      <point x="16126.0" y="114.0"/>
      <point x="16076.0" y="73.0"/>
      <point x="16010.0" y="44.0" type="curve" smooth="yes"/>
      <point x="15944.0" y="15.0"/>
      <point x="15863.0" y="0.0"/>
      <point x="15766.0" y="0.0" type="curve" smooth="yes"/>
      <point x="15690.0" y="0.0"/>
      <point x="15615.0" y="10.0"/>
      <point x="15542.0" y="31.0" type="curve" smooth="yes"/>
      <point x="15469.0" y="51.0"/>
      <point x="15402.0" y="80.0"/>
      <point x="15343.0" y="117.0" type="curve" smooth="yes"/>
      <point x="15320.0" y="131.0"/>
      <point x="15308.0" y="149.0"/>
      <point x="15308.0" y="172.0" type="curve" smooth="yes"/>
      <point x="15308.0" y="187.0"/>
      <point x="15313.0" y="204.0"/>
      <point x="15322.0" y="222.0" type="curve" smooth="yes"/>
      <point x="15338.0" y="252.0"/>
      <point x="15356.0" y="267.0"/>
      <point x="15378.0" y="267.0" type="curve" smooth="yes"/>
      <point x="15389.0" y="267.0"/>
      <point x="15401.0" y="263.0"/>
      <point x="15412.0" y="255.0" type="curve"/>
      <point x="15462.0" y="223.0"/>
      <point x="15518.0" y="197.0"/>
      <point x="15579.0" y="178.0" type="curve" smooth="yes"/>
      <point x="15641.0" y="159.0"/>
      <point x="15703.0" y="149.0"/>
      <point x="15766.0" y="149.0" type="curve" smooth="yes"/>
      <point x="15861.0" y="149.0"/>
      <point x="15932.0" y="167.0"/>
      <point x="15981.0" y="204.0" type="curve" smooth="yes"/>
      <point x="16029.0" y="240.0"/>
      <point x="16054.0" y="289.0"/>
    </contour>
    <contour>
      <point x="2613.0" y="77.0" type="curve" smooth="yes"/>
      <point x="2613.0" y="351.0" type="line"/>
      <point x="2553.0" y="351.0" type="line"/>
      <point x="2553.0" y="817.0" type="line"/>
      <point x="2704.0" y="817.0" type="line"/>
      <point x="2704.0" y="643.0" type="line"/>
      <point x="2919.0" y="643.0" type="line" smooth="yes"/>
      <point x="3089.0" y="643.0"/>
      <point x="3181.0" y="701.0"/>
      <point x="3197.0" y="817.0" type="curve"/>
      <point x="3353.0" y="817.0" type="line"/>
      <point x="3347.0" y="747.0"/>
      <point x="3326.0" y="686.0"/>
      <point x="3288.0" y="636.0" type="curve" smooth="yes"/>
      <point x="3243.0" y="578.0"/>
      <point x="3178.0" y="537.0"/>
      <point x="3092.0" y="515.0" type="curve"/>
      <point x="3200.0" y="351.0" type="line"/>
      <point x="3260.0" y="351.0" type="line"/>
      <point x="3417.0" y="111.0" type="line" smooth="yes"/>
      <point x="3427.0" y="96.0"/>
      <point x="3432.0" y="83.0"/>
      <point x="3432.0" y="72.0" type="curve" smooth="yes"/>
      <point x="3432.0" y="62.0"/>
      <point x="3428.0" y="53.0"/>
      <point x="3420.0" y="45.0" type="curve" smooth="yes"/>
      <point x="3412.0" y="37.0"/>
      <point x="3400.0" y="30.0"/>
      <point x="3384.0" y="22.0" type="curve"/>
      <point x="3361.0" y="12.0"/>
      <point x="3343.0" y="7.0"/>
      <point x="3332.0" y="7.0" type="curve" smooth="yes"/>
      <point x="3314.0" y="7.0"/>
      <point x="3299.0" y="16.0"/>
      <point x="3287.0" y="35.0" type="curve" smooth="yes"/>
      <point x="3082.0" y="351.0" type="line"/>
      <point x="3022.0" y="351.0" type="line"/>
      <point x="2927.0" y="498.0" type="line"/>
      <point x="2704.0" y="498.0" type="line"/>
      <point x="2704.0" y="351.0" type="line"/>
      <point x="2764.0" y="351.0" type="line"/>
      <point x="2764.0" y="77.0" type="line" smooth="yes"/>
      <point x="2764.0" y="54.0"/>
      <point x="2758.0" y="37.0"/>
      <point x="2747.0" y="27.0" type="curve" smooth="yes"/>
      <point x="2736.0" y="17.0"/>
      <point x="2717.0" y="12.0"/>
      <point x="2689.0" y="12.0" type="curve" smooth="yes"/>
      <point x="2687.0" y="12.0" type="line" smooth="yes"/>
      <point x="2660.0" y="12.0"/>
      <point x="2640.0" y="17.0"/>
      <point x="2629.0" y="27.0" type="curve" smooth="yes"/>
      <point x="2618.0" y="37.0"/>
      <point x="2613.0" y="54.0"/>
    </contour>
    <contour>
      <point x="8865.0" y="107.0" type="curve" smooth="yes"/>
      <point x="8956.0" y="351.0" type="line"/>
      <point x="8896.0" y="351.0" type="line"/>
      <point x="9069.0" y="817.0" type="line"/>
      <point x="9224.0" y="817.0" type="line"/>
      <point x="9113.0" y="499.0" type="line"/>
      <point x="9514.0" y="499.0" type="line"/>
      <point x="9404.0" y="817.0" type="line"/>
      <point x="9559.0" y="817.0" type="line"/>
      <point x="9732.0" y="351.0" type="line"/>
      <point x="9792.0" y="351.0" type="line"/>
      <point x="9883.0" y="107.0" type="line" smooth="yes"/>
      <point x="9887.0" y="95.0"/>
      <point x="9889.0" y="84.0"/>
      <point x="9889.0" y="75.0" type="curve" smooth="yes"/>
      <point x="9889.0" y="63.0"/>
      <point x="9884.0" y="52.0"/>
      <point x="9875.0" y="43.0" type="curve"/>
      <point x="9866.0" y="35.0"/>
      <point x="9852.0" y="27.0"/>
      <point x="9832.0" y="20.0" type="curve"/>
      <point x="9814.0" y="15.0"/>
      <point x="9801.0" y="12.0"/>
      <point x="9791.0" y="12.0" type="curve" smooth="yes"/>
      <point x="9778.0" y="12.0"/>
      <point x="9767.0" y="16.0"/>
      <point x="9758.0" y="23.0" type="curve"/>
      <point x="9750.0" y="31.0"/>
      <point x="9742.0" y="42.0"/>
      <point x="9737.0" y="58.0" type="curve"/>
      <point x="9629.0" y="351.0" type="line"/>
      <point x="9569.0" y="351.0" type="line"/>
      <point x="9567.0" y="354.0" type="line"/>
      <point x="9061.0" y="354.0" type="line"/>
      <point x="9059.0" y="351.0" type="line"/>
      <point x="9119.0" y="351.0" type="line"/>
      <point x="9011.0" y="58.0" type="line"/>
      <point x="9006.0" y="42.0"/>
      <point x="8998.0" y="31.0"/>
      <point x="8990.0" y="23.0" type="curve"/>
      <point x="8981.0" y="16.0"/>
      <point x="8970.0" y="12.0"/>
      <point x="8957.0" y="12.0" type="curve" smooth="yes"/>
      <point x="8947.0" y="12.0"/>
      <point x="8934.0" y="15.0"/>
      <point x="8916.0" y="20.0" type="curve"/>
      <point x="8896.0" y="27.0"/>
      <point x="8882.0" y="35.0"/>
      <point x="8873.0" y="43.0" type="curve"/>
      <point x="8864.0" y="52.0"/>
      <point x="8859.0" y="63.0"/>
      <point x="8859.0" y="75.0" type="curve" smooth="yes"/>
      <point x="8859.0" y="84.0"/>
      <point x="8861.0" y="95.0"/>
    </contour>
    <contour>
      <point x="3759.0" y="107.0" type="curve" smooth="yes"/>
      <point x="3850.0" y="351.0" type="line"/>
      <point x="3790.0" y="351.0" type="line"/>
      <point x="3964.0" y="817.0" type="line"/>
      <point x="4118.0" y="817.0" type="line"/>
      <point x="4007.0" y="499.0" type="line"/>
      <point x="4409.0" y="499.0" type="line"/>
      <point x="4298.0" y="817.0" type="line"/>
      <point x="4453.0" y="817.0" type="line"/>
      <point x="4627.0" y="351.0" type="line"/>
      <point x="4687.0" y="351.0" type="line"/>
      <point x="4777.0" y="107.0" type="line" smooth="yes"/>
      <point x="4781.0" y="95.0"/>
      <point x="4783.0" y="84.0"/>
      <point x="4783.0" y="75.0" type="curve" smooth="yes"/>
      <point x="4783.0" y="63.0"/>
      <point x="4779.0" y="52.0"/>
      <point x="4770.0" y="43.0" type="curve"/>
      <point x="4761.0" y="35.0"/>
      <point x="4746.0" y="27.0"/>
      <point x="4726.0" y="20.0" type="curve"/>
      <point x="4709.0" y="15.0"/>
      <point x="4695.0" y="12.0"/>
      <point x="4686.0" y="12.0" type="curve" smooth="yes"/>
      <point x="4672.0" y="12.0"/>
      <point x="4661.0" y="16.0"/>
      <point x="4653.0" y="23.0" type="curve" smooth="yes"/>
      <point x="4644.0" y="31.0"/>
      <point x="4637.0" y="42.0"/>
      <point x="4632.0" y="58.0" type="curve"/>
      <point x="4523.0" y="351.0" type="line"/>
      <point x="4463.0" y="351.0" type="line"/>
      <point x="4462.0" y="354.0" type="line"/>
      <point x="3955.0" y="354.0" type="line"/>
      <point x="3954.0" y="351.0" type="line"/>
      <point x="4014.0" y="351.0" type="line"/>
      <point x="3905.0" y="58.0" type="line"/>
      <point x="3900.0" y="42.0"/>
      <point x="3893.0" y="31.0"/>
      <point x="3884.0" y="23.0" type="curve"/>
      <point x="3875.0" y="16.0"/>
      <point x="3864.0" y="12.0"/>
      <point x="3851.0" y="12.0" type="curve" smooth="yes"/>
      <point x="3842.0" y="12.0"/>
      <point x="3828.0" y="15.0"/>
      <point x="3811.0" y="20.0" type="curve"/>
      <point x="3791.0" y="27.0"/>
      <point x="3776.0" y="35.0"/>
      <point x="3767.0" y="43.0" type="curve"/>
      <point x="3758.0" y="52.0"/>
      <point x="3753.0" y="63.0"/>
      <point x="3753.0" y="75.0" type="curve" smooth="yes"/>
      <point x="3753.0" y="84.0"/>
      <point x="3755.0" y="95.0"/>
    </contour>
    <contour>
      <point x="1207.0" y="107.0" type="curve" smooth="yes"/>
      <point x="1297.0" y="351.0" type="line"/>
      <point x="1237.0" y="351.0" type="line"/>
      <point x="1411.0" y="817.0" type="line"/>
      <point x="1565.0" y="817.0" type="line"/>
      <point x="1454.0" y="499.0" type="line"/>
      <point x="1856.0" y="499.0" type="line"/>
      <point x="1746.0" y="817.0" type="line"/>
      <point x="1900.0" y="817.0" type="line"/>
      <point x="2074.0" y="351.0" type="line"/>
      <point x="2134.0" y="351.0" type="line"/>
      <point x="2225.0" y="107.0" type="line" smooth="yes"/>
      <point x="2229.0" y="95.0"/>
      <point x="2231.0" y="84.0"/>
      <point x="2231.0" y="75.0" type="curve" smooth="yes"/>
      <point x="2231.0" y="63.0"/>
      <point x="2226.0" y="52.0"/>
      <point x="2217.0" y="43.0" type="curve"/>
      <point x="2208.0" y="35.0"/>
      <point x="2193.0" y="27.0"/>
      <point x="2173.0" y="20.0" type="curve"/>
      <point x="2156.0" y="15.0"/>
      <point x="2142.0" y="12.0"/>
      <point x="2133.0" y="12.0" type="curve" smooth="yes"/>
      <point x="2120.0" y="12.0"/>
      <point x="2109.0" y="16.0"/>
      <point x="2100.0" y="23.0" type="curve"/>
      <point x="2091.0" y="31.0"/>
      <point x="2084.0" y="42.0"/>
      <point x="2079.0" y="58.0" type="curve"/>
      <point x="1970.0" y="351.0" type="line"/>
      <point x="1910.0" y="351.0" type="line"/>
      <point x="1909.0" y="354.0" type="line"/>
      <point x="1402.0" y="354.0" type="line"/>
      <point x="1401.0" y="351.0" type="line"/>
      <point x="1461.0" y="351.0" type="line"/>
      <point x="1352.0" y="58.0" type="line"/>
      <point x="1347.0" y="42.0"/>
      <point x="1340.0" y="31.0"/>
      <point x="1331.0" y="23.0" type="curve" smooth="yes"/>
      <point x="1323.0" y="16.0"/>
      <point x="1312.0" y="12.0"/>
      <point x="1298.0" y="12.0" type="curve" smooth="yes"/>
      <point x="1289.0" y="12.0"/>
      <point x="1275.0" y="15.0"/>
      <point x="1258.0" y="20.0" type="curve"/>
      <point x="1238.0" y="27.0"/>
      <point x="1223.0" y="35.0"/>
      <point x="1214.0" y="43.0" type="curve"/>
      <point x="1205.0" y="52.0"/>
      <point x="1201.0" y="63.0"/>
      <point x="1201.0" y="75.0" type="curve" smooth="yes"/>
      <point x="1201.0" y="84.0"/>
      <point x="1203.0" y="95.0"/>
    </contour>
    <contour>
      <point x="12694.0" y="107.0" type="curve" smooth="yes"/>
      <point x="12785.0" y="351.0" type="line"/>
      <point x="12725.0" y="351.0" type="line"/>
      <point x="12898.0" y="817.0" type="line"/>
      <point x="13053.0" y="817.0" type="line"/>
      <point x="12942.0" y="499.0" type="line"/>
      <point x="13343.0" y="499.0" type="line"/>
      <point x="13233.0" y="817.0" type="line"/>
      <point x="13388.0" y="817.0" type="line"/>
      <point x="13561.0" y="351.0" type="line"/>
      <point x="13621.0" y="351.0" type="line"/>
      <point x="13712.0" y="107.0" type="line" smooth="yes"/>
      <point x="13716.0" y="95.0"/>
      <point x="13718.0" y="84.0"/>
      <point x="13718.0" y="75.0" type="curve" smooth="yes"/>
      <point x="13718.0" y="63.0"/>
      <point x="13714.0" y="52.0"/>
      <point x="13705.0" y="43.0" type="curve"/>
      <point x="13696.0" y="35.0"/>
      <point x="13681.0" y="27.0"/>
      <point x="13661.0" y="20.0" type="curve"/>
      <point x="13643.0" y="15.0"/>
      <point x="13630.0" y="12.0"/>
      <point x="13621.0" y="12.0" type="curve" smooth="yes"/>
      <point x="13607.0" y="12.0"/>
      <point x="13596.0" y="16.0"/>
      <point x="13587.0" y="23.0" type="curve"/>
      <point x="13579.0" y="31.0"/>
      <point x="13572.0" y="42.0"/>
      <point x="13566.0" y="58.0" type="curve" smooth="yes"/>
      <point x="13458.0" y="351.0" type="line"/>
      <point x="13398.0" y="351.0" type="line"/>
      <point x="13397.0" y="354.0" type="line"/>
      <point x="12890.0" y="354.0" type="line"/>
      <point x="12888.0" y="351.0" type="line"/>
      <point x="12948.0" y="351.0" type="line"/>
      <point x="12840.0" y="58.0" type="line"/>
      <point x="12835.0" y="42.0"/>
      <point x="12828.0" y="31.0"/>
      <point x="12819.0" y="23.0" type="curve"/>
      <point x="12810.0" y="16.0"/>
      <point x="12799.0" y="12.0"/>
      <point x="12786.0" y="12.0" type="curve" smooth="yes"/>
      <point x="12776.0" y="12.0"/>
      <point x="12763.0" y="15.0"/>
      <point x="12746.0" y="20.0" type="curve" smooth="yes"/>
      <point x="12725.0" y="27.0"/>
      <point x="12711.0" y="35.0"/>
      <point x="12702.0" y="43.0" type="curve"/>
      <point x="12693.0" y="52.0"/>
      <point x="12688.0" y="63.0"/>
      <point x="12688.0" y="75.0" type="curve" smooth="yes"/>
      <point x="12688.0" y="84.0"/>
      <point x="12690.0" y="95.0"/>
    </contour>
    <contour>
      <point x="5192.0" y="817.0" type="line"/>
      <point x="5192.0" y="351.0" type="line"/>
      <point x="5252.0" y="351.0" type="line"/>
      <point x="5252.0" y="77.0" type="line" smooth="yes"/>
      <point x="5252.0" y="54.0"/>
      <point x="5247.0" y="37.0"/>
      <point x="5236.0" y="27.0" type="curve" smooth="yes"/>
      <point x="5225.0" y="17.0"/>
      <point x="5206.0" y="12.0"/>
      <point x="5180.0" y="12.0" type="curve" smooth="yes"/>
      <point x="5178.0" y="12.0" type="line" smooth="yes"/>
      <point x="5151.0" y="12.0"/>
      <point x="5132.0" y="17.0"/>
      <point x="5121.0" y="27.0" type="curve" smooth="yes"/>
      <point x="5111.0" y="37.0"/>
      <point x="5105.0" y="54.0"/>
      <point x="5105.0" y="77.0" type="curve" smooth="yes"/>
      <point x="5105.0" y="351.0" type="line"/>
      <point x="5045.0" y="351.0" type="line"/>
      <point x="5045.0" y="817.0" type="line"/>
    </contour>
    <contour>
      <point x="14127.0" y="817.0" type="line"/>
      <point x="14127.0" y="351.0" type="line"/>
      <point x="14187.0" y="351.0" type="line"/>
      <point x="14187.0" y="77.0" type="line" smooth="yes"/>
      <point x="14187.0" y="54.0"/>
      <point x="14182.0" y="37.0"/>
      <point x="14171.0" y="27.0" type="curve" smooth="yes"/>
      <point x="14160.0" y="17.0"/>
      <point x="14141.0" y="12.0"/>
      <point x="14114.0" y="12.0" type="curve" smooth="yes"/>
      <point x="14112.0" y="12.0" type="line" smooth="yes"/>
      <point x="14086.0" y="12.0"/>
      <point x="14067.0" y="17.0"/>
      <point x="14056.0" y="27.0" type="curve" smooth="yes"/>
      <point x="14045.0" y="37.0"/>
      <point x="14040.0" y="54.0"/>
      <point x="14040.0" y="77.0" type="curve" smooth="yes"/>
      <point x="14040.0" y="351.0" type="line"/>
      <point x="13980.0" y="351.0" type="line"/>
      <point x="13980.0" y="817.0" type="line"/>
    </contour>
    <contour>
      <point x="60.0" y="77.0" type="curve" smooth="yes"/>
      <point x="60.0" y="351.0" type="line"/>
      <point x="0.0" y="351.0" type="line"/>
      <point x="0.0" y="817.0" type="line"/>
      <point x="151.0" y="817.0" type="line"/>
      <point x="151.0" y="562.0" type="line"/>
      <point x="386.0" y="562.0" type="line" smooth="yes"/>
      <point x="484.0" y="562.0"/>
      <point x="559.0" y="584.0"/>
      <point x="610.0" y="628.0" type="curve" smooth="yes"/>
      <point x="661.0" y="672.0"/>
      <point x="687.0" y="734.0"/>
      <point x="687.0" y="815.0" type="curve" smooth="yes"/>
      <point x="687.0" y="816.0"/>
      <point x="687.0" y="816.0"/>
      <point x="687.0" y="817.0" type="curve"/>
      <point x="842.0" y="817.0" type="line"/>
      <point x="842.0" y="816.0"/>
      <point x="842.0" y="816.0"/>
      <point x="842.0" y="815.0" type="curve" smooth="yes"/>
      <point x="842.0" y="736.0"/>
      <point x="825.0" y="666.0"/>
      <point x="792.0" y="606.0" type="curve" smooth="yes"/>
      <point x="758.0" y="546.0"/>
      <point x="709.0" y="500.0"/>
      <point x="643.0" y="467.0" type="curve" smooth="yes"/>
      <point x="578.0" y="434.0"/>
      <point x="499.0" y="417.0"/>
      <point x="407.0" y="417.0" type="curve" smooth="yes"/>
      <point x="151.0" y="417.0" type="line"/>
      <point x="151.0" y="351.0" type="line"/>
      <point x="211.0" y="351.0" type="line"/>
      <point x="211.0" y="77.0" type="line" smooth="yes"/>
      <point x="211.0" y="54.0"/>
      <point x="205.0" y="37.0"/>
      <point x="194.0" y="27.0" type="curve" smooth="yes"/>
      <point x="183.0" y="17.0"/>
      <point x="164.0" y="12.0"/>
      <point x="136.0" y="12.0" type="curve" smooth="yes"/>
      <point x="134.0" y="12.0" type="line" smooth="yes"/>
      <point x="107.0" y="12.0"/>
      <point x="88.0" y="17.0"/>
      <point x="77.0" y="27.0" type="curve" smooth="yes"/>
      <point x="66.0" y="37.0"/>
      <point x="60.0" y="54.0"/>
    </contour>
    <contour>
      <point x="8115.0" y="817.0" type="line"/>
      <point x="8115.0" y="351.0" type="line"/>
      <point x="8175.0" y="351.0" type="line"/>
      <point x="8175.0" y="167.0" type="line"/>
      <point x="8453.0" y="167.0" type="line" smooth="yes"/>
      <point x="8475.0" y="167.0"/>
      <point x="8492.0" y="161.0"/>
      <point x="8501.0" y="150.0" type="curve"/>
      <point x="8511.0" y="139.0"/>
      <point x="8516.0" y="121.0"/>
      <point x="8516.0" y="95.0" type="curve" smooth="yes"/>
      <point x="8516.0" y="68.0"/>
      <point x="8511.0" y="50.0"/>
      <point x="8501.0" y="39.0" type="curve"/>
      <point x="8492.0" y="28.0"/>
      <point x="8475.0" y="22.0"/>
      <point x="8453.0" y="22.0" type="curve" smooth="yes"/>
      <point x="7747.0" y="22.0" type="line" smooth="yes"/>
      <point x="7724.0" y="22.0"/>
      <point x="7707.0" y="28.0"/>
      <point x="7698.0" y="39.0" type="curve"/>
      <point x="7688.0" y="50.0"/>
      <point x="7683.0" y="68.0"/>
      <point x="7683.0" y="95.0" type="curve" smooth="yes"/>
      <point x="7683.0" y="121.0"/>
      <point x="7688.0" y="139.0"/>
      <point x="7698.0" y="150.0" type="curve"/>
      <point x="7707.0" y="161.0"/>
      <point x="7724.0" y="167.0"/>
      <point x="7747.0" y="167.0" type="curve" smooth="yes"/>
      <point x="8024.0" y="167.0" type="line"/>
      <point x="8024.0" y="351.0" type="line"/>
      <point x="7964.0" y="351.0" type="line"/>
      <point x="7964.0" y="817.0" type="line"/>
    </contour>
    <contour>
      <point x="14776.0" y="311.0" type="line"/>
      <point x="14776.0" y="351.0" type="line"/>
      <point x="14747.0" y="351.0" type="line"/>
      <point x="14772.0" y="311.0" type="line"/>
    </contour>
    <contour>
      <point x="5842.0" y="311.0" type="line"/>
      <point x="5842.0" y="351.0" type="line"/>
      <point x="5812.0" y="351.0" type="line"/>
      <point x="5838.0" y="311.0" type="line"/>
    </contour>
    <contour>
      <point x="211.0" y="817.0" type="line"/>
      <point x="60.0" y="817.0" type="line"/>
      <point x="60.0" y="1148.0" type="line" smooth="yes"/>
      <point x="60.0" y="1173.0"/>
      <point x="65.0" y="1190.0"/>
      <point x="75.0" y="1200.0" type="curve"/>
      <point x="84.0" y="1211.0"/>
      <point x="101.0" y="1216.0"/>
      <point x="123.0" y="1216.0" type="curve" smooth="yes"/>
      <point x="467.0" y="1216.0" type="line" smooth="yes"/>
      <point x="559.0" y="1216.0"/>
      <point x="638.0" y="1199.0"/>
      <point x="703.0" y="1166.0" type="curve" smooth="yes"/>
      <point x="769.0" y="1132.0"/>
      <point x="818.0" y="1085.0"/>
      <point x="852.0" y="1025.0" type="curve" smooth="yes"/>
      <point x="885.0" y="965.0"/>
      <point x="902.0" y="896.0"/>
      <point x="902.0" y="817.0" type="curve"/>
      <point x="747.0" y="817.0" type="line"/>
      <point x="746.0" y="898.0"/>
      <point x="721.0" y="960.0"/>
      <point x="670.0" y="1004.0" type="curve" smooth="yes"/>
      <point x="619.0" y="1049.0"/>
      <point x="544.0" y="1071.0"/>
      <point x="446.0" y="1071.0" type="curve" smooth="yes"/>
      <point x="211.0" y="1071.0" type="line"/>
    </contour>
    <contour>
      <point x="15491.0" y="817.0" type="curve"/>
      <point x="15320.0" y="817.0" type="line"/>
      <point x="15316.0" y="840.0"/>
      <point x="15313.0" y="864.0"/>
      <point x="15313.0" y="890.0" type="curve" smooth="yes"/>
      <point x="15313.0" y="962.0"/>
      <point x="15331.0" y="1024.0"/>
      <point x="15365.0" y="1076.0" type="curve" smooth="yes"/>
      <point x="15399.0" y="1129.0"/>
      <point x="15447.0" y="1169.0"/>
      <point x="15509.0" y="1196.0" type="curve" smooth="yes"/>
      <point x="15570.0" y="1224.0"/>
      <point x="15641.0" y="1238.0"/>
      <point x="15722.0" y="1238.0" type="curve" smooth="yes"/>
      <point x="15879.0" y="1238.0"/>
      <point x="16017.0" y="1205.0"/>
      <point x="16134.0" y="1138.0" type="curve" smooth="yes"/>
      <point x="16158.0" y="1124.0"/>
      <point x="16170.0" y="1105.0"/>
      <point x="16170.0" y="1081.0" type="curve" smooth="yes"/>
      <point x="16170.0" y="1067.0"/>
      <point x="16166.0" y="1050.0"/>
      <point x="16157.0" y="1032.0" type="curve"/>
      <point x="16144.0" y="1002.0"/>
      <point x="16125.0" y="987.0"/>
      <point x="16102.0" y="987.0" type="curve" smooth="yes"/>
      <point x="16092.0" y="987.0"/>
      <point x="16081.0" y="990.0"/>
      <point x="16069.0" y="997.0" type="curve" smooth="yes"/>
      <point x="15966.0" y="1059.0"/>
      <point x="15850.0" y="1089.0"/>
      <point x="15722.0" y="1089.0" type="curve" smooth="yes"/>
      <point x="15642.0" y="1089.0"/>
      <point x="15580.0" y="1072.0"/>
      <point x="15535.0" y="1036.0" type="curve" smooth="yes"/>
      <point x="15491.0" y="1000.0"/>
      <point x="15468.0" y="952.0"/>
      <point x="15468.0" y="890.0" type="curve" smooth="yes"/>
      <point x="15468.0" y="863.0"/>
      <point x="15475.0" y="841.0"/>
      <point x="15488.0" y="822.0" type="curve"/>
      <point x="15489.0" y="820.0"/>
      <point x="15490.0" y="819.0"/>
    </contour>
    <contour>
      <point x="1625.0" y="817.0" type="line"/>
      <point x="1471.0" y="817.0" type="line"/>
      <point x="1603.0" y="1173.0" type="line" smooth="yes"/>
      <point x="1612.0" y="1196.0"/>
      <point x="1625.0" y="1213.0"/>
      <point x="1642.0" y="1223.0" type="curve" smooth="yes"/>
      <point x="1660.0" y="1233.0"/>
      <point x="1684.0" y="1238.0"/>
      <point x="1716.0" y="1238.0" type="curve" smooth="yes"/>
      <point x="1747.0" y="1238.0"/>
      <point x="1772.0" y="1233.0"/>
      <point x="1789.0" y="1223.0" type="curve" smooth="yes"/>
      <point x="1806.0" y="1213.0"/>
      <point x="1820.0" y="1196.0"/>
      <point x="1828.0" y="1173.0" type="curve" smooth="yes"/>
      <point x="1960.0" y="817.0" type="line"/>
      <point x="1806.0" y="817.0" type="line"/>
      <point x="1718.0" y="1071.0" type="line"/>
      <point x="1714.0" y="1071.0" type="line"/>
    </contour>
    <contour>
      <point x="2764.0" y="817.0" type="line"/>
      <point x="2613.0" y="817.0" type="line"/>
      <point x="2613.0" y="1148.0" type="line" smooth="yes"/>
      <point x="2613.0" y="1173.0"/>
      <point x="2618.0" y="1190.0"/>
      <point x="2627.0" y="1200.0" type="curve" smooth="yes"/>
      <point x="2637.0" y="1211.0"/>
      <point x="2653.0" y="1216.0"/>
      <point x="2676.0" y="1216.0" type="curve" smooth="yes"/>
      <point x="3000.0" y="1216.0" type="line" smooth="yes"/>
      <point x="3089.0" y="1216.0"/>
      <point x="3165.0" y="1201.0"/>
      <point x="3227.0" y="1171.0" type="curve" smooth="yes"/>
      <point x="3289.0" y="1141.0"/>
      <point x="3336.0" y="1100.0"/>
      <point x="3367.0" y="1046.0" type="curve" smooth="yes"/>
      <point x="3399.0" y="992.0"/>
      <point x="3414.0" y="928.0"/>
      <point x="3414.0" y="855.0" type="curve" smooth="yes"/>
      <point x="3414.0" y="842.0"/>
      <point x="3414.0" y="830.0"/>
      <point x="3413.0" y="817.0" type="curve"/>
      <point x="3257.0" y="817.0" type="line"/>
      <point x="3259.0" y="829.0"/>
      <point x="3260.0" y="842.0"/>
      <point x="3260.0" y="855.0" type="curve" smooth="yes"/>
      <point x="3260.0" y="926.0"/>
      <point x="3236.0" y="980.0"/>
      <point x="3190.0" y="1016.0" type="curve" smooth="yes"/>
      <point x="3143.0" y="1053.0"/>
      <point x="3073.0" y="1071.0"/>
      <point x="2979.0" y="1071.0" type="curve" smooth="yes"/>
      <point x="2764.0" y="1071.0" type="line"/>
    </contour>
    <contour>
      <point x="4178.0" y="817.0" type="line"/>
      <point x="4024.0" y="817.0" type="line"/>
      <point x="4156.0" y="1173.0" type="line" smooth="yes"/>
      <point x="4164.0" y="1196.0"/>
      <point x="4178.0" y="1213.0"/>
      <point x="4195.0" y="1223.0" type="curve" smooth="yes"/>
      <point x="4212.0" y="1233.0"/>
      <point x="4237.0" y="1238.0"/>
      <point x="4268.0" y="1238.0" type="curve" smooth="yes"/>
      <point x="4300.0" y="1238.0"/>
      <point x="4324.0" y="1233.0"/>
      <point x="4342.0" y="1223.0" type="curve" smooth="yes"/>
      <point x="4359.0" y="1213.0"/>
      <point x="4372.0" y="1196.0"/>
      <point x="4381.0" y="1173.0" type="curve" smooth="yes"/>
      <point x="4513.0" y="817.0" type="line"/>
      <point x="4358.0" y="817.0" type="line"/>
      <point x="4270.0" y="1071.0" type="line"/>
      <point x="4266.0" y="1071.0" type="line"/>
    </contour>
    <contour>
      <point x="5252.0" y="817.0" type="line"/>
      <point x="5105.0" y="817.0" type="line"/>
      <point x="5105.0" y="1161.0" type="line" smooth="yes"/>
      <point x="5105.0" y="1184.0"/>
      <point x="5111.0" y="1201.0"/>
      <point x="5122.0" y="1211.0" type="curve" smooth="yes"/>
      <point x="5134.0" y="1221.0"/>
      <point x="5153.0" y="1226.0"/>
      <point x="5181.0" y="1226.0" type="curve" smooth="yes"/>
      <point x="5208.0" y="1226.0" type="line" smooth="yes"/>
      <point x="5237.0" y="1226.0"/>
      <point x="5257.0" y="1217.0"/>
      <point x="5270.0" y="1198.0" type="curve" smooth="yes"/>
      <point x="5514.0" y="817.0" type="line"/>
      <point x="5340.0" y="817.0" type="line"/>
      <point x="5256.0" y="949.0" type="line"/>
      <point x="5252.0" y="949.0" type="line"/>
    </contour>
    <contour>
      <point x="6478.0" y="817.0" type="curve"/>
      <point x="6318.0" y="817.0" type="line"/>
      <point x="6329.0" y="862.0"/>
      <point x="6343.0" y="904.0"/>
      <point x="6362.0" y="943.0" type="curve" smooth="yes"/>
      <point x="6405.0" y="1037.0"/>
      <point x="6467.0" y="1110.0"/>
      <point x="6547.0" y="1161.0" type="curve" smooth="yes"/>
      <point x="6626.0" y="1213.0"/>
      <point x="6719.0" y="1238.0"/>
      <point x="6823.0" y="1238.0" type="curve" smooth="yes"/>
      <point x="6928.0" y="1238.0"/>
      <point x="7020.0" y="1213.0"/>
      <point x="7100.0" y="1161.0" type="curve" smooth="yes"/>
      <point x="7180.0" y="1110.0"/>
      <point x="7241.0" y="1037.0"/>
      <point x="7285.0" y="943.0" type="curve" smooth="yes"/>
      <point x="7303.0" y="904.0"/>
      <point x="7318.0" y="862.0"/>
      <point x="7328.0" y="817.0" type="curve"/>
      <point x="7168.0" y="817.0" type="line"/>
      <point x="7163.0" y="835.0"/>
      <point x="7157.0" y="852.0"/>
      <point x="7150.0" y="869.0" type="curve" smooth="yes"/>
      <point x="7119.0" y="940.0"/>
      <point x="7076.0" y="995.0"/>
      <point x="7019.0" y="1033.0" type="curve" smooth="yes"/>
      <point x="6963.0" y="1070.0"/>
      <point x="6898.0" y="1089.0"/>
      <point x="6823.0" y="1089.0" type="curve" smooth="yes"/>
      <point x="6749.0" y="1089.0"/>
      <point x="6683.0" y="1070.0"/>
      <point x="6627.0" y="1033.0" type="curve" smooth="yes"/>
      <point x="6571.0" y="995.0"/>
      <point x="6527.0" y="940.0"/>
      <point x="6497.0" y="869.0" type="curve" smooth="yes"/>
      <point x="6490.0" y="852.0"/>
      <point x="6483.0" y="835.0"/>
    </contour>
    <contour>
      <point x="8175.0" y="817.0" type="line"/>
      <point x="8024.0" y="817.0" type="line"/>
      <point x="8024.0" y="1071.0" type="line"/>
      <point x="7767.0" y="1071.0" type="line" smooth="yes"/>
      <point x="7744.0" y="1071.0"/>
      <point x="7728.0" y="1077.0"/>
      <point x="7718.0" y="1088.0" type="curve" smooth="yes"/>
      <point x="7708.0" y="1099.0"/>
      <point x="7703.0" y="1118.0"/>
      <point x="7703.0" y="1144.0" type="curve" smooth="yes"/>
      <point x="7703.0" y="1170.0"/>
      <point x="7708.0" y="1188.0"/>
      <point x="7718.0" y="1199.0" type="curve" smooth="yes"/>
      <point x="7728.0" y="1211.0"/>
      <point x="7744.0" y="1216.0"/>
      <point x="7767.0" y="1216.0" type="curve" smooth="yes"/>
      <point x="8433.0" y="1216.0" type="line" smooth="yes"/>
      <point x="8455.0" y="1216.0"/>
      <point x="8472.0" y="1211.0"/>
      <point x="8481.0" y="1199.0" type="curve"/>
      <point x="8491.0" y="1188.0"/>
      <point x="8496.0" y="1170.0"/>
      <point x="8496.0" y="1144.0" type="curve" smooth="yes"/>
      <point x="8496.0" y="1118.0"/>
      <point x="8491.0" y="1099.0"/>
      <point x="8481.0" y="1088.0" type="curve"/>
      <point x="8472.0" y="1077.0"/>
      <point x="8455.0" y="1071.0"/>
      <point x="8433.0" y="1071.0" type="curve" smooth="yes"/>
      <point x="8175.0" y="1071.0" type="line"/>
    </contour>
    <contour>
      <point x="9284.0" y="817.0" type="line"/>
      <point x="9129.0" y="817.0" type="line"/>
      <point x="9261.0" y="1173.0" type="line" smooth="yes"/>
      <point x="9270.0" y="1196.0"/>
      <point x="9283.0" y="1213.0"/>
      <point x="9301.0" y="1223.0" type="curve" smooth="yes"/>
      <point x="9318.0" y="1233.0"/>
      <point x="9342.0" y="1238.0"/>
      <point x="9374.0" y="1238.0" type="curve" smooth="yes"/>
      <point x="9405.0" y="1238.0"/>
      <point x="9430.0" y="1233.0"/>
      <point x="9447.0" y="1223.0" type="curve" smooth="yes"/>
      <point x="9465.0" y="1213.0"/>
      <point x="9478.0" y="1196.0"/>
      <point x="9487.0" y="1173.0" type="curve" smooth="yes"/>
      <point x="9619.0" y="817.0" type="line"/>
      <point x="9464.0" y="817.0" type="line"/>
      <point x="9376.0" y="1071.0" type="line"/>
      <point x="9372.0" y="1071.0" type="line"/>
    </contour>
    <contour>
      <point x="11662.0" y="817.0" type="curve"/>
      <point x="11491.0" y="817.0" type="line"/>
      <point x="11487.0" y="840.0"/>
      <point x="11484.0" y="864.0"/>
      <point x="11484.0" y="890.0" type="curve" smooth="yes"/>
      <point x="11484.0" y="962.0"/>
      <point x="11501.0" y="1024.0"/>
      <point x="11536.0" y="1076.0" type="curve" smooth="yes"/>
      <point x="11570.0" y="1129.0"/>
      <point x="11618.0" y="1169.0"/>
      <point x="11679.0" y="1196.0" type="curve" smooth="yes"/>
      <point x="11741.0" y="1224.0"/>
      <point x="11812.0" y="1238.0"/>
      <point x="11893.0" y="1238.0" type="curve" smooth="yes"/>
      <point x="12050.0" y="1238.0"/>
      <point x="12188.0" y="1205.0"/>
      <point x="12305.0" y="1138.0" type="curve" smooth="yes"/>
      <point x="12329.0" y="1124.0"/>
      <point x="12341.0" y="1105.0"/>
      <point x="12341.0" y="1081.0" type="curve" smooth="yes"/>
      <point x="12341.0" y="1067.0"/>
      <point x="12337.0" y="1050.0"/>
      <point x="12328.0" y="1032.0" type="curve"/>
      <point x="12315.0" y="1002.0"/>
      <point x="12296.0" y="987.0"/>
      <point x="12273.0" y="987.0" type="curve" smooth="yes"/>
      <point x="12263.0" y="987.0"/>
      <point x="12252.0" y="990.0"/>
      <point x="12240.0" y="997.0" type="curve" smooth="yes"/>
      <point x="12136.0" y="1059.0"/>
      <point x="12021.0" y="1089.0"/>
      <point x="11893.0" y="1089.0" type="curve" smooth="yes"/>
      <point x="11813.0" y="1089.0"/>
      <point x="11751.0" y="1072.0"/>
      <point x="11706.0" y="1036.0" type="curve" smooth="yes"/>
      <point x="11661.0" y="1000.0"/>
      <point x="11639.0" y="952.0"/>
      <point x="11639.0" y="890.0" type="curve" smooth="yes"/>
      <point x="11639.0" y="863.0"/>
      <point x="11646.0" y="841.0"/>
      <point x="11659.0" y="822.0" type="curve"/>
      <point x="11660.0" y="820.0"/>
      <point x="11661.0" y="819.0"/>
    </contour>
    <contour>
      <point x="13113.0" y="817.0" type="line"/>
      <point x="12958.0" y="817.0" type="line"/>
      <point x="13091.0" y="1173.0" type="line" smooth="yes"/>
      <point x="13099.0" y="1196.0"/>
      <point x="13112.0" y="1213.0"/>
      <point x="13130.0" y="1223.0" type="curve" smooth="yes"/>
      <point x="13147.0" y="1233.0"/>
      <point x="13172.0" y="1238.0"/>
      <point x="13203.0" y="1238.0" type="curve" smooth="yes"/>
      <point x="13235.0" y="1238.0"/>
      <point x="13259.0" y="1233.0"/>
      <point x="13277.0" y="1223.0" type="curve" smooth="yes"/>
      <point x="13294.0" y="1213.0"/>
      <point x="13307.0" y="1196.0"/>
      <point x="13316.0" y="1173.0" type="curve" smooth="yes"/>
      <point x="13448.0" y="817.0" type="line"/>
      <point x="13293.0" y="817.0" type="line"/>
      <point x="13205.0" y="1071.0" type="line"/>
      <point x="13201.0" y="1071.0" type="line"/>
    </contour>
    <contour>
      <point x="14187.0" y="817.0" type="line"/>
      <point x="14040.0" y="817.0" type="line"/>
      <point x="14040.0" y="1161.0" type="line" smooth="yes"/>
      <point x="14040.0" y="1184.0"/>
      <point x="14046.0" y="1201.0"/>
      <point x="14057.0" y="1211.0" type="curve" smooth="yes"/>
      <point x="14069.0" y="1221.0"/>
      <point x="14088.0" y="1226.0"/>
      <point x="14115.0" y="1226.0" type="curve" smooth="yes"/>
      <point x="14143.0" y="1226.0" type="line" smooth="yes"/>
      <point x="14171.0" y="1226.0"/>
      <point x="14192.0" y="1217.0"/>
      <point x="14205.0" y="1198.0" type="curve" smooth="yes"/>
      <point x="14448.0" y="817.0" type="line"/>
      <point x="14275.0" y="817.0" type="line"/>
      <point x="14191.0" y="949.0" type="line"/>
      <point x="14187.0" y="949.0" type="line"/>
    </contour>
    <contour>
      <point x="14923.0" y="817.0" type="line"/>
      <point x="14776.0" y="817.0" type="line"/>
      <point x="14776.0" y="1161.0" type="line" smooth="yes"/>
      <point x="14776.0" y="1184.0"/>
      <point x="14782.0" y="1201.0"/>
      <point x="14792.0" y="1211.0" type="curve" smooth="yes"/>
      <point x="14803.0" y="1221.0"/>
      <point x="14822.0" y="1226.0"/>
      <point x="14849.0" y="1226.0" type="curve" smooth="yes"/>
      <point x="14851.0" y="1226.0" type="line" smooth="yes"/>
      <point x="14878.0" y="1226.0"/>
      <point x="14896.0" y="1221.0"/>
      <point x="14907.0" y="1211.0" type="curve" smooth="yes"/>
      <point x="14918.0" y="1201.0"/>
      <point x="14923.0" y="1184.0"/>
      <point x="14923.0" y="1161.0" type="curve" smooth="yes"/>
    </contour>
    <contour>
      <point x="5988.0" y="817.0" type="line"/>
      <point x="5842.0" y="817.0" type="line"/>
      <point x="5842.0" y="1161.0" type="line" smooth="yes"/>
      <point x="5842.0" y="1184.0"/>
      <point x="5847.0" y="1201.0"/>
      <point x="5858.0" y="1211.0" type="curve" smooth="yes"/>
      <point x="5868.0" y="1221.0"/>
      <point x="5887.0" y="1226.0"/>
      <point x="5914.0" y="1226.0" type="curve" smooth="yes"/>
      <point x="5916.0" y="1226.0" type="line" smooth="yes"/>
      <point x="5943.0" y="1226.0"/>
      <point x="5962.0" y="1221.0"/>
      <point x="5972.0" y="1211.0" type="curve" smooth="yes"/>
      <point x="5983.0" y="1201.0"/>
      <point x="5988.0" y="1184.0"/>
      <point x="5988.0" y="1161.0" type="curve" smooth="yes"/>
    </contour>
  </outline>
</glyph>
<glyph name="tRIGHT" format="2">
  <advance width="6400"/>
  <outline>
    <contour>
      <point x="1024.0" y="1225.0" type="curve"/>
      <point x="1048.0" y="1222.0"/>
      <point x="1066.0" y="1216.0"/>
      <point x="1076.0" y="1207.0" type="curve" smooth="yes"/>
      <point x="1087.0" y="1198.0"/>
      <point x="1092.0" y="1186.0"/>
      <point x="1092.0" y="1169.0" type="curve" smooth="yes"/>
      <point x="1092.0" y="1161.0"/>
      <point x="1092.0" y="1155.0"/>
      <point x="1091.0" y="1151.0" type="curve"/>
      <point x="941.0" y="65.0" type="line" smooth="yes"/>
      <point x="938.0" y="41.0"/>
      <point x="930.0" y="24.0"/>
      <point x="916.0" y="15.0" type="curve" smooth="yes"/>
      <point x="902.0" y="5.0"/>
      <point x="882.0" y="0.0"/>
      <point x="855.0" y="0.0" type="curve" smooth="yes"/>
      <point x="803.0" y="0.0"/>
      <point x="770.0" y="22.0"/>
      <point x="754.0" y="65.0" type="curve" smooth="yes"/>
      <point x="546.0" y="655.0" type="line"/>
      <point x="338.0" y="65.0" type="line" smooth="yes"/>
      <point x="323.0" y="22.0"/>
      <point x="289.0" y="0.0"/>
      <point x="237.0" y="0.0" type="curve" smooth="yes"/>
      <point x="211.0" y="0.0"/>
      <point x="190.0" y="5.0"/>
      <point x="177.0" y="15.0" type="curve"/>
      <point x="163.0" y="24.0"/>
      <point x="154.0" y="41.0"/>
      <point x="151.0" y="65.0" type="curve" smooth="yes"/>
      <point x="1.0" y="1151.0" type="line"/>
      <point x="0.0" y="1155.0"/>
      <point x="0.0" y="1161.0"/>
      <point x="0.0" y="1169.0" type="curve" smooth="yes"/>
      <point x="0.0" y="1186.0"/>
      <point x="5.0" y="1198.0"/>
      <point x="16.0" y="1207.0" type="curve" smooth="yes"/>
      <point x="27.0" y="1216.0"/>
      <point x="44.0" y="1222.0"/>
      <point x="68.0" y="1225.0" type="curve"/>
      <point x="73.0" y="1226.0"/>
      <point x="80.0" y="1226.0"/>
      <point x="89.0" y="1226.0" type="curve" smooth="yes"/>
      <point x="109.0" y="1226.0"/>
      <point x="123.0" y="1222.0"/>
      <point x="133.0" y="1213.0" type="curve"/>
      <point x="142.0" y="1204.0"/>
      <point x="148.0" y="1189.0"/>
      <point x="151.0" y="1168.0" type="curve" smooth="yes"/>
      <point x="264.0" y="282.0" type="line"/>
      <point x="472.0" y="872.0" type="line" smooth="yes"/>
      <point x="476.0" y="885.0"/>
      <point x="485.0" y="896.0"/>
      <point x="496.0" y="902.0" type="curve" smooth="yes"/>
      <point x="508.0" y="909.0"/>
      <point x="525.0" y="912.0"/>
      <point x="546.0" y="912.0" type="curve" smooth="yes"/>
      <point x="568.0" y="912.0"/>
      <point x="584.0" y="909.0"/>
      <point x="596.0" y="902.0" type="curve"/>
      <point x="608.0" y="896.0"/>
      <point x="616.0" y="885.0"/>
      <point x="621.0" y="872.0" type="curve" smooth="yes"/>
      <point x="829.0" y="282.0" type="line"/>
      <point x="941.0" y="1168.0" type="line" smooth="yes"/>
      <point x="944.0" y="1189.0"/>
      <point x="950.0" y="1204.0"/>
      <point x="960.0" y="1213.0" type="curve"/>
      <point x="969.0" y="1222.0"/>
      <point x="984.0" y="1226.0"/>
      <point x="1004.0" y="1226.0" type="curve" smooth="yes"/>
      <point x="1013.0" y="1226.0"/>
      <point x="1019.0" y="1226.0"/>
    </contour>
    <contour>
      <point x="1985.0" y="515.0" type="curve"/>
      <point x="2250.0" y="111.0" type="line" smooth="yes"/>
      <point x="2259.0" y="96.0"/>
      <point x="2264.0" y="83.0"/>
      <point x="2264.0" y="72.0" type="curve" smooth="yes"/>
      <point x="2264.0" y="62.0"/>
      <point x="2260.0" y="53.0"/>
      <point x="2253.0" y="45.0" type="curve"/>
      <point x="2245.0" y="37.0"/>
      <point x="2233.0" y="30.0"/>
      <point x="2217.0" y="22.0" type="curve"/>
      <point x="2193.0" y="12.0"/>
      <point x="2176.0" y="7.0"/>
      <point x="2165.0" y="7.0" type="curve" smooth="yes"/>
      <point x="2146.0" y="7.0"/>
      <point x="2131.0" y="16.0"/>
      <point x="2119.0" y="35.0" type="curve" smooth="yes"/>
      <point x="1820.0" y="498.0" type="line"/>
      <point x="1596.0" y="498.0" type="line"/>
      <point x="1596.0" y="77.0" type="line" smooth="yes"/>
      <point x="1596.0" y="54.0"/>
      <point x="1591.0" y="37.0"/>
      <point x="1580.0" y="27.0" type="curve" smooth="yes"/>
      <point x="1569.0" y="17.0"/>
      <point x="1549.0" y="12.0"/>
      <point x="1522.0" y="12.0" type="curve" smooth="yes"/>
      <point x="1520.0" y="12.0" type="line" smooth="yes"/>
      <point x="1492.0" y="12.0"/>
      <point x="1473.0" y="17.0"/>
      <point x="1462.0" y="27.0" type="curve" smooth="yes"/>
      <point x="1451.0" y="37.0"/>
      <point x="1445.0" y="54.0"/>
      <point x="1445.0" y="77.0" type="curve" smooth="yes"/>
      <point x="1445.0" y="1148.0" type="line" smooth="yes"/>
      <point x="1445.0" y="1173.0"/>
      <point x="1450.0" y="1190.0"/>
      <point x="1460.0" y="1200.0" type="curve" smooth="yes"/>
      <point x="1470.0" y="1211.0"/>
      <point x="1486.0" y="1216.0"/>
      <point x="1509.0" y="1216.0" type="curve" smooth="yes"/>
      <point x="1833.0" y="1216.0" type="line" smooth="yes"/>
      <point x="1922.0" y="1216.0"/>
      <point x="1997.0" y="1201.0"/>
      <point x="2059.0" y="1171.0" type="curve" smooth="yes"/>
      <point x="2121.0" y="1141.0"/>
      <point x="2168.0" y="1100.0"/>
      <point x="2200.0" y="1046.0" type="curve" smooth="yes"/>
      <point x="2231.0" y="992.0"/>
      <point x="2247.0" y="928.0"/>
      <point x="2247.0" y="855.0" type="curve" smooth="yes"/>
      <point x="2247.0" y="768.0"/>
      <point x="2225.0" y="695.0"/>
      <point x="2180.0" y="636.0" type="curve" smooth="yes"/>
      <point x="2136.0" y="578.0"/>
      <point x="2070.0" y="537.0"/>
    </contour>
    <contour>
      <point x="1596.0" y="1071.0" type="line"/>
      <point x="1596.0" y="643.0" type="line"/>
      <point x="1812.0" y="643.0" type="line" smooth="yes"/>
      <point x="1999.0" y="643.0"/>
      <point x="2092.0" y="713.0"/>
      <point x="2092.0" y="855.0" type="curve" smooth="yes"/>
      <point x="2092.0" y="926.0"/>
      <point x="2069.0" y="980.0"/>
      <point x="2022.0" y="1016.0" type="curve" smooth="yes"/>
      <point x="1976.0" y="1053.0"/>
      <point x="1905.0" y="1071.0"/>
      <point x="1812.0" y="1071.0" type="curve" smooth="yes"/>
    </contour>
    <contour>
      <point x="3103.0" y="1238.0" type="curve" smooth="yes"/>
      <point x="3208.0" y="1238.0"/>
      <point x="3300.0" y="1213.0"/>
      <point x="3380.0" y="1161.0" type="curve" smooth="yes"/>
      <point x="3459.0" y="1110.0"/>
      <point x="3521.0" y="1037.0"/>
      <point x="3565.0" y="943.0" type="curve" smooth="yes"/>
      <point x="3608.0" y="850.0"/>
      <point x="3630.0" y="741.0"/>
      <point x="3630.0" y="619.0" type="curve" smooth="yes"/>
      <point x="3630.0" y="496.0"/>
      <point x="3608.0" y="388.0"/>
      <point x="3565.0" y="294.0" type="curve" smooth="yes"/>
      <point x="3521.0" y="201.0"/>
      <point x="3459.0" y="128.0"/>
      <point x="3380.0" y="77.0" type="curve" smooth="yes"/>
      <point x="3300.0" y="26.0"/>
      <point x="3208.0" y="0.0"/>
      <point x="3103.0" y="0.0" type="curve" smooth="yes"/>
      <point x="2998.0" y="0.0"/>
      <point x="2906.0" y="26.0"/>
      <point x="2826.0" y="77.0" type="curve" smooth="yes"/>
      <point x="2747.0" y="128.0"/>
      <point x="2685.0" y="201.0"/>
      <point x="2641.0" y="294.0" type="curve" smooth="yes"/>
      <point x="2598.0" y="388.0"/>
      <point x="2576.0" y="496.0"/>
      <point x="2576.0" y="619.0" type="curve" smooth="yes"/>
      <point x="2576.0" y="741.0"/>
      <point x="2598.0" y="850.0"/>
      <point x="2641.0" y="943.0" type="curve" smooth="yes"/>
      <point x="2685.0" y="1037.0"/>
      <point x="2747.0" y="1110.0"/>
      <point x="2826.0" y="1161.0" type="curve" smooth="yes"/>
      <point x="2906.0" y="1213.0"/>
      <point x="2998.0" y="1238.0"/>
    </contour>
    <contour>
      <point x="3103.0" y="1089.0" type="curve" smooth="yes"/>
      <point x="3029.0" y="1089.0"/>
      <point x="2963.0" y="1070.0"/>
      <point x="2907.0" y="1033.0" type="curve" smooth="yes"/>
      <point x="2851.0" y="995.0"/>
      <point x="2807.0" y="940.0"/>
      <point x="2777.0" y="869.0" type="curve" smooth="yes"/>
      <point x="2746.0" y="798.0"/>
      <point x="2731.0" y="714.0"/>
      <point x="2731.0" y="619.0" type="curve" smooth="yes"/>
      <point x="2731.0" y="523.0"/>
      <point x="2746.0" y="439.0"/>
      <point x="2777.0" y="369.0" type="curve" smooth="yes"/>
      <point x="2807.0" y="298.0"/>
      <point x="2850.0" y="244.0"/>
      <point x="2906.0" y="206.0" type="curve" smooth="yes"/>
      <point x="2962.0" y="168.0"/>
      <point x="3028.0" y="149.0"/>
      <point x="3103.0" y="149.0" type="curve" smooth="yes"/>
      <point x="3178.0" y="149.0"/>
      <point x="3244.0" y="168.0"/>
      <point x="3300.0" y="206.0" type="curve" smooth="yes"/>
      <point x="3356.0" y="244.0"/>
      <point x="3399.0" y="298.0"/>
      <point x="3429.0" y="369.0" type="curve" smooth="yes"/>
      <point x="3460.0" y="439.0"/>
      <point x="3475.0" y="523.0"/>
      <point x="3475.0" y="619.0" type="curve" smooth="yes"/>
      <point x="3475.0" y="714.0"/>
      <point x="3460.0" y="798.0"/>
      <point x="3429.0" y="869.0" type="curve" smooth="yes"/>
      <point x="3399.0" y="940.0"/>
      <point x="3355.0" y="995.0"/>
      <point x="3299.0" y="1033.0" type="curve" smooth="yes"/>
      <point x="3243.0" y="1070.0"/>
      <point x="3177.0" y="1089.0"/>
    </contour>
    <contour>
      <point x="4747.0" y="1226.0" type="curve" smooth="yes"/>
      <point x="4749.0" y="1226.0" type="line" smooth="yes"/>
      <point x="4775.0" y="1226.0"/>
      <point x="4794.0" y="1221.0"/>
      <point x="4805.0" y="1211.0" type="curve" smooth="yes"/>
      <point x="4816.0" y="1201.0"/>
      <point x="4821.0" y="1184.0"/>
      <point x="4821.0" y="1161.0" type="curve" smooth="yes"/>
      <point x="4821.0" y="59.0" type="line" smooth="yes"/>
      <point x="4821.0" y="41.0"/>
      <point x="4815.0" y="27.0"/>
      <point x="4802.0" y="16.0" type="curve" smooth="yes"/>
      <point x="4790.0" y="5.0"/>
      <point x="4771.0" y="0.0"/>
      <point x="4746.0" y="0.0" type="curve" smooth="yes"/>
      <point x="4727.0" y="0.0"/>
      <point x="4712.0" y="5.0"/>
      <point x="4699.0" y="14.0" type="curve" smooth="yes"/>
      <point x="4686.0" y="23.0"/>
      <point x="4673.0" y="37.0"/>
      <point x="4661.0" y="55.0" type="curve" smooth="yes"/>
      <point x="4089.0" y="949.0" type="line"/>
      <point x="4085.0" y="949.0" type="line"/>
      <point x="4085.0" y="77.0" type="line" smooth="yes"/>
      <point x="4085.0" y="54.0"/>
      <point x="4079.0" y="37.0"/>
      <point x="4069.0" y="27.0" type="curve" smooth="yes"/>
      <point x="4058.0" y="17.0"/>
      <point x="4039.0" y="12.0"/>
      <point x="4012.0" y="12.0" type="curve" smooth="yes"/>
      <point x="4010.0" y="12.0" type="line" smooth="yes"/>
      <point x="3983.0" y="12.0"/>
      <point x="3965.0" y="17.0"/>
      <point x="3954.0" y="27.0" type="curve" smooth="yes"/>
      <point x="3943.0" y="37.0"/>
      <point x="3938.0" y="54.0"/>
      <point x="3938.0" y="77.0" type="curve" smooth="yes"/>
      <point x="3938.0" y="1161.0" type="line" smooth="yes"/>
      <point x="3938.0" y="1184.0"/>
      <point x="3944.0" y="1201.0"/>
      <point x="3955.0" y="1211.0" type="curve" smooth="yes"/>
      <point x="3966.0" y="1221.0"/>
      <point x="3986.0" y="1226.0"/>
      <point x="4013.0" y="1226.0" type="curve" smooth="yes"/>
      <point x="4040.0" y="1226.0" type="line" smooth="yes"/>
      <point x="4069.0" y="1226.0"/>
      <point x="4090.0" y="1217.0"/>
      <point x="4103.0" y="1198.0" type="curve" smooth="yes"/>
      <point x="4670.0" y="311.0" type="line"/>
      <point x="4674.0" y="311.0" type="line"/>
      <point x="4674.0" y="1161.0" type="line" smooth="yes"/>
      <point x="4674.0" y="1184.0"/>
      <point x="4679.0" y="1201.0"/>
      <point x="4690.0" y="1211.0" type="curve" smooth="yes"/>
      <point x="4701.0" y="1221.0"/>
      <point x="4720.0" y="1226.0"/>
    </contour>
    <contour>
      <point x="5708.0" y="620.0" type="curve" smooth="yes"/>
      <point x="6064.0" y="620.0" type="line" smooth="yes"/>
      <point x="6087.0" y="620.0"/>
      <point x="6103.0" y="614.0"/>
      <point x="6113.0" y="604.0" type="curve" smooth="yes"/>
      <point x="6123.0" y="594.0"/>
      <point x="6128.0" y="576.0"/>
      <point x="6128.0" y="551.0" type="curve" smooth="yes"/>
      <point x="6128.0" y="166.0" type="line" smooth="yes"/>
      <point x="6128.0" y="133.0"/>
      <point x="6115.0" y="110.0"/>
      <point x="6091.0" y="97.0" type="curve" smooth="yes"/>
      <point x="6036.0" y="65.0"/>
      <point x="5973.0" y="41.0"/>
      <point x="5901.0" y="25.0" type="curve" smooth="yes"/>
      <point x="5829.0" y="8.0"/>
      <point x="5754.0" y="0.0"/>
      <point x="5676.0" y="0.0" type="curve" smooth="yes"/>
      <point x="5571.0" y="0.0"/>
      <point x="5479.0" y="26.0"/>
      <point x="5399.0" y="77.0" type="curve" smooth="yes"/>
      <point x="5319.0" y="128.0"/>
      <point x="5258.0" y="201.0"/>
      <point x="5214.0" y="295.0" type="curve" smooth="yes"/>
      <point x="5171.0" y="389.0"/>
      <point x="5149.0" y="497.0"/>
      <point x="5149.0" y="620.0" type="curve" smooth="yes"/>
      <point x="5149.0" y="742.0"/>
      <point x="5172.0" y="849.0"/>
      <point x="5218.0" y="943.0" type="curve" smooth="yes"/>
      <point x="5264.0" y="1037.0"/>
      <point x="5327.0" y="1109.0"/>
      <point x="5409.0" y="1161.0" type="curve" smooth="yes"/>
      <point x="5490.0" y="1212.0"/>
      <point x="5583.0" y="1238.0"/>
      <point x="5686.0" y="1238.0" type="curve" smooth="yes"/>
      <point x="5755.0" y="1238.0"/>
      <point x="5820.0" y="1231.0"/>
      <point x="5880.0" y="1217.0" type="curve" smooth="yes"/>
      <point x="5940.0" y="1202.0"/>
      <point x="5999.0" y="1179.0"/>
      <point x="6059.0" y="1147.0" type="curve" smooth="yes"/>
      <point x="6085.0" y="1133.0"/>
      <point x="6097.0" y="1113.0"/>
      <point x="6097.0" y="1089.0" type="curve" smooth="yes"/>
      <point x="6097.0" y="1077.0"/>
      <point x="6094.0" y="1061.0"/>
      <point x="6086.0" y="1043.0" type="curve" smooth="yes"/>
      <point x="6073.0" y="1013.0"/>
      <point x="6055.0" y="998.0"/>
      <point x="6033.0" y="998.0" type="curve" smooth="yes"/>
      <point x="6022.0" y="998.0"/>
      <point x="6011.0" y="1001.0"/>
      <point x="5999.0" y="1008.0" type="curve" smooth="yes"/>
      <point x="5904.0" y="1062.0"/>
      <point x="5799.0" y="1089.0"/>
      <point x="5686.0" y="1089.0" type="curve" smooth="yes"/>
      <point x="5613.0" y="1089.0"/>
      <point x="5547.0" y="1070.0"/>
      <point x="5490.0" y="1032.0" type="curve" smooth="yes"/>
      <point x="5432.0" y="994.0"/>
      <point x="5387.0" y="939.0"/>
      <point x="5354.0" y="868.0" type="curve" smooth="yes"/>
      <point x="5320.0" y="797.0"/>
      <point x="5304.0" y="714.0"/>
      <point x="5304.0" y="620.0" type="curve" smooth="yes"/>
      <point x="5304.0" y="524.0"/>
      <point x="5319.0" y="441.0"/>
      <point x="5350.0" y="370.0" type="curve" smooth="yes"/>
      <point x="5381.0" y="299.0"/>
      <point x="5424.0" y="244.0"/>
      <point x="5481.0" y="206.0" type="curve" smooth="yes"/>
      <point x="5537.0" y="168.0"/>
      <point x="5602.0" y="149.0"/>
      <point x="5676.0" y="149.0" type="curve" smooth="yes"/>
      <point x="5793.0" y="149.0"/>
      <point x="5894.0" y="168.0"/>
      <point x="5977.0" y="206.0" type="curve"/>
      <point x="5977.0" y="475.0" type="line"/>
      <point x="5708.0" y="475.0" type="line" smooth="yes"/>
      <point x="5685.0" y="475.0"/>
      <point x="5669.0" y="480.0"/>
      <point x="5659.0" y="491.0" type="curve"/>
      <point x="5650.0" y="502.0"/>
      <point x="5645.0" y="521.0"/>
      <point x="5645.0" y="547.0" type="curve" smooth="yes"/>
      <point x="5645.0" y="573.0"/>
      <point x="5650.0" y="592.0"/>
      <point x="5659.0" y="603.0" type="curve"/>
      <point x="5669.0" y="614.0"/>
      <point x="5685.0" y="620.0"/>
    </contour>
  </outline>
</glyph>
<glyph name="tTRUE" format="2">
  <advance width="6400"/>
  <outline>
    <contour>
      <point x="63.0" y="1216.0" type="curve" smooth="yes"/>
      <point x="736.0" y="1216.0" type="line" smooth="yes"/>
      <point x="759.0" y="1216.0"/>
      <point x="775.0" y="1211.0"/>
      <point x="785.0" y="1199.0" type="curve" smooth="yes"/>
      <point x="795.0" y="1188.0"/>
      <point x="800.0" y="1170.0"/>
      <point x="800.0" y="1144.0" type="curve" smooth="yes"/>
      <point x="800.0" y="1118.0"/>
      <point x="795.0" y="1099.0"/>
      <point x="785.0" y="1088.0" type="curve" smooth="yes"/>
      <point x="775.0" y="1077.0"/>
      <point x="759.0" y="1071.0"/>
      <point x="736.0" y="1071.0" type="curve" smooth="yes"/>
      <point x="151.0" y="1071.0" type="line"/>
      <point x="151.0" y="670.0" type="line"/>
      <point x="621.0" y="670.0" type="line" smooth="yes"/>
      <point x="643.0" y="670.0"/>
      <point x="660.0" y="664.0"/>
      <point x="669.0" y="653.0" type="curve"/>
      <point x="679.0" y="642.0"/>
      <point x="684.0" y="624.0"/>
      <point x="684.0" y="597.0" type="curve" smooth="yes"/>
      <point x="684.0" y="571.0"/>
      <point x="679.0" y="553.0"/>
      <point x="669.0" y="542.0" type="curve"/>
      <point x="660.0" y="531.0"/>
      <point x="643.0" y="525.0"/>
      <point x="621.0" y="525.0" type="curve" smooth="yes"/>
      <point x="151.0" y="525.0" type="line"/>
      <point x="151.0" y="77.0" type="line" smooth="yes"/>
      <point x="151.0" y="54.0"/>
      <point x="145.0" y="37.0"/>
      <point x="134.0" y="27.0" type="curve" smooth="yes"/>
      <point x="123.0" y="17.0"/>
      <point x="104.0" y="12.0"/>
      <point x="76.0" y="12.0" type="curve" smooth="yes"/>
      <point x="74.0" y="12.0" type="line" smooth="yes"/>
      <point x="47.0" y="12.0"/>
      <point x="28.0" y="17.0"/>
      <point x="17.0" y="27.0" type="curve" smooth="yes"/>
      <point x="6.0" y="37.0"/>
      <point x="0.0" y="54.0"/>
      <point x="0.0" y="77.0" type="curve" smooth="yes"/>
      <point x="0.0" y="1148.0" type="line" smooth="yes"/>
      <point x="0.0" y="1173.0"/>
      <point x="5.0" y="1190.0"/>
      <point x="16.0" y="1200.0" type="curve"/>
      <point x="26.0" y="1211.0"/>
      <point x="42.0" y="1216.0"/>
    </contour>
    <contour>
      <point x="1758.0" y="1173.0" type="curve" smooth="yes"/>
      <point x="2155.0" y="107.0" type="line" smooth="yes"/>
      <point x="2159.0" y="95.0"/>
      <point x="2161.0" y="84.0"/>
      <point x="2161.0" y="75.0" type="curve" smooth="yes"/>
      <point x="2161.0" y="63.0"/>
      <point x="2156.0" y="52.0"/>
      <point x="2147.0" y="43.0" type="curve"/>
      <point x="2138.0" y="35.0"/>
      <point x="2123.0" y="27.0"/>
      <point x="2103.0" y="20.0" type="curve"/>
      <point x="2086.0" y="15.0"/>
      <point x="2072.0" y="12.0"/>
      <point x="2063.0" y="12.0" type="curve" smooth="yes"/>
      <point x="2050.0" y="12.0"/>
      <point x="2039.0" y="16.0"/>
      <point x="2030.0" y="23.0" type="curve"/>
      <point x="2021.0" y="31.0"/>
      <point x="2014.0" y="42.0"/>
      <point x="2009.0" y="58.0" type="curve"/>
      <point x="1899.0" y="354.0" type="line"/>
      <point x="1392.0" y="354.0" type="line"/>
      <point x="1282.0" y="58.0" type="line"/>
      <point x="1277.0" y="42.0"/>
      <point x="1270.0" y="31.0"/>
      <point x="1261.0" y="23.0" type="curve" smooth="yes"/>
      <point x="1253.0" y="16.0"/>
      <point x="1242.0" y="12.0"/>
      <point x="1228.0" y="12.0" type="curve" smooth="yes"/>
      <point x="1219.0" y="12.0"/>
      <point x="1205.0" y="15.0"/>
      <point x="1188.0" y="20.0" type="curve"/>
      <point x="1168.0" y="27.0"/>
      <point x="1153.0" y="35.0"/>
      <point x="1144.0" y="43.0" type="curve"/>
      <point x="1135.0" y="52.0"/>
      <point x="1131.0" y="63.0"/>
      <point x="1131.0" y="75.0" type="curve" smooth="yes"/>
      <point x="1131.0" y="84.0"/>
      <point x="1133.0" y="95.0"/>
      <point x="1137.0" y="107.0" type="curve" smooth="yes"/>
      <point x="1533.0" y="1173.0" type="line" smooth="yes"/>
      <point x="1542.0" y="1196.0"/>
      <point x="1555.0" y="1213.0"/>
      <point x="1572.0" y="1223.0" type="curve" smooth="yes"/>
      <point x="1590.0" y="1233.0"/>
      <point x="1614.0" y="1238.0"/>
      <point x="1646.0" y="1238.0" type="curve" smooth="yes"/>
      <point x="1677.0" y="1238.0"/>
      <point x="1702.0" y="1233.0"/>
      <point x="1719.0" y="1223.0" type="curve" smooth="yes"/>
      <point x="1736.0" y="1213.0"/>
      <point x="1749.0" y="1196.0"/>
    </contour>
    <contour>
      <point x="1644.0" y="1071.0" type="line"/>
      <point x="1444.0" y="499.0" type="line"/>
      <point x="1846.0" y="499.0" type="line"/>
      <point x="1648.0" y="1071.0" type="line"/>
    </contour>
    <contour>
      <point x="2704.0" y="167.0" type="line"/>
      <point x="3289.0" y="167.0" type="line" smooth="yes"/>
      <point x="3312.0" y="167.0"/>
      <point x="3328.0" y="161.0"/>
      <point x="3338.0" y="150.0" type="curve" smooth="yes"/>
      <point x="3348.0" y="139.0"/>
      <point x="3352.0" y="121.0"/>
      <point x="3352.0" y="95.0" type="curve" smooth="yes"/>
      <point x="3352.0" y="68.0"/>
      <point x="3348.0" y="50.0"/>
      <point x="3338.0" y="39.0" type="curve" smooth="yes"/>
      <point x="3328.0" y="28.0"/>
      <point x="3312.0" y="22.0"/>
      <point x="3289.0" y="22.0" type="curve" smooth="yes"/>
      <point x="2616.0" y="22.0" type="line" smooth="yes"/>
      <point x="2593.0" y="22.0"/>
      <point x="2576.0" y="27.0"/>
      <point x="2567.0" y="38.0" type="curve"/>
      <point x="2557.0" y="48.0"/>
      <point x="2553.0" y="66.0"/>
      <point x="2553.0" y="91.0" type="curve" smooth="yes"/>
      <point x="2553.0" y="1161.0" type="line" smooth="yes"/>
      <point x="2553.0" y="1184.0"/>
      <point x="2558.0" y="1201.0"/>
      <point x="2569.0" y="1211.0" type="curve" smooth="yes"/>
      <point x="2580.0" y="1221.0"/>
      <point x="2600.0" y="1226.0"/>
      <point x="2627.0" y="1226.0" type="curve" smooth="yes"/>
      <point x="2629.0" y="1226.0" type="line" smooth="yes"/>
      <point x="2657.0" y="1226.0"/>
      <point x="2676.0" y="1221.0"/>
      <point x="2687.0" y="1211.0" type="curve" smooth="yes"/>
      <point x="2698.0" y="1201.0"/>
      <point x="2704.0" y="1184.0"/>
      <point x="2704.0" y="1161.0" type="curve" smooth="yes"/>
    </contour>
    <contour>
      <point x="4164.0" y="1238.0" type="curve" smooth="yes"/>
      <point x="4322.0" y="1238.0"/>
      <point x="4459.0" y="1205.0"/>
      <point x="4577.0" y="1138.0" type="curve" smooth="yes"/>
      <point x="4601.0" y="1124.0"/>
      <point x="4613.0" y="1105.0"/>
      <point x="4613.0" y="1081.0" type="curve" smooth="yes"/>
      <point x="4613.0" y="1067.0"/>
      <point x="4608.0" y="1050.0"/>
      <point x="4600.0" y="1032.0" type="curve" smooth="yes"/>
      <point x="4586.0" y="1002.0"/>
      <point x="4568.0" y="987.0"/>
      <point x="4544.0" y="987.0" type="curve" smooth="yes"/>
      <point x="4534.0" y="987.0"/>
      <point x="4523.0" y="990.0"/>
      <point x="4511.0" y="997.0" type="curve" smooth="yes"/>
      <point x="4408.0" y="1059.0"/>
      <point x="4292.0" y="1089.0"/>
      <point x="4164.0" y="1089.0" type="curve" smooth="yes"/>
      <point x="4084.0" y="1089.0"/>
      <point x="4022.0" y="1072.0"/>
      <point x="3978.0" y="1036.0" type="curve" smooth="yes"/>
      <point x="3933.0" y="1000.0"/>
      <point x="3911.0" y="952.0"/>
      <point x="3911.0" y="890.0" type="curve" smooth="yes"/>
      <point x="3911.0" y="863.0"/>
      <point x="3917.0" y="841.0"/>
      <point x="3930.0" y="822.0" type="curve" smooth="yes"/>
      <point x="3943.0" y="803.0"/>
      <point x="3963.0" y="787.0"/>
      <point x="3988.0" y="775.0" type="curve" smooth="yes"/>
      <point x="4012.0" y="762.0"/>
      <point x="4039.0" y="753.0"/>
      <point x="4069.0" y="745.0" type="curve" smooth="yes"/>
      <point x="4100.0" y="738.0"/>
      <point x="4143.0" y="729.0"/>
      <point x="4200.0" y="719.0" type="curve" smooth="yes"/>
      <point x="4255.0" y="710.0"/>
      <point x="4301.0" y="701.0"/>
      <point x="4338.0" y="693.0" type="curve" smooth="yes"/>
      <point x="4375.0" y="684.0"/>
      <point x="4410.0" y="673.0"/>
      <point x="4444.0" y="660.0" type="curve" smooth="yes"/>
      <point x="4509.0" y="634.0"/>
      <point x="4560.0" y="596.0"/>
      <point x="4596.0" y="548.0" type="curve" smooth="yes"/>
      <point x="4633.0" y="500.0"/>
      <point x="4651.0" y="434.0"/>
      <point x="4651.0" y="351.0" type="curve" smooth="yes"/>
      <point x="4651.0" y="281.0"/>
      <point x="4634.0" y="219.0"/>
      <point x="4601.0" y="166.0" type="curve" smooth="yes"/>
      <point x="4568.0" y="114.0"/>
      <point x="4518.0" y="73.0"/>
      <point x="4452.0" y="44.0" type="curve" smooth="yes"/>
      <point x="4386.0" y="15.0"/>
      <point x="4305.0" y="0.0"/>
      <point x="4208.0" y="0.0" type="curve" smooth="yes"/>
      <point x="4132.0" y="0.0"/>
      <point x="4057.0" y="10.0"/>
      <point x="3984.0" y="31.0" type="curve" smooth="yes"/>
      <point x="3911.0" y="51.0"/>
      <point x="3845.0" y="80.0"/>
      <point x="3785.0" y="117.0" type="curve" smooth="yes"/>
      <point x="3762.0" y="131.0"/>
      <point x="3751.0" y="149.0"/>
      <point x="3751.0" y="172.0" type="curve" smooth="yes"/>
      <point x="3751.0" y="187.0"/>
      <point x="3755.0" y="204.0"/>
      <point x="3765.0" y="222.0" type="curve" smooth="yes"/>
      <point x="3780.0" y="252.0"/>
      <point x="3799.0" y="267.0"/>
      <point x="3820.0" y="267.0" type="curve" smooth="yes"/>
      <point x="3832.0" y="267.0"/>
      <point x="3843.0" y="263.0"/>
      <point x="3854.0" y="255.0" type="curve"/>
      <point x="3905.0" y="223.0"/>
      <point x="3960.0" y="197.0"/>
      <point x="4022.0" y="178.0" type="curve" smooth="yes"/>
      <point x="4083.0" y="159.0"/>
      <point x="4145.0" y="149.0"/>
      <point x="4208.0" y="149.0" type="curve" smooth="yes"/>
      <point x="4303.0" y="149.0"/>
      <point x="4375.0" y="167.0"/>
      <point x="4423.0" y="204.0" type="curve" smooth="yes"/>
      <point x="4472.0" y="240.0"/>
      <point x="4496.0" y="289.0"/>
      <point x="4496.0" y="351.0" type="curve" smooth="yes"/>
      <point x="4496.0" y="393.0"/>
      <point x="4486.0" y="426.0"/>
      <point x="4464.0" y="453.0" type="curve" smooth="yes"/>
      <point x="4443.0" y="479.0"/>
      <point x="4413.0" y="500.0"/>
      <point x="4374.0" y="517.0" type="curve" smooth="yes"/>
      <point x="4348.0" y="528.0"/>
      <point x="4320.0" y="538.0"/>
      <point x="4290.0" y="545.0" type="curve" smooth="yes"/>
      <point x="4260.0" y="552.0"/>
      <point x="4218.0" y="560.0"/>
      <point x="4166.0" y="569.0" type="curve" smooth="yes"/>
      <point x="4110.0" y="579.0"/>
      <point x="4063.0" y="589.0"/>
      <point x="4025.0" y="598.0" type="curve" smooth="yes"/>
      <point x="3988.0" y="607.0"/>
      <point x="3953.0" y="619.0"/>
      <point x="3921.0" y="634.0" type="curve" smooth="yes"/>
      <point x="3868.0" y="657.0"/>
      <point x="3828.0" y="689.0"/>
      <point x="3799.0" y="730.0" type="curve" smooth="yes"/>
      <point x="3770.0" y="771.0"/>
      <point x="3756.0" y="824.0"/>
      <point x="3756.0" y="890.0" type="curve" smooth="yes"/>
      <point x="3756.0" y="962.0"/>
      <point x="3773.0" y="1024.0"/>
      <point x="3807.0" y="1076.0" type="curve" smooth="yes"/>
      <point x="3841.0" y="1129.0"/>
      <point x="3889.0" y="1169.0"/>
      <point x="3951.0" y="1196.0" type="curve" smooth="yes"/>
      <point x="4013.0" y="1224.0"/>
      <point x="4084.0" y="1238.0"/>
    </contour>
    <contour>
      <point x="5236.0" y="167.0" type="line"/>
      <point x="5842.0" y="167.0" type="line" smooth="yes"/>
      <point x="5865.0" y="167.0"/>
      <point x="5881.0" y="161.0"/>
      <point x="5891.0" y="150.0" type="curve"/>
      <point x="5900.0" y="139.0"/>
      <point x="5905.0" y="121.0"/>
      <point x="5905.0" y="95.0" type="curve" smooth="yes"/>
      <point x="5905.0" y="68.0"/>
      <point x="5900.0" y="50.0"/>
      <point x="5891.0" y="39.0" type="curve"/>
      <point x="5881.0" y="28.0"/>
      <point x="5865.0" y="22.0"/>
      <point x="5842.0" y="22.0" type="curve" smooth="yes"/>
      <point x="5149.0" y="22.0" type="line" smooth="yes"/>
      <point x="5126.0" y="22.0"/>
      <point x="5110.0" y="27.0"/>
      <point x="5100.0" y="38.0" type="curve" smooth="yes"/>
      <point x="5090.0" y="48.0"/>
      <point x="5085.0" y="66.0"/>
      <point x="5085.0" y="91.0" type="curve" smooth="yes"/>
      <point x="5085.0" y="1148.0" type="line" smooth="yes"/>
      <point x="5085.0" y="1173.0"/>
      <point x="5090.0" y="1190.0"/>
      <point x="5100.0" y="1200.0" type="curve" smooth="yes"/>
      <point x="5110.0" y="1211.0"/>
      <point x="5126.0" y="1216.0"/>
      <point x="5149.0" y="1216.0" type="curve" smooth="yes"/>
      <point x="5822.0" y="1216.0" type="line" smooth="yes"/>
      <point x="5845.0" y="1216.0"/>
      <point x="5861.0" y="1211.0"/>
      <point x="5871.0" y="1199.0" type="curve" smooth="yes"/>
      <point x="5880.0" y="1188.0"/>
      <point x="5885.0" y="1170.0"/>
      <point x="5885.0" y="1144.0" type="curve" smooth="yes"/>
      <point x="5885.0" y="1118.0"/>
      <point x="5880.0" y="1099.0"/>
      <point x="5871.0" y="1088.0" type="curve"/>
      <point x="5861.0" y="1077.0"/>
      <point x="5845.0" y="1071.0"/>
      <point x="5822.0" y="1071.0" type="curve" smooth="yes"/>
      <point x="5236.0" y="1071.0" type="line"/>
      <point x="5236.0" y="710.0" type="line"/>
      <point x="5696.0" y="710.0" type="line" smooth="yes"/>
      <point x="5719.0" y="710.0"/>
      <point x="5735.0" y="705.0"/>
      <point x="5745.0" y="694.0" type="curve" smooth="yes"/>
      <point x="5755.0" y="682.0"/>
      <point x="5759.0" y="664.0"/>
      <point x="5759.0" y="638.0" type="curve" smooth="yes"/>
      <point x="5759.0" y="612.0"/>
      <point x="5755.0" y="593.0"/>
      <point x="5745.0" y="582.0" type="curve" smooth="yes"/>
      <point x="5735.0" y="571.0"/>
      <point x="5719.0" y="565.0"/>
      <point x="5696.0" y="565.0" type="curve" smooth="yes"/>
      <point x="5236.0" y="565.0" type="line"/>
    </contour>
  </outline>
</glyph>
<glyph name="tTRUTH" format="2">
  <advance width="3840"/>
  <outline>
    <contour>
      <point x="151.0" y="145.0" type="line"/>
      <point x="736.0" y="145.0" type="line" smooth="yes"/>
      <point x="759.0" y="145.0"/>
      <point x="775.0" y="139.0"/>
      <point x="785.0" y="128.0" type="curve" smooth="yes"/>
      <point x="795.0" y="117.0"/>
      <point x="800.0" y="99.0"/>
      <point x="800.0" y="72.0" type="curve" smooth="yes"/>
      <point x="800.0" y="46.0"/>
      <point x="795.0" y="28.0"/>
      <point x="785.0" y="17.0" type="curve" smooth="yes"/>
      <point x="775.0" y="6.0"/>
      <point x="759.0" y="0.0"/>
      <point x="736.0" y="0.0" type="curve" smooth="yes"/>
      <point x="63.0" y="0.0" type="line" smooth="yes"/>
      <point x="40.0" y="0.0"/>
      <point x="23.0" y="5.0"/>
      <point x="14.0" y="16.0" type="curve" smooth="yes"/>
      <point x="5.0" y="26.0"/>
      <point x="0.0" y="44.0"/>
      <point x="0.0" y="68.0" type="curve" smooth="yes"/>
      <point x="0.0" y="1139.0" type="line" smooth="yes"/>
      <point x="0.0" y="1162.0"/>
      <point x="6.0" y="1179.0"/>
      <point x="17.0" y="1189.0" type="curve" smooth="yes"/>
      <point x="28.0" y="1199.0"/>
      <point x="47.0" y="1204.0"/>
      <point x="74.0" y="1204.0" type="curve" smooth="yes"/>
      <point x="76.0" y="1204.0" type="line" smooth="yes"/>
      <point x="104.0" y="1204.0"/>
      <point x="123.0" y="1199.0"/>
      <point x="134.0" y="1189.0" type="curve" smooth="yes"/>
      <point x="145.0" y="1179.0"/>
      <point x="151.0" y="1162.0"/>
      <point x="151.0" y="1139.0" type="curve" smooth="yes"/>
    </contour>
    <contour>
      <point x="1723.0" y="145.0" type="line"/>
      <point x="2001.0" y="145.0" type="line" smooth="yes"/>
      <point x="2023.0" y="145.0"/>
      <point x="2040.0" y="139.0"/>
      <point x="2049.0" y="128.0" type="curve"/>
      <point x="2059.0" y="117.0"/>
      <point x="2064.0" y="99.0"/>
      <point x="2064.0" y="72.0" type="curve" smooth="yes"/>
      <point x="2064.0" y="46.0"/>
      <point x="2059.0" y="28.0"/>
      <point x="2049.0" y="17.0" type="curve"/>
      <point x="2040.0" y="6.0"/>
      <point x="2023.0" y="0.0"/>
      <point x="2001.0" y="0.0" type="curve" smooth="yes"/>
      <point x="1295.0" y="0.0" type="line" smooth="yes"/>
      <point x="1272.0" y="0.0"/>
      <point x="1255.0" y="6.0"/>
      <point x="1246.0" y="17.0" type="curve"/>
      <point x="1236.0" y="28.0"/>
      <point x="1231.0" y="46.0"/>
      <point x="1231.0" y="72.0" type="curve" smooth="yes"/>
      <point x="1231.0" y="99.0"/>
      <point x="1236.0" y="117.0"/>
      <point x="1246.0" y="128.0" type="curve"/>
      <point x="1255.0" y="139.0"/>
      <point x="1272.0" y="145.0"/>
      <point x="1295.0" y="145.0" type="curve" smooth="yes"/>
      <point x="1572.0" y="145.0" type="line"/>
      <point x="1572.0" y="1049.0" type="line"/>
      <point x="1315.0" y="1049.0" type="line" smooth="yes"/>
      <point x="1292.0" y="1049.0"/>
      <point x="1276.0" y="1055.0"/>
      <point x="1266.0" y="1066.0" type="curve" smooth="yes"/>
      <point x="1256.0" y="1077.0"/>
      <point x="1251.0" y="1095.0"/>
      <point x="1251.0" y="1122.0" type="curve" smooth="yes"/>
      <point x="1251.0" y="1148.0"/>
      <point x="1256.0" y="1166.0"/>
      <point x="1266.0" y="1177.0" type="curve" smooth="yes"/>
      <point x="1276.0" y="1188.0"/>
      <point x="1292.0" y="1194.0"/>
      <point x="1315.0" y="1194.0" type="curve" smooth="yes"/>
      <point x="1981.0" y="1194.0" type="line" smooth="yes"/>
      <point x="2003.0" y="1194.0"/>
      <point x="2020.0" y="1188.0"/>
      <point x="2029.0" y="1177.0" type="curve"/>
      <point x="2039.0" y="1166.0"/>
      <point x="2044.0" y="1148.0"/>
      <point x="2044.0" y="1122.0" type="curve" smooth="yes"/>
      <point x="2044.0" y="1095.0"/>
      <point x="2039.0" y="1077.0"/>
      <point x="2029.0" y="1066.0" type="curve"/>
      <point x="2020.0" y="1055.0"/>
      <point x="2003.0" y="1049.0"/>
      <point x="1981.0" y="1049.0" type="curve" smooth="yes"/>
      <point x="1723.0" y="1049.0" type="line"/>
    </contour>
    <contour>
      <point x="2684.0" y="145.0" type="line"/>
      <point x="3289.0" y="145.0" type="line" smooth="yes"/>
      <point x="3312.0" y="145.0"/>
      <point x="3328.0" y="139.0"/>
      <point x="3338.0" y="128.0" type="curve" smooth="yes"/>
      <point x="3348.0" y="117.0"/>
      <point x="3352.0" y="99.0"/>
      <point x="3352.0" y="72.0" type="curve" smooth="yes"/>
      <point x="3352.0" y="46.0"/>
      <point x="3348.0" y="28.0"/>
      <point x="3338.0" y="17.0" type="curve" smooth="yes"/>
      <point x="3328.0" y="6.0"/>
      <point x="3312.0" y="0.0"/>
      <point x="3289.0" y="0.0" type="curve" smooth="yes"/>
      <point x="2596.0" y="0.0" type="line" smooth="yes"/>
      <point x="2573.0" y="0.0"/>
      <point x="2557.0" y="5.0"/>
      <point x="2547.0" y="16.0" type="curve" smooth="yes"/>
      <point x="2538.0" y="26.0"/>
      <point x="2533.0" y="44.0"/>
      <point x="2533.0" y="68.0" type="curve" smooth="yes"/>
      <point x="2533.0" y="1126.0" type="line" smooth="yes"/>
      <point x="2533.0" y="1150.0"/>
      <point x="2538.0" y="1168.0"/>
      <point x="2547.0" y="1178.0" type="curve" smooth="yes"/>
      <point x="2557.0" y="1189.0"/>
      <point x="2573.0" y="1194.0"/>
      <point x="2596.0" y="1194.0" type="curve" smooth="yes"/>
      <point x="3269.0" y="1194.0" type="line" smooth="yes"/>
      <point x="3292.0" y="1194.0"/>
      <point x="3308.0" y="1188.0"/>
      <point x="3318.0" y="1177.0" type="curve"/>
      <point x="3327.0" y="1166.0"/>
      <point x="3332.0" y="1148.0"/>
      <point x="3332.0" y="1122.0" type="curve" smooth="yes"/>
      <point x="3332.0" y="1095.0"/>
      <point x="3327.0" y="1077.0"/>
      <point x="3318.0" y="1066.0" type="curve"/>
      <point x="3308.0" y="1055.0"/>
      <point x="3292.0" y="1049.0"/>
      <point x="3269.0" y="1049.0" type="curve" smooth="yes"/>
      <point x="2684.0" y="1049.0" type="line"/>
      <point x="2684.0" y="688.0" type="line"/>
      <point x="3143.0" y="688.0" type="line" smooth="yes"/>
      <point x="3166.0" y="688.0"/>
      <point x="3182.0" y="682.0"/>
      <point x="3192.0" y="671.0" type="curve" smooth="yes"/>
      <point x="3202.0" y="660.0"/>
      <point x="3207.0" y="642.0"/>
      <point x="3207.0" y="616.0" type="curve" smooth="yes"/>
      <point x="3207.0" y="589.0"/>
      <point x="3202.0" y="571.0"/>
      <point x="3192.0" y="560.0" type="curve" smooth="yes"/>
      <point x="3182.0" y="549.0"/>
      <point x="3166.0" y="543.0"/>
      <point x="3143.0" y="543.0" type="curve" smooth="yes"/>
      <point x="2684.0" y="543.0" type="line"/>
    </contour>
  </outline>
</glyph>
<glyph name="tWRONG" format="2">
  <advance width="6400"/>
  <outline>
    <contour>
      <point x="539.0" y="515.0" type="curve"/>
      <point x="805.0" y="111.0" type="line" smooth="yes"/>
      <point x="814.0" y="96.0"/>
      <point x="819.0" y="83.0"/>
      <point x="819.0" y="72.0" type="curve" smooth="yes"/>
      <point x="819.0" y="62.0"/>
      <point x="815.0" y="53.0"/>
      <point x="807.0" y="45.0" type="curve" smooth="yes"/>
      <point x="799.0" y="37.0"/>
      <point x="788.0" y="30.0"/>
      <point x="771.0" y="22.0" type="curve" smooth="yes"/>
      <point x="748.0" y="12.0"/>
      <point x="731.0" y="7.0"/>
      <point x="719.0" y="7.0" type="curve" smooth="yes"/>
      <point x="701.0" y="7.0"/>
      <point x="686.0" y="16.0"/>
      <point x="674.0" y="35.0" type="curve" smooth="yes"/>
      <point x="374.0" y="498.0" type="line"/>
      <point x="151.0" y="498.0" type="line"/>
      <point x="151.0" y="77.0" type="line" smooth="yes"/>
      <point x="151.0" y="54.0"/>
      <point x="145.0" y="37.0"/>
      <point x="134.0" y="27.0" type="curve" smooth="yes"/>
      <point x="123.0" y="17.0"/>
      <point x="104.0" y="12.0"/>
      <point x="76.0" y="12.0" type="curve" smooth="yes"/>
      <point x="74.0" y="12.0" type="line" smooth="yes"/>
      <point x="47.0" y="12.0"/>
      <point x="28.0" y="17.0"/>
      <point x="17.0" y="27.0" type="curve" smooth="yes"/>
      <point x="6.0" y="37.0"/>
      <point x="0.0" y="54.0"/>
      <point x="0.0" y="77.0" type="curve" smooth="yes"/>
      <point x="0.0" y="1148.0" type="line" smooth="yes"/>
      <point x="0.0" y="1173.0"/>
      <point x="5.0" y="1190.0"/>
      <point x="15.0" y="1200.0" type="curve"/>
      <point x="24.0" y="1211.0"/>
      <point x="41.0" y="1216.0"/>
      <point x="63.0" y="1216.0" type="curve" smooth="yes"/>
      <point x="387.0" y="1216.0" type="line" smooth="yes"/>
      <point x="476.0" y="1216.0"/>
      <point x="552.0" y="1201.0"/>
      <point x="614.0" y="1171.0" type="curve" smooth="yes"/>
      <point x="676.0" y="1141.0"/>
      <point x="723.0" y="1100.0"/>
      <point x="754.0" y="1046.0" type="curve" smooth="yes"/>
      <point x="786.0" y="992.0"/>
      <point x="802.0" y="928.0"/>
      <point x="802.0" y="855.0" type="curve" smooth="yes"/>
      <point x="802.0" y="768.0"/>
      <point x="779.0" y="695.0"/>
      <point x="735.0" y="636.0" type="curve" smooth="yes"/>
      <point x="690.0" y="578.0"/>
      <point x="625.0" y="537.0"/>
    </contour>
    <contour>
      <point x="151.0" y="1071.0" type="line"/>
      <point x="151.0" y="643.0" type="line"/>
      <point x="366.0" y="643.0" type="line" smooth="yes"/>
      <point x="553.0" y="643.0"/>
      <point x="647.0" y="713.0"/>
      <point x="647.0" y="855.0" type="curve" smooth="yes"/>
      <point x="647.0" y="926.0"/>
      <point x="623.0" y="980.0"/>
      <point x="577.0" y="1016.0" type="curve" smooth="yes"/>
      <point x="530.0" y="1053.0"/>
      <point x="460.0" y="1071.0"/>
      <point x="366.0" y="1071.0" type="curve" smooth="yes"/>
    </contour>
    <contour>
      <point x="1733.0" y="167.0" type="line"/>
      <point x="2011.0" y="167.0" type="line" smooth="yes"/>
      <point x="2033.0" y="167.0"/>
      <point x="2050.0" y="161.0"/>
      <point x="2059.0" y="150.0" type="curve"/>
      <point x="2069.0" y="139.0"/>
      <point x="2074.0" y="121.0"/>
      <point x="2074.0" y="95.0" type="curve" smooth="yes"/>
      <point x="2074.0" y="68.0"/>
      <point x="2069.0" y="50.0"/>
      <point x="2059.0" y="39.0" type="curve"/>
      <point x="2050.0" y="28.0"/>
      <point x="2033.0" y="22.0"/>
      <point x="2011.0" y="22.0" type="curve" smooth="yes"/>
      <point x="1305.0" y="22.0" type="line" smooth="yes"/>
      <point x="1282.0" y="22.0"/>
      <point x="1266.0" y="28.0"/>
      <point x="1256.0" y="39.0" type="curve" smooth="yes"/>
      <point x="1246.0" y="50.0"/>
      <point x="1241.0" y="68.0"/>
      <point x="1241.0" y="95.0" type="curve" smooth="yes"/>
      <point x="1241.0" y="121.0"/>
      <point x="1246.0" y="139.0"/>
      <point x="1256.0" y="150.0" type="curve" smooth="yes"/>
      <point x="1266.0" y="161.0"/>
      <point x="1282.0" y="167.0"/>
      <point x="1305.0" y="167.0" type="curve" smooth="yes"/>
      <point x="1582.0" y="167.0" type="line"/>
      <point x="1582.0" y="1071.0" type="line"/>
      <point x="1325.0" y="1071.0" type="line" smooth="yes"/>
      <point x="1302.0" y="1071.0"/>
      <point x="1286.0" y="1077.0"/>
      <point x="1276.0" y="1088.0" type="curve" smooth="yes"/>
      <point x="1266.0" y="1099.0"/>
      <point x="1261.0" y="1118.0"/>
      <point x="1261.0" y="1144.0" type="curve" smooth="yes"/>
      <point x="1261.0" y="1170.0"/>
      <point x="1266.0" y="1188.0"/>
      <point x="1276.0" y="1199.0" type="curve" smooth="yes"/>
      <point x="1286.0" y="1211.0"/>
      <point x="1302.0" y="1216.0"/>
      <point x="1325.0" y="1216.0" type="curve" smooth="yes"/>
      <point x="1991.0" y="1216.0" type="line" smooth="yes"/>
      <point x="2013.0" y="1216.0"/>
      <point x="2030.0" y="1211.0"/>
      <point x="2039.0" y="1199.0" type="curve"/>
      <point x="2049.0" y="1188.0"/>
      <point x="2054.0" y="1170.0"/>
      <point x="2054.0" y="1144.0" type="curve" smooth="yes"/>
      <point x="2054.0" y="1118.0"/>
      <point x="2049.0" y="1099.0"/>
      <point x="2039.0" y="1088.0" type="curve"/>
      <point x="2030.0" y="1077.0"/>
      <point x="2013.0" y="1071.0"/>
      <point x="1991.0" y="1071.0" type="curve" smooth="yes"/>
      <point x="1733.0" y="1071.0" type="line"/>
    </contour>
    <contour>
      <point x="2986.0" y="620.0" type="curve" smooth="yes"/>
      <point x="3342.0" y="620.0" type="line" smooth="yes"/>
      <point x="3365.0" y="620.0"/>
      <point x="3381.0" y="614.0"/>
      <point x="3391.0" y="604.0" type="curve" smooth="yes"/>
      <point x="3401.0" y="594.0"/>
      <point x="3406.0" y="576.0"/>
      <point x="3406.0" y="551.0" type="curve" smooth="yes"/>
      <point x="3406.0" y="166.0" type="line" smooth="yes"/>
      <point x="3406.0" y="133.0"/>
      <point x="3394.0" y="110.0"/>
      <point x="3370.0" y="97.0" type="curve" smooth="yes"/>
      <point x="3315.0" y="65.0"/>
      <point x="3251.0" y="41.0"/>
      <point x="3179.0" y="25.0" type="curve" smooth="yes"/>
      <point x="3108.0" y="8.0"/>
      <point x="3033.0" y="0.0"/>
      <point x="2954.0" y="0.0" type="curve" smooth="yes"/>
      <point x="2850.0" y="0.0"/>
      <point x="2757.0" y="26.0"/>
      <point x="2678.0" y="77.0" type="curve" smooth="yes"/>
      <point x="2598.0" y="128.0"/>
      <point x="2536.0" y="201.0"/>
      <point x="2492.0" y="295.0" type="curve" smooth="yes"/>
      <point x="2449.0" y="389.0"/>
      <point x="2427.0" y="497.0"/>
      <point x="2427.0" y="620.0" type="curve" smooth="yes"/>
      <point x="2427.0" y="742.0"/>
      <point x="2450.0" y="849.0"/>
      <point x="2496.0" y="943.0" type="curve" smooth="yes"/>
      <point x="2542.0" y="1037.0"/>
      <point x="2606.0" y="1109.0"/>
      <point x="2687.0" y="1161.0" type="curve" smooth="yes"/>
      <point x="2769.0" y="1212.0"/>
      <point x="2861.0" y="1238.0"/>
      <point x="2964.0" y="1238.0" type="curve" smooth="yes"/>
      <point x="3033.0" y="1238.0"/>
      <point x="3098.0" y="1231.0"/>
      <point x="3158.0" y="1217.0" type="curve" smooth="yes"/>
      <point x="3218.0" y="1202.0"/>
      <point x="3278.0" y="1179.0"/>
      <point x="3337.0" y="1147.0" type="curve" smooth="yes"/>
      <point x="3363.0" y="1133.0"/>
      <point x="3376.0" y="1113.0"/>
      <point x="3376.0" y="1089.0" type="curve" smooth="yes"/>
      <point x="3376.0" y="1077.0"/>
      <point x="3372.0" y="1061.0"/>
      <point x="3365.0" y="1043.0" type="curve"/>
      <point x="3351.0" y="1013.0"/>
      <point x="3333.0" y="998.0"/>
      <point x="3311.0" y="998.0" type="curve" smooth="yes"/>
      <point x="3300.0" y="998.0"/>
      <point x="3289.0" y="1001.0"/>
      <point x="3277.0" y="1008.0" type="curve" smooth="yes"/>
      <point x="3182.0" y="1062.0"/>
      <point x="3078.0" y="1089.0"/>
      <point x="2964.0" y="1089.0" type="curve" smooth="yes"/>
      <point x="2891.0" y="1089.0"/>
      <point x="2826.0" y="1070.0"/>
      <point x="2768.0" y="1032.0" type="curve" smooth="yes"/>
      <point x="2710.0" y="994.0"/>
      <point x="2665.0" y="939.0"/>
      <point x="2632.0" y="868.0" type="curve" smooth="yes"/>
      <point x="2599.0" y="797.0"/>
      <point x="2582.0" y="714.0"/>
      <point x="2582.0" y="620.0" type="curve" smooth="yes"/>
      <point x="2582.0" y="524.0"/>
      <point x="2597.0" y="441.0"/>
      <point x="2628.0" y="370.0" type="curve" smooth="yes"/>
      <point x="2659.0" y="299.0"/>
      <point x="2703.0" y="244.0"/>
      <point x="2759.0" y="206.0" type="curve" smooth="yes"/>
      <point x="2815.0" y="168.0"/>
      <point x="2880.0" y="149.0"/>
      <point x="2954.0" y="149.0" type="curve" smooth="yes"/>
      <point x="3071.0" y="149.0"/>
      <point x="3172.0" y="168.0"/>
      <point x="3255.0" y="206.0" type="curve"/>
      <point x="3255.0" y="475.0" type="line"/>
      <point x="2986.0" y="475.0" type="line" smooth="yes"/>
      <point x="2964.0" y="475.0"/>
      <point x="2947.0" y="480.0"/>
      <point x="2938.0" y="491.0" type="curve"/>
      <point x="2928.0" y="502.0"/>
      <point x="2923.0" y="521.0"/>
      <point x="2923.0" y="547.0" type="curve" smooth="yes"/>
      <point x="2923.0" y="573.0"/>
      <point x="2928.0" y="592.0"/>
      <point x="2938.0" y="603.0" type="curve"/>
      <point x="2947.0" y="614.0"/>
      <point x="2964.0" y="620.0"/>
    </contour>
    <contour>
      <point x="4576.0" y="1226.0" type="curve" smooth="yes"/>
      <point x="4578.0" y="1226.0" type="line" smooth="yes"/>
      <point x="4605.0" y="1226.0"/>
      <point x="4624.0" y="1221.0"/>
      <point x="4635.0" y="1211.0" type="curve" smooth="yes"/>
      <point x="4646.0" y="1201.0"/>
      <point x="4652.0" y="1184.0"/>
      <point x="4652.0" y="1161.0" type="curve" smooth="yes"/>
      <point x="4652.0" y="77.0" type="line" smooth="yes"/>
      <point x="4652.0" y="54.0"/>
      <point x="4646.0" y="37.0"/>
      <point x="4635.0" y="27.0" type="curve" smooth="yes"/>
      <point x="4624.0" y="17.0"/>
      <point x="4605.0" y="12.0"/>
      <point x="4578.0" y="12.0" type="curve" smooth="yes"/>
      <point x="4576.0" y="12.0" type="line" smooth="yes"/>
      <point x="4548.0" y="12.0"/>
      <point x="4529.0" y="17.0"/>
      <point x="4518.0" y="27.0" type="curve" smooth="yes"/>
      <point x="4507.0" y="37.0"/>
      <point x="4501.0" y="54.0"/>
      <point x="4501.0" y="77.0" type="curve" smooth="yes"/>
      <point x="4501.0" y="565.0" type="line"/>
      <point x="3920.0" y="565.0" type="line"/>
      <point x="3920.0" y="77.0" type="line" smooth="yes"/>
      <point x="3920.0" y="54.0"/>
      <point x="3914.0" y="37.0"/>
      <point x="3903.0" y="27.0" type="curve" smooth="yes"/>
      <point x="3892.0" y="17.0"/>
      <point x="3873.0" y="12.0"/>
      <point x="3845.0" y="12.0" type="curve" smooth="yes"/>
      <point x="3843.0" y="12.0" type="line" smooth="yes"/>
      <point x="3816.0" y="12.0"/>
      <point x="3797.0" y="17.0"/>
      <point x="3785.0" y="27.0" type="curve" smooth="yes"/>
      <point x="3774.0" y="37.0"/>
      <point x="3769.0" y="54.0"/>
      <point x="3769.0" y="77.0" type="curve" smooth="yes"/>
      <point x="3769.0" y="1161.0" type="line" smooth="yes"/>
      <point x="3769.0" y="1184.0"/>
      <point x="3774.0" y="1201.0"/>
      <point x="3785.0" y="1211.0" type="curve" smooth="yes"/>
      <point x="3797.0" y="1221.0"/>
      <point x="3816.0" y="1226.0"/>
      <point x="3843.0" y="1226.0" type="curve" smooth="yes"/>
      <point x="3845.0" y="1226.0" type="line" smooth="yes"/>
      <point x="3873.0" y="1226.0"/>
      <point x="3892.0" y="1221.0"/>
      <point x="3903.0" y="1211.0" type="curve" smooth="yes"/>
      <point x="3914.0" y="1201.0"/>
      <point x="3920.0" y="1184.0"/>
      <point x="3920.0" y="1161.0" type="curve" smooth="yes"/>
      <point x="3920.0" y="710.0" type="line"/>
      <point x="4501.0" y="710.0" type="line"/>
      <point x="4501.0" y="1161.0" type="line" smooth="yes"/>
      <point x="4501.0" y="1184.0"/>
      <point x="4507.0" y="1201.0"/>
      <point x="4518.0" y="1211.0" type="curve" smooth="yes"/>
      <point x="4529.0" y="1221.0"/>
      <point x="4548.0" y="1226.0"/>
    </contour>
    <contour>
      <point x="5055.0" y="1216.0" type="curve" smooth="yes"/>
      <point x="5918.0" y="1216.0" type="line" smooth="yes"/>
      <point x="5941.0" y="1216.0"/>
      <point x="5957.0" y="1211.0"/>
      <point x="5967.0" y="1199.0" type="curve" smooth="yes"/>
      <point x="5977.0" y="1188.0"/>
      <point x="5982.0" y="1170.0"/>
      <point x="5982.0" y="1144.0" type="curve" smooth="yes"/>
      <point x="5982.0" y="1118.0"/>
      <point x="5977.0" y="1099.0"/>
      <point x="5967.0" y="1088.0" type="curve" smooth="yes"/>
      <point x="5957.0" y="1077.0"/>
      <point x="5941.0" y="1071.0"/>
      <point x="5918.0" y="1071.0" type="curve" smooth="yes"/>
      <point x="5562.0" y="1071.0" type="line"/>
      <point x="5562.0" y="77.0" type="line" smooth="yes"/>
      <point x="5562.0" y="54.0"/>
      <point x="5557.0" y="37.0"/>
      <point x="5546.0" y="27.0" type="curve" smooth="yes"/>
      <point x="5535.0" y="17.0"/>
      <point x="5515.0" y="12.0"/>
      <point x="5488.0" y="12.0" type="curve" smooth="yes"/>
      <point x="5486.0" y="12.0" type="line" smooth="yes"/>
      <point x="5458.0" y="12.0"/>
      <point x="5439.0" y="17.0"/>
      <point x="5428.0" y="27.0" type="curve" smooth="yes"/>
      <point x="5417.0" y="37.0"/>
      <point x="5411.0" y="54.0"/>
      <point x="5411.0" y="77.0" type="curve" smooth="yes"/>
      <point x="5411.0" y="1071.0" type="line"/>
      <point x="5055.0" y="1071.0" type="line" smooth="yes"/>
      <point x="5032.0" y="1071.0"/>
      <point x="5016.0" y="1077.0"/>
      <point x="5007.0" y="1088.0" type="curve"/>
      <point x="4997.0" y="1099.0"/>
      <point x="4992.0" y="1118.0"/>
      <point x="4992.0" y="1144.0" type="curve" smooth="yes"/>
      <point x="4992.0" y="1170.0"/>
      <point x="4997.0" y="1188.0"/>
      <point x="5007.0" y="1199.0" type="curve"/>
      <point x="5016.0" y="1211.0"/>
      <point x="5032.0" y="1216.0"/>
    </contour>
  </outline>
</glyph>
<glyph name="w1" format="2">
  <advance width="1280"/>
  <outline>
    <contour>
      <point x="792.66" y="1180.56" type="curve" smooth="yes"/>
      <point x="565.0169999999999" y="1134.891"/>
      <point x="531.352" y="1132.81"/>
      <point x="423.93999999999994" y="1153.567" type="curve" smooth="yes"/>
      <point x="366.22799999999995" y="1166.027"/>
      <point x="298.89599999999996" y="1174.335"/>
      <point x="273.246" y="1172.253" type="curve"/>
      <point x="205.914" y="1170.181"/>
      <point x="98.50399999999999" y="1089.223"/>
      <point x="74.457" y="1020.715" type="curve" smooth="yes"/>
      <point x="42.39399999999999" y="935.6030000000001"/>
      <point x="19.949999999999996" y="725.9350000000001"/>
      <point x="19.949999999999996" y="528.729" type="curve" smooth="yes"/>
      <point x="19.949999999999996" y="431.15700000000004"/>
      <point x="15.139999999999997" y="348.12700000000007"/>
      <point x="7.1249999999999964" y="341.8910000000001" type="curve"/>
      <point x="0.7129999999999965" y="335.66600000000005"/>
      <point x="-2.4940000000000033" y="306.6010000000001"/>
      <point x="2.314999999999997" y="275.46500000000003" type="curve" smooth="yes"/>
      <point x="7.1249999999999964" y="244.32899999999995"/>
      <point x="15.140999999999998" y="221.49"/>
      <point x="21.552999999999997" y="225.64300000000003" type="curve"/>
      <point x="27.965999999999998" y="231.86799999999994"/>
      <point x="31.172999999999995" y="188.28199999999993"/>
      <point x="31.172999999999995" y="130.15300000000002" type="curve" smooth="yes"/>
      <point x="31.172999999999995" y="74.10500000000002"/>
      <point x="35.980999999999995" y="22.201000000000022"/>
      <point x="42.39399999999999" y="18.057999999999993" type="curve"/>
      <point x="48.80699999999999" y="11.823000000000093"/>
      <point x="50.40999999999999" y="-4.781999999999925"/>
      <point x="45.599999999999994" y="-19.314000000000078" type="curve" smooth="yes"/>
      <point x="40.78999999999999" y="-35.919000000000096"/>
      <point x="43.99699999999999" y="-54.60200000000009"/>
      <point x="53.61599999999999" y="-62.90499999999997" type="curve"/>
      <point x="63.23499999999999" y="-69.13400000000001"/>
      <point x="71.25099999999999" y="-96.11999999999989"/>
      <point x="71.25099999999999" y="-123.10699999999997" type="curve" smooth="yes"/>
      <point x="71.25099999999999" y="-214.4469999999999"/>
      <point x="116.13799999999999" y="-293.3309999999999"/>
      <point x="196.295" y="-341.077" type="curve" smooth="yes"/>
      <point x="279.658" y="-390.89699999999993"/>
      <point x="282.865" y="-392.97399999999993"/>
      <point x="478.447" y="-378.443" type="curve" smooth="yes"/>
      <point x="548.986" y="-374.28999999999996"/>
      <point x="664.4110000000001" y="-380.519"/>
      <point x="734.948" y="-395.04999999999995" type="curve" smooth="yes"/>
      <point x="893.66" y="-424.11199999999985"/>
      <point x="1021.91" y="-417.884"/>
      <point x="1066.798" y="-376.366" type="curve" smooth="yes"/>
      <point x="1130.926" y="-318.241"/>
      <point x="1177.415" y="-204.06600000000003"/>
      <point x="1182.224" y="-96.11999999999989" type="curve" smooth="yes"/>
      <point x="1183.825" y="-37.993999999999915"/>
      <point x="1191.841" y="9.751000000000204"/>
      <point x="1198.2559999999999" y="9.751000000000204" type="curve" smooth="yes"/>
      <point x="1204.6709999999998" y="9.751000000000204"/>
      <point x="1209.4789999999998" y="22.20100000000025"/>
      <point x="1207.8729999999998" y="36.73400000000015" type="curve" smooth="yes"/>
      <point x="1206.2719999999997" y="49.19400000000019"/>
      <point x="1212.686" y="86.55600000000004"/>
      <point x="1222.3029999999999" y="115.62000000000012" type="curve" smooth="yes"/>
      <point x="1235.128" y="157.13500000000022"/>
      <point x="1233.5269999999998" y="190.35400000000004"/>
      <point x="1219.0959999999998" y="250.5540000000001" type="curve" smooth="yes"/>
      <point x="1203.0639999999999" y="310.7550000000001"/>
      <point x="1201.4629999999997" y="375.1100000000001"/>
      <point x="1212.6859999999997" y="507.9720000000001" type="curve" smooth="yes"/>
      <point x="1230.3199999999997" y="713.4860000000001"/>
      <point x="1230.3199999999997" y="705.1780000000001"/>
      <point x="1222.3039999999996" y="881.6270000000001" type="curve" smooth="yes"/>
      <point x="1207.873" y="1197.164"/>
      <point x="1132.527" y="1251.14"/>
    </contour>
  </outline>
</glyph>
<glyph name="w10" format="2">
  <advance width="12800"/>
  <outline>
    <contour>
      <point x="12080.561" y="1165.013" type="curve" smooth="yes"/>
      <point x="11970.061" y="1109.513"/>
      <point x="4984.695" y="1174.811"/>
      <point x="3914.5909999999994" y="1181.215" type="curve" smooth="yes"/>
      <point x="2568.2379999999994" y="1191.888"/>
      <point x="1838.3569999999995" y="1183.349"/>
      <point x="1181.1739999999995" y="1147.061" type="curve" smooth="yes"/>
      <point x="1070.6739999999995" y="1140.657"/>
      <point x="965.9899999999996" y="1134.253"/>
      <point x="948.5429999999996" y="1134.253" type="curve" smooth="yes"/>
      <point x="934.0029999999996" y="1134.253"/>
      <point x="785.7009999999996" y="1138.5230000000001"/>
      <point x="622.8589999999995" y="1147.061" type="curve" smooth="yes"/>
      <point x="334.9779999999995" y="1159.869"/>
      <point x="326.25399999999945" y="1157.734"/>
      <point x="239.01699999999948" y="1104.369" type="curve" smooth="yes"/>
      <point x="122.702" y="1033.927"/>
      <point x="38.373" y="833.274"/>
      <point x="15.11" y="574.988" type="curve" smooth="yes"/>
      <point x="6.386" y="468.25800000000004"/>
      <point x="-2.338" y="372.20000000000005"/>
      <point x="0.57" y="359.39300000000003" type="curve"/>
      <point x="0.57" y="348.72"/>
      <point x="6.386" y="261.201"/>
      <point x="15.11" y="167.279" type="curve" smooth="yes"/>
      <point x="20.926" y="73.356"/>
      <point x="32.557" y="-18.43100000000004"/>
      <point x="38.373000000000005" y="-37.64300000000003" type="curve" smooth="yes"/>
      <point x="61.63600000000001" y="-110.22000000000003"/>
      <point x="183.767" y="-195.60300000000007"/>
      <point x="288.452" y="-212.68100000000004" type="curve" smooth="yes"/>
      <point x="346.609" y="-221.21900000000005"/>
      <point x="730.451" y="-227.62300000000005"/>
      <point x="1137.556" y="-223.35400000000004" type="curve" smooth="yes"/>
      <point x="2835.764" y="-212.68100000000004"/>
      <point x="12089.285" y="-329.2080000000001"/>
      <point x="12211.416000000001" y="-356.9580000000001" type="curve" smooth="yes"/>
      <point x="12227.650000000001" y="-360.788"/>
      <point x="12355.581000000002" y="-356.211"/>
      <point x="12373.611" y="-356.9580000000001" type="curve" smooth="yes"/>
      <point x="12536.437" y="-363.7080000000001"/>
      <point x="12645.571" y="-259.01300000000015"/>
      <point x="12627.245" y="-164.84400000000005" type="curve" smooth="yes"/>
      <point x="12618.521" y="-120.01700000000005"/>
      <point x="12694.126" y="78.50099999999998"/>
      <point x="12729.021" y="104.11599999999999" type="curve" smooth="yes"/>
      <point x="12790.087000000001" y="146.808"/>
      <point x="12778.455" y="232.192"/>
      <point x="12711.574" y="247.13400000000001" type="curve" smooth="yes"/>
      <point x="12647.6" y="262.076"/>
      <point x="12641.784" y="287.692"/>
      <point x="12685.403" y="428.57500000000005" type="curve" smooth="yes"/>
      <point x="12743.56" y="629.2280000000001"/>
      <point x="12761.008" y="812.8040000000001"/>
      <point x="12734.837" y="968.63" type="curve" smooth="yes"/>
      <point x="12720.296999999999" y="1060.4180000000001"/>
      <point x="12621.429" y="1145.802"/>
      <point x="12510.929" y="1165.013" type="curve" smooth="yes"/>
      <point x="12345.179" y="1190.628"/>
      <point x="12132.903" y="1190.628"/>
    </contour>
  </outline>
</glyph>
<glyph name="w11" format="2">
  <advance width="14080"/>
  <outline>
    <contour>
      <point x="770.158" y="1144.412" type="line"/>
      <point x="757.726" y="1134.315"/>
      <point x="699.708" y="1124.219"/>
      <point x="641.692" y="1124.219" type="curve" smooth="yes"/>
      <point x="384.759" y="1124.219"/>
      <point x="169.267" y="1011.139"/>
      <point x="156.834" y="869.789" type="curve" smooth="yes"/>
      <point x="152.69" y="833.441"/>
      <point x="123.682" y="797.094"/>
      <point x="94.674" y="791.0360000000001" type="curve"/>
      <point x="65.664" y="786.9970000000001"/>
      <point x="53.232000000000006" y="762.766"/>
      <point x="61.52100000000001" y="736.515" type="curve"/>
      <point x="73.953" y="710.265"/>
      <point x="94.673" y="635.55"/>
      <point x="107.10500000000002" y="568.914" type="curve" smooth="yes"/>
      <point x="119.53800000000001" y="502.27700000000004"/>
      <point x="140.258" y="421.506"/>
      <point x="148.54600000000002" y="387.178" type="curve" smooth="yes"/>
      <point x="156.83400000000003" y="354.869"/>
      <point x="177.555" y="225.63400000000001"/>
      <point x="189.98700000000002" y="100.4380000000001" type="curve" smooth="yes"/>
      <point x="202.419" y="-24.756999999999834"/>
      <point x="227.28400000000002" y="-141.87599999999998"/>
      <point x="243.86" y="-164.08899999999994" type="curve" smooth="yes"/>
      <point x="285.3" y="-214.5709999999999"/>
      <point x="579.53" y="-337.74699999999984"/>
      <point x="732.861" y="-368.03700000000003" type="curve" smooth="yes"/>
      <point x="799.167" y="-380.153"/>
      <point x="1006.371" y="-390.249"/>
      <point x="1188.71" y="-390.249" type="curve" smooth="yes"/>
      <point x="1366.905" y="-388.22900000000004"/>
      <point x="1797.8899999999999" y="-394.288"/>
      <point x="2137.704" y="-402.365" type="curve" smooth="yes"/>
      <point x="2481.6620000000003" y="-410.442"/>
      <point x="4760.914000000001" y="-414.48"/>
      <point x="7210.064" y="-414.48" type="curve" smooth="yes"/>
      <point x="10255.962" y="-412.461"/>
      <point x="12849.264" y="-424.577"/>
      <point x="12907.280999999999" y="-438.712" type="curve" smooth="yes"/>
      <point x="12952.865" y="-450.828"/>
      <point x="13126.917" y="-460.924"/>
      <point x="13292.679999999998" y="-462.943" type="curve" smooth="yes"/>
      <point x="13562.044999999998" y="-466.98199999999997"/>
      <point x="13607.63" y="-460.924"/>
      <point x="13702.943" y="-418.519" type="curve" smooth="yes"/>
      <point x="13835.554" y="-357.94000000000005"/>
      <point x="13947.444" y="-196.39699999999993"/>
      <point x="13918.436" y="-109.56799999999998" type="curve" smooth="yes"/>
      <point x="13906.002999999999" y="-71.20100000000002"/>
      <point x="13918.436" y="-30.815000000000055"/>
      <point x="13951.588" y="-12.642000000000053" type="curve" smooth="yes"/>
      <point x="14042.758" y="37.840999999999894"/>
      <point x="14063.478" y="88.32299999999987"/>
      <point x="14001.318" y="100.43799999999987" type="curve" smooth="yes"/>
      <point x="13914.292" y="116.59299999999985"/>
      <point x="13889.427" y="167.07499999999982"/>
      <point x="13939.155999999999" y="215.53799999999978" type="curve"/>
      <point x="13968.163999999999" y="239.76999999999975"/>
      <point x="13984.740999999998" y="336.6949999999998"/>
      <point x="13980.596" y="443.71799999999985" type="curve" smooth="yes"/>
      <point x="13976.453" y="546.7019999999999"/>
      <point x="14005.461" y="694.1099999999999"/>
      <point x="14038.614" y="776.9009999999998" type="curve" smooth="yes"/>
      <point x="14088.342999999999" y="892.0009999999999"/>
      <point x="14092.487" y="936.4249999999998"/>
      <point x="14055.189999999999" y="980.8489999999998" type="curve" smooth="yes"/>
      <point x="14030.326" y="1011.1389999999999"/>
      <point x="13993.028999999999" y="1037.389"/>
      <point x="13980.596999999998" y="1037.389" type="curve" smooth="yes"/>
      <point x="13964.019999999999" y="1037.389"/>
      <point x="13910.146999999997" y="1055.5629999999999"/>
      <point x="13860.418999999998" y="1077.7749999999999" type="curve" smooth="yes"/>
      <point x="13760.960999999998" y="1124.2189999999998"/>
      <point x="13309.255999999998" y="1148.4499999999998"/>
      <point x="13176.645999999999" y="1114.1219999999998" type="curve" smooth="yes"/>
      <point x="13052.322999999999" y="1083.8319999999999"/>
      <point x="12874.127999999999" y="1077.7749999999999"/>
      <point x="11904.412999999999" y="1079.7939999999999" type="curve" smooth="yes"/>
      <point x="10764.791999999998" y="1081.8139999999999"/>
      <point x="10065.333999999999" y="1089.8909999999998"/>
      <point x="7234.927999999999" y="1075.7559999999999" type="curve" smooth="yes"/>
      <point x="3198.588" y="1057.5819999999999"/>
      <point x="2560.4" y="1061.62"/>
      <point x="1686.0" y="1104.026" type="curve" smooth="yes"/>
      <point x="1458.076" y="1116.141"/>
      <point x="1267.4479999999999" y="1120.18"/>
      <point x="1255.016" y="1116.141" type="curve"/>
      <point x="1246.728" y="1110.084"/>
      <point x="1163.846" y="1120.18"/>
      <point x="1072.6760000000002" y="1136.334" type="curve" smooth="yes"/>
      <point x="873.7610000000002" y="1170.662"/>
      <point x="803.3120000000001" y="1172.682"/>
      <point x="770.1590000000001" y="1144.412" type="curve"/>
    </contour>
  </outline>
</glyph>
<glyph name="w12" format="2">
  <advance width="15360"/>
  <outline>
    <contour>
      <point x="6138.987" y="1280.0" type="curve" smooth="yes"/>
      <point x="6222.482" y="1280.0"/>
      <point x="6295.086" y="1273.191"/>
      <point x="6295.086" y="1264.68" type="curve" smooth="yes"/>
      <point x="6295.086" y="1259.35"/>
      <point x="6314.857" y="1253.558"/>
      <point x="6346.662" y="1248.268" type="curve"/>
      <point x="6346.622" y="1248.269" type="line"/>
      <point x="6725.832" y="1247.936"/>
      <point x="7169.1720000000005" y="1247.124"/>
      <point x="7699.652" y="1245.956" type="curve" smooth="yes"/>
      <point x="8349.458" y="1244.254"/>
      <point x="8919.399" y="1249.361"/>
      <point x="8970.222" y="1256.169" type="curve" smooth="yes"/>
      <point x="9115.43" y="1278.298"/>
      <point x="9580.095" y="1274.893"/>
      <point x="9696.261999999999" y="1252.765" type="curve" smooth="yes"/>
      <point x="9709.239" y="1249.901"/>
      <point x="9722.696999999998" y="1246.06"/>
      <point x="9736.266" y="1241.413" type="curve"/>
      <point x="9736.252999999999" y="1241.414" type="line"/>
      <point x="10417.256" y="1249.786"/>
      <point x="11218.395999999999" y="1249.8220000000001"/>
      <point x="12974.652999999998" y="1245.956" type="curve" smooth="yes"/>
      <point x="13624.457999999999" y="1244.254"/>
      <point x="14194.398999999998" y="1249.361"/>
      <point x="14245.221999999998" y="1256.169" type="curve" smooth="yes"/>
      <point x="14390.429999999998" y="1278.298"/>
      <point x="14855.094999999998" y="1274.893"/>
      <point x="14971.261999999999" y="1252.765" type="curve" smooth="yes"/>
      <point x="15032.974999999999" y="1239.147"/>
      <point x="15105.578999999998" y="1203.401"/>
      <point x="15149.141999999998" y="1164.251" type="curve" smooth="yes"/>
      <point x="15210.854999999998" y="1106.377"/>
      <point x="15218.114999999998" y="1089.355"/>
      <point x="15178.182999999997" y="1039.991" type="curve" smooth="yes"/>
      <point x="15152.771999999997" y="1007.65"/>
      <point x="15123.729999999998" y="978.713"/>
      <point x="15112.838999999998" y="973.606" type="curve"/>
      <point x="15065.646999999999" y="954.8820000000001"/>
      <point x="15043.865999999998" y="817.005"/>
      <point x="15080.167999999998" y="794.876" type="curve"/>
      <point x="15109.208999999997" y="779.556"/>
      <point x="15109.208999999997" y="769.343"/>
      <point x="15080.167999999998" y="760.832" type="curve"/>
      <point x="15058.386999999997" y="755.726"/>
      <point x="15051.125999999998" y="742.108"/>
      <point x="15065.646999999997" y="733.597" type="curve"/>
      <point x="15076.536999999997" y="725.087"/>
      <point x="15069.276999999996" y="708.064"/>
      <point x="15051.126999999997" y="696.149" type="curve"/>
      <point x="15018.453999999996" y="677.425"/>
      <point x="15014.823999999997" y="663.808"/>
      <point x="15003.932999999997" y="587.2090000000001" type="curve"/>
      <point x="15000.302999999998" y="570.187"/>
      <point x="14978.522999999997" y="525.9300000000001"/>
      <point x="14953.110999999997" y="488.4820000000001" type="curve" smooth="yes"/>
      <point x="14927.698999999997" y="451.0340000000001"/>
      <point x="14916.808999999997" y="394.8620000000001"/>
      <point x="14924.068999999998" y="364.2220000000001" type="curve"/>
      <point x="14934.958999999997" y="330.1780000000001"/>
      <point x="14920.438999999998" y="294.43200000000013"/>
      <point x="14884.136999999997" y="267.1970000000001" type="curve" smooth="yes"/>
      <point x="14851.464999999997" y="243.3670000000002"/>
      <point x="14836.943999999998" y="224.64300000000003"/>
      <point x="14851.464999999997" y="224.64300000000003" type="curve" smooth="yes"/>
      <point x="14869.615999999996" y="224.64300000000003"/>
      <point x="14855.094999999996" y="216.13200000000006"/>
      <point x="14822.423999999997" y="207.6210000000001" type="curve" smooth="yes"/>
      <point x="14789.751999999997" y="199.11000000000013"/>
      <point x="14749.818999999998" y="158.25700000000006"/>
      <point x="14738.928999999996" y="117.4050000000002" type="curve"/>
      <point x="14709.886999999997" y="32.2950000000003"/>
      <point x="14495.705999999996" y="-88.55999999999972"/>
      <point x="14394.059999999996" y="-74.94299999999976" type="curve" smooth="yes"/>
      <point x="14161.726999999995" y="-42.60099999999966"/>
      <point x="13740.623999999996" y="-30.685999999999694"/>
      <point x="12666.084999999995" y="-28.98299999999972" type="curve" smooth="yes"/>
      <point x="10336.892999999996" y="-22.6429999999998"/>
      <point x="9817.829999999994" y="-22.206999999999653"/>
      <point x="9282.540999999996" y="-34.547999999999774" type="curve"/>
      <point x="9222.850999999995" y="-63.072999999999865"/>
      <point x="9161.257999999996" y="-80.59599999999978"/>
      <point x="9119.059999999996" y="-74.94299999999976" type="curve" smooth="yes"/>
      <point x="9032.642999999996" y="-62.91299999999978"/>
      <point x="8920.107999999997" y="-53.70899999999983"/>
      <point x="8757.545999999997" y="-46.80599999999981" type="curve"/>
      <point x="8757.531999999997" y="-46.807999999999765" type="line"/>
      <point x="7352.965999999998" y="-75.84799999999973"/>
      <point x="5705.043999999998" y="-78.85599999999977"/>
      <point x="5685.211999999998" y="-49.409999999999854" type="curve" smooth="yes"/>
      <point x="5677.9519999999975" y="-39.19699999999989"/>
      <point x="5656.170999999998" y="-30.685999999999922"/>
      <point x="5638.019999999998" y="-30.685999999999922" type="curve" smooth="yes"/>
      <point x="5630.075999999997" y="-30.685999999999922"/>
      <point x="5619.785999999997" y="-28.60699999999997"/>
      <point x="5607.813999999998" y="-24.880999999999858" type="curve"/>
      <point x="5607.745999999997" y="-24.87799999999993" type="line" smooth="yes"/>
      <point x="4618.378999999997" y="-23.62799999999993"/>
      <point x="4294.8759999999975" y="-26.894000000000005"/>
      <point x="3887.9429999999975" y="-37.493999999999915" type="curve" smooth="yes"/>
      <point x="2417.7129999999975" y="-74.94299999999998"/>
      <point x="431.99299999999766" y="-81.75099999999998"/>
      <point x="410.21299999999746" y="-49.409999999999854" type="curve" smooth="yes"/>
      <point x="402.9529999999975" y="-39.19699999999989"/>
      <point x="381.17099999999743" y="-30.685999999999922"/>
      <point x="363.0199999999975" y="-30.685999999999922" type="curve" smooth="yes"/>
      <point x="290.4159999999975" y="-30.685999999999922"/>
      <point x="21.780999999997505" y="142.9380000000001"/>
      <point x="65.3439999999975" y="161.66200000000003" type="curve"/>
      <point x="72.6039999999975" y="166.76800000000003"/>
      <point x="61.71399999999749" y="187.19499999999994"/>
      <point x="39.931999999997494" y="207.6210000000001" type="curve" smooth="yes"/>
      <point x="18.151" y="228.04700000000003"/>
      <point x="0.0" y="314.85900000000004"/>
      <point x="0.0" y="399.96799999999996" type="curve" smooth="yes"/>
      <point x="0.0" y="881.688"/>
      <point x="0.0" y="878.2829999999999"/>
      <point x="83.495" y="990.6279999999999" type="curve" smooth="yes"/>
      <point x="130.687" y="1051.907"/>
      <point x="199.661" y="1121.696"/>
      <point x="239.59300000000002" y="1143.8249999999998" type="curve" smooth="yes"/>
      <point x="326.718" y="1194.8909999999998"/>
      <point x="490.077" y="1237.445"/>
      <point x="540.9000000000001" y="1222.125" type="curve" smooth="yes"/>
      <point x="559.0500000000001" y="1217.019"/>
      <point x="602.613" y="1227.232"/>
      <point x="638.9150000000001" y="1245.956" type="curve" smooth="yes"/>
      <point x="686.108" y="1269.786"/>
      <point x="751.451" y="1280.0"/>
      <point x="863.987" y="1280.0" type="curve" smooth="yes"/>
      <point x="947.482" y="1280.0"/>
      <point x="1020.086" y="1273.191"/>
      <point x="1020.086" y="1264.68" type="curve" smooth="yes"/>
      <point x="1020.086" y="1254.467"/>
      <point x="1092.69" y="1242.552"/>
      <point x="1183.445" y="1235.743" type="curve" smooth="yes"/>
      <point x="1274.1999999999998" y="1230.637"/>
      <point x="1346.8039999999999" y="1218.721"/>
      <point x="1346.8039999999999" y="1210.21" type="curve" smooth="yes"/>
      <point x="1346.8039999999999" y="1193.188"/>
      <point x="2424.973" y="1201.7"/>
      <point x="3815.339" y="1230.637" type="curve" smooth="yes"/>
      <point x="4434.397" y="1243.357"/>
      <point x="4934.484" y="1248.222"/>
      <point x="5918.974" y="1248.432" type="curve" smooth="yes"/>
      <point x="5918.99" y="1248.432" type="line"/>
      <point x="5965.787" y="1270.497"/>
      <point x="6030.43" y="1280.0"/>
    </contour>
  </outline>
</glyph>
<glyph name="w13" format="2">
  <advance width="16640"/>
  <outline>
    <contour>
      <point x="920.674" y="1259.517" type="line"/>
      <point x="904.58" y="1248.96"/>
      <point x="829.47" y="1238.402"/>
      <point x="754.36" y="1238.402" type="curve" smooth="yes"/>
      <point x="421.732" y="1238.402"/>
      <point x="142.75300000000004" y="1120.159"/>
      <point x="126.65800000000002" y="972.354" type="curve" smooth="yes"/>
      <point x="121.29300000000002" y="934.348"/>
      <point x="83.73800000000001" y="896.341"/>
      <point x="46.18300000000002" y="890.006" type="curve"/>
      <point x="8.628000000000021" y="885.7829999999999"/>
      <point x="-7.466999999999977" y="860.4459999999999"/>
      <point x="3.2630000000000194" y="832.996" type="curve"/>
      <point x="19.35800000000002" y="805.546"/>
      <point x="46.18300000000002" y="727.4209999999999"/>
      <point x="62.27800000000002" y="657.742" type="curve" smooth="yes"/>
      <point x="78.37300000000002" y="588.063"/>
      <point x="105.19800000000002" y="503.60299999999995"/>
      <point x="115.92800000000003" y="467.70799999999997" type="curve" smooth="yes"/>
      <point x="126.65800000000003" y="433.924"/>
      <point x="153.48300000000003" y="298.788"/>
      <point x="169.57800000000003" y="167.87599999999998" type="curve" smooth="yes"/>
      <point x="185.67300000000003" y="36.96399999999994"/>
      <point x="217.86200000000002" y="-85.50299999999993"/>
      <point x="239.32200000000003" y="-108.72900000000004" type="curve" smooth="yes"/>
      <point x="292.97200000000004" y="-161.51600000000008"/>
      <point x="673.885" y="-290.317"/>
      <point x="872.39" y="-321.98900000000003" type="curve" smooth="yes"/>
      <point x="958.23" y="-334.6590000000001"/>
      <point x="1226.478" y="-345.2160000000001"/>
      <point x="1462.537" y="-345.2160000000001" type="curve" smooth="yes"/>
      <point x="1693.231" y="-343.105"/>
      <point x="2251.1890000000003" y="-349.4390000000001"/>
      <point x="2691.117" y="-357.8850000000002" type="curve" smooth="yes"/>
      <point x="3136.4100000000003" y="-366.33100000000013"/>
      <point x="6087.159" y="-370.5540000000003"/>
      <point x="9257.861" y="-370.5540000000003" type="curve" smooth="yes"/>
      <point x="13201.12" y="-368.44200000000023"/>
      <point x="15046.672" y="-374.77700000000027"/>
      <point x="15121.781" y="-389.55700000000024" type="curve" smooth="yes"/>
      <point x="15180.797" y="-402.2270000000003"/>
      <point x="15406.126" y="-412.78400000000033"/>
      <point x="15620.725" y="-414.8950000000002" type="curve" smooth="yes"/>
      <point x="15969.449" y="-419.11800000000017"/>
      <point x="16028.463" y="-412.7840000000001"/>
      <point x="16151.858" y="-368.44200000000023" type="curve" smooth="yes"/>
      <point x="16323.537" y="-305.0980000000002"/>
      <point x="16468.391" y="-136.17800000000034"/>
      <point x="16430.837" y="-45.38400000000024" type="curve" smooth="yes"/>
      <point x="16414.742" y="-5.266000000000304"/>
      <point x="16430.837" y="36.963999999999714"/>
      <point x="16473.756999999998" y="55.96699999999964" type="curve" smooth="yes"/>
      <point x="16591.785999999996" y="108.75499999999965"/>
      <point x="16618.610999999997" y="161.5419999999997"/>
      <point x="16538.137" y="174.21099999999956" type="curve" smooth="yes"/>
      <point x="16425.471999999998" y="191.1029999999996"/>
      <point x="16393.282" y="243.88999999999965"/>
      <point x="16457.661" y="294.5659999999996" type="curve"/>
      <point x="16495.216" y="319.90399999999954"/>
      <point x="16516.676" y="421.25599999999963"/>
      <point x="16511.311" y="533.1639999999995" type="curve" smooth="yes"/>
      <point x="16505.946" y="640.8499999999996"/>
      <point x="16543.501" y="794.9889999999996"/>
      <point x="16586.421000000002" y="881.5599999999995" type="curve" smooth="yes"/>
      <point x="16650.801000000003" y="1001.9149999999995"/>
      <point x="16656.166" y="1048.3679999999995"/>
      <point x="16607.881" y="1094.8199999999995" type="curve" smooth="yes"/>
      <point x="16575.691000000003" y="1126.4929999999995"/>
      <point x="16527.406000000003" y="1153.9429999999995"/>
      <point x="16511.311" y="1153.9429999999995" type="curve" smooth="yes"/>
      <point x="16489.851000000002" y="1153.9429999999995"/>
      <point x="16420.107" y="1172.9459999999995"/>
      <point x="16355.727" y="1196.1729999999995" type="curve" smooth="yes"/>
      <point x="16226.967" y="1244.7369999999996"/>
      <point x="15642.185000000001" y="1270.0749999999996"/>
      <point x="15470.505000000001" y="1234.1789999999996" type="curve" smooth="yes"/>
      <point x="15309.556" y="1202.5069999999996"/>
      <point x="15078.862000000001" y="1196.1719999999996"/>
      <point x="13823.457" y="1198.2839999999994" type="curve" smooth="yes"/>
      <point x="12348.088" y="1200.3949999999995"/>
      <point x="12954.331" y="1202.5069999999996"/>
      <point x="9290.051" y="1187.7259999999994" type="curve" smooth="yes"/>
      <point x="4064.5509999999995" y="1168.7229999999995"/>
      <point x="3238.3449999999993" y="1172.9459999999995"/>
      <point x="2106.334999999999" y="1217.2869999999996" type="curve" smooth="yes"/>
      <point x="1811.260999999999" y="1229.9569999999994"/>
      <point x="1564.471999999999" y="1234.1789999999996"/>
      <point x="1548.376999999999" y="1229.9569999999994" type="curve"/>
      <point x="1537.646999999999" y="1223.6219999999996"/>
      <point x="1430.346999999999" y="1234.1789999999996"/>
      <point x="1312.316999999999" y="1251.0709999999995" type="curve" smooth="yes"/>
      <point x="1054.8" y="1286.967"/>
      <point x="963.595" y="1289.078"/>
      <point x="920.675" y="1259.517" type="curve"/>
    </contour>
  </outline>
</glyph>
<glyph name="w14" format="2">
  <advance width="17920"/>
  <outline>
    <contour>
      <point x="17338.614" y="-342.88300000000004" type="line"/>
      <point x="17692.698" y="-280.519"/>
      <point x="17761.165" y="-254.89599999999996"/>
      <point x="17844.209000000003" y="-153.29300000000012" type="curve" smooth="yes"/>
      <point x="17953.153000000002" y="-17.04000000000019"/>
      <point x="17970.899" y="181.1329999999998"/>
      <point x="17905.273" y="600.1419999999998" type="curve" smooth="yes"/>
      <point x="17881.262000000002" y="760.9449999999998"/>
      <point x="17862.507" y="924.2819999999998"/>
      <point x="17861.868000000002" y="960.9119999999998" type="curve"/>
      <point x="17865.974000000002" y="1029.3819999999998"/>
      <point x="17644.817000000003" y="1247.812"/>
      <point x="17500.538" y="1313.6919999999998" type="curve" smooth="yes"/>
      <point x="17431.09" y="1344.2349999999997"/>
      <point x="17017.646" y="1341.9039999999998"/>
      <point x="14452.66" y="1299.5739999999998" type="curve" smooth="yes"/>
      <point x="12815.124" y="1270.9909999999998"/>
      <point x="11299.305" y="1254.3039999999999"/>
      <point x="11081.898" y="1257.8369999999998" type="curve" smooth="yes"/>
      <point x="10864.491999999998" y="1261.37"/>
      <point x="10419.080999999998" y="1268.2519999999997"/>
      <point x="10100.984999999999" y="1270.0269999999998" type="curve" smooth="yes"/>
      <point x="9777.588999999998" y="1271.7109999999998"/>
      <point x="9364.016999999998" y="1276.7069999999999"/>
      <point x="9173.108999999999" y="1280.7019999999998" type="curve" smooth="yes"/>
      <point x="8573.884999999998" y="1292.2269999999999"/>
      <point x="8123.258999999998" y="1294.1319999999998"/>
      <point x="6734.584999999999" y="1282.1069999999997" type="curve" smooth="yes"/>
      <point x="5992.53" y="1276.483"/>
      <point x="5059.61" y="1272.412"/>
      <point x="4667.322" y="1272.893" type="curve" smooth="yes"/>
      <point x="4275.034" y="1273.374"/>
      <point x="3522.2960000000003" y="1272.449"/>
      <point x="2997.563" y="1268.175" type="curve" smooth="yes"/>
      <point x="2472.83" y="1263.901"/>
      <point x="1757.103" y="1268.508"/>
      <point x="1407.04" y="1279.497" type="curve" smooth="yes"/>
      <point x="563.742" y="1303.86"/>
      <point x="574.34" y="1304.046"/>
      <point x="400.865" y="1220.407" type="curve" smooth="yes"/>
      <point x="274.701" y="1159.578"/>
      <point x="248.84300000000002" y="1122.4859999999999"/>
      <point x="219.518" y="980.294" type="curve" smooth="yes"/>
      <point x="205.197" y="889.662"/>
      <point x="164.251" y="805.894"/>
      <point x="132.624" y="795.5699999999999" type="curve" smooth="yes"/>
      <point x="21.89" y="761.882"/>
      <point x="-2.69" y="651.528"/>
      <point x="93.468" y="609.237" type="curve" smooth="yes"/>
      <point x="141.547" y="588.092"/>
      <point x="205.438" y="572.107"/>
      <point x="231.93599999999998" y="572.5699999999999" type="curve" smooth="yes"/>
      <point x="258.43399999999997" y="573.0329999999999"/>
      <point x="248.474" y="536.217"/>
      <point x="212.14499999999998" y="491.6139999999999" type="curve"/>
      <point x="170.516" y="446.9169999999999"/>
      <point x="145.255" y="375.63599999999997"/>
      <point x="151.32199999999997" y="331.7729999999999" type="curve" smooth="yes"/>
      <point x="157.38899999999998" y="287.9089999999999"/>
      <point x="132.51199999999997" y="194.64999999999986"/>
      <point x="91.35199999999998" y="123.0909999999999" type="curve" smooth="yes"/>
      <point x="55.44899999999998" y="54.06700000000001"/>
      <point x="25.910999999999973" y="-75.91400000000021"/>
      <point x="27.48799999999998" y="-166.26900000000023" type="curve" smooth="yes"/>
      <point x="30.045999999999978" y="-312.7890000000002"/>
      <point x="46.369999999999976" y="-336.93200000000024"/>
      <point x="185.34999999999997" y="-402.9040000000002" type="curve" smooth="yes"/>
      <point x="270.866" y="-442.93800000000033"/>
      <point x="372.15299999999996" y="-475.36900000000014"/>
      <point x="414.591" y="-477.07100000000014" type="curve" smooth="yes"/>
      <point x="451.731" y="-478.86500000000024"/>
      <point x="1628.255" y="-460.7710000000002"/>
      <point x="3027.401" y="-441.2350000000001" type="curve" smooth="yes"/>
      <point x="5428.189" y="-406.65700000000015"/>
      <point x="6679.076999999999" y="-397.03700000000003"/>
      <point x="7532.803" y="-411.4480000000001" type="curve" smooth="yes"/>
      <point x="7734.311" y="-415.25800000000004"/>
      <point x="8428.755" y="-415.3510000000001"/>
      <point x="9070.119" y="-411.48400000000015" type="curve" smooth="yes"/>
      <point x="9711.482" y="-407.6170000000002"/>
      <point x="10246.899000000001" y="-408.0430000000001"/>
      <point x="10268.225" y="-414.99900000000025" type="curve"/>
      <point x="10422.677" y="-456.27200000000016"/>
      <point x="13136.262" y="-423.56300000000033"/>
      <point x="15234.298" y="-355.18600000000015" type="curve" smooth="yes"/>
      <point x="16235.642" y="-323.05100000000016"/>
      <point x="16490.059" y="-321.0530000000001"/>
      <point x="16612.416" y="-345.78700000000026" type="curve" smooth="yes"/>
      <point x="16867.856" y="-402.39700000000016"/>
      <point x="17016.242000000002" y="-399.80700000000024"/>
      <point x="17338.614" y="-342.88300000000027" type="curve"/>
    </contour>
  </outline>
</glyph>
<glyph name="w15" format="2">
  <advance width="19200"/>
  <outline>
    <contour>
      <point x="17920.572" y="1260.266" type="line"/>
      <point x="17271.149" y="1224.881"/>
      <point x="16987.492" y="1215.805"/>
      <point x="15307.952000000001" y="1201.651" type="curve" smooth="yes"/>
      <point x="14404.732000000002" y="1194.574"/>
      <point x="13546.299" y="1185.138"/>
      <point x="13404.471000000001" y="1178.061" type="curve" smooth="yes"/>
      <point x="13262.643000000002" y="1173.343"/>
      <point x="12926.735" y="1163.907"/>
      <point x="12658.008000000002" y="1156.831" type="curve" smooth="yes"/>
      <point x="12389.281" y="1149.753"/>
      <point x="11620.424" y="1126.164"/>
      <point x="10941.143000000002" y="1104.933" type="curve" smooth="yes"/>
      <point x="10097.640000000001" y="1076.625"/>
      <point x="8660.096000000001" y="1201.651"/>
      <point x="7226.888000000002" y="1201.651" type="curve" smooth="yes"/>
      <point x="5450.306000000001" y="1204.01"/>
      <point x="3065.9590000000017" y="1083.702"/>
      <point x="3065.9590000000017" y="1095.497" type="curve" smooth="yes"/>
      <point x="3065.9590000000017" y="1097.857"/>
      <point x="2983.8490000000015" y="1102.574"/>
      <point x="2879.344000000002" y="1107.292" type="curve" smooth="yes"/>
      <point x="2774.8390000000018" y="1112.01"/>
      <point x="2491.183000000002" y="1128.522"/>
      <point x="2244.8500000000017" y="1145.036" type="curve" smooth="yes"/>
      <point x="1550.6400000000017" y="1189.856"/>
      <point x="1155.0140000000017" y="1187.496"/>
      <point x="863.8940000000018" y="1137.959" type="curve" smooth="yes"/>
      <point x="550.3790000000018" y="1083.702"/>
      <point x="112.55300000000182" y="1149.753"/>
      <point x="179.73400000000186" y="1119.087" type="curve"/>
      <point x="202.12800000000186" y="1104.933"/>
      <point x="187.19900000000186" y="1081.343"/>
      <point x="134.94700000000185" y="1064.831" type="curve"/>
      <point x="90.15900000000185" y="1045.959"/>
      <point x="75.23000000000185" y="1005.856"/>
      <point x="97.62400000000184" y="972.831" type="curve"/>
      <point x="127.48200000000185" y="939.8050000000001"/>
      <point x="112.55300000000184" y="906.78"/>
      <point x="67.76500000000183" y="899.703" type="curve"/>
      <point x="22.977000000001837" y="890.267"/>
      <point x="-14.344999999998166" y="857.241"/>
      <point x="-14.344999999998166" y="826.575" type="curve" smooth="yes"/>
      <point x="-14.344999999998166" y="795.908"/>
      <point x="-44.204999999998165" y="765.2420000000001"/>
      <point x="-81.52699999999817" y="758.1650000000001" type="curve" smooth="yes"/>
      <point x="-111.38599999999818" y="751.0880000000001"/>
      <point x="-118.85099999999817" y="699.191"/>
      <point x="-88.99199999999817" y="644.9350000000001" type="curve"/>
      <point x="-51.66899999999817" y="588.3190000000001"/>
      <point x="80.10800000000182" y="366.576"/>
      <point x="57.71400000000182" y="352.422" type="curve"/>
      <point x="35.32" y="340.62800000000004"/>
      <point x="5.46" y="234.47399999999993"/>
      <point x="-2.003" y="116.52600000000007" type="curve" smooth="yes"/>
      <point x="-16.933" y="-93.42200000000003"/>
      <point x="139.825" y="-367.0629999999999"/>
      <point x="274.187" y="-367.0629999999999" type="curve" smooth="yes"/>
      <point x="311.511" y="-367.0629999999999"/>
      <point x="341.37" y="-383.5749999999998"/>
      <point x="341.37" y="-402.4469999999999" type="curve" smooth="yes"/>
      <point x="341.37" y="-444.9089999999999"/>
      <point x="572.773" y="-485.01099999999997"/>
      <point x="893.752" y="-494.4469999999999" type="curve" smooth="yes"/>
      <point x="1028.115" y="-499.16499999999996"/>
      <point x="1184.8719999999998" y="-508.6009999999999"/>
      <point x="1237.125" y="-520.395" type="curve" smooth="yes"/>
      <point x="1289.377" y="-529.8309999999999"/>
      <point x="1349.095" y="-527.472"/>
      <point x="1378.953" y="-513.319" type="curve" smooth="yes"/>
      <point x="1401.347" y="-501.5239999999999"/>
      <point x="1655.144" y="-492.08799999999997"/>
      <point x="1946.2649999999999" y="-496.80600000000004" type="curve" smooth="yes"/>
      <point x="2968.919" y="-508.6010000000001"/>
      <point x="4267.764999999999" y="-536.9080000000001"/>
      <point x="4521.562" y="-553.421" type="curve" smooth="yes"/>
      <point x="4835.076" y="-572.2930000000001"/>
      <point x="8067.261" y="-567.575"/>
      <point x="8813.724" y="-546.344" type="curve" smooth="yes"/>
      <point x="9104.844000000001" y="-539.267"/>
      <point x="9836.378" y="-522.7540000000001"/>
      <point x="10448.478" y="-508.6010000000001" type="curve" smooth="yes"/>
      <point x="11053.113" y="-494.4470000000001"/>
      <point x="11575.636999999999" y="-480.2930000000001"/>
      <point x="11605.494999999999" y="-475.57500000000005" type="curve"/>
      <point x="11627.889" y="-470.85699999999997"/>
      <point x="12038.444" y="-459.0620000000001"/>
      <point x="12508.714999999998" y="-449.626" type="curve" smooth="yes"/>
      <point x="12978.987" y="-440.19100000000003"/>
      <point x="13389.541999999998" y="-428.39599999999996"/>
      <point x="13419.399999999998" y="-423.6779999999999" type="curve" smooth="yes"/>
      <point x="13449.258999999998" y="-418.9599999999998"/>
      <point x="14233.044999999998" y="-411.8829999999998"/>
      <point x="15173.587999999998" y="-411.8829999999998" type="curve" smooth="yes"/>
      <point x="16397.787999999997" y="-411.8829999999998"/>
      <point x="17002.422" y="-418.9599999999998"/>
      <point x="17323.400999999998" y="-444.9089999999999" type="curve" smooth="yes"/>
      <point x="17607.056999999997" y="-463.78"/>
      <point x="17853.39" y="-470.85699999999997"/>
      <point x="17987.752999999997" y="-459.0619999999999" type="curve" smooth="yes"/>
      <point x="18114.652" y="-447.2669999999998"/>
      <point x="18226.620999999996" y="-442.54999999999995"/>
      <point x="18241.550999999996" y="-447.2669999999998" type="curve"/>
      <point x="18278.873999999996" y="-461.4209999999998"/>
      <point x="18973.067999999996" y="-326.9599999999998"/>
      <point x="19025.319999999996" y="-282.1399999999999" type="curve"/>
      <point x="19055.177999999996" y="-260.90999999999985"/>
      <point x="19047.713999999996" y="-232.60099999999989"/>
      <point x="19010.389999999996" y="-216.08899999999994" type="curve"/>
      <point x="18950.673999999995" y="-185.42200000000003"/>
      <point x="19107.429999999997" y="-60.396999999999935"/>
      <point x="19241.793999999994" y="-36.807000000000016" type="curve" smooth="yes"/>
      <point x="19346.298999999995" y="-15.576999999999998"/>
      <point x="19323.904999999995" y="83.5"/>
      <point x="19197.005999999994" y="116.52600000000007" type="curve" smooth="yes"/>
      <point x="19062.642999999993" y="151.91000000000008"/>
      <point x="19055.177999999993" y="217.961"/>
      <point x="19174.611999999994" y="288.73" type="curve" smooth="yes"/>
      <point x="19219.399999999994" y="317.038"/>
      <point x="19271.651999999995" y="383.08900000000006"/>
      <point x="19279.116999999995" y="434.986" type="curve" smooth="yes"/>
      <point x="19286.581999999995" y="486.884"/>
      <point x="19107.446999999996" y="673.242"/>
      <point x="19152.234999999993" y="805.344" type="curve" smooth="yes"/>
      <point x="19256.739999999994" y="1093.138"/>
      <point x="19197.022999999994" y="1154.471"/>
      <point x="18771.538999999993" y="1232.317" type="curve" smooth="yes"/>
      <point x="18465.488999999994" y="1288.933"/>
      <point x="18472.953999999994" y="1290.933"/>
      <point x="17920.571999999993" y="1260.266" type="curve"/>
    </contour>
  </outline>
</glyph>
<glyph name="w16" format="2">
  <advance width="20480"/>
  <outline>
    <contour>
      <point x="1013.675" y="1252.132" type="line"/>
      <point x="703.0419999999999" y="1230.454"/>
      <point x="439.4749999999999" y="1198.922"/>
      <point x="354.75699999999995" y="1169.362" type="curve" smooth="yes"/>
      <point x="270.03899999999993" y="1143.742"/>
      <point x="185.32099999999994" y="1118.122"/>
      <point x="147.66799999999995" y="1112.21" type="curve"/>
      <point x="119.42799999999995" y="1106.298"/>
      <point x="91.18999999999994" y="1088.561"/>
      <point x="81.77599999999995" y="1072.796" type="curve" smooth="yes"/>
      <point x="72.36299999999996" y="1057.03"/>
      <point x="44.12399999999995" y="982.142"/>
      <point x="15.884999999999948" y="905.284" type="curve" smooth="yes"/>
      <point x="-12.35500000000005" y="830.396"/>
      <point x="-2.9420000000000535" y="725.948"/>
      <point x="44.12399999999995" y="672.738" type="curve" smooth="yes"/>
      <point x="91.18999999999996" y="621.499"/>
      <point x="100.60299999999995" y="576.172"/>
      <point x="62.94999999999995" y="570.2600000000001" type="curve"/>
      <point x="25.297999999999952" y="566.3190000000001"/>
      <point x="44.12399999999995" y="519.0210000000001"/>
      <point x="91.18999999999996" y="467.78200000000015" type="curve" smooth="yes"/>
      <point x="138.25499999999994" y="416.5430000000001"/>
      <point x="185.31999999999994" y="312.09500000000014"/>
      <point x="194.73399999999995" y="237.2070000000001" type="curve" smooth="yes"/>
      <point x="204.14699999999996" y="146.5540000000001"/>
      <point x="241.79899999999995" y="97.28600000000006"/>
      <point x="326.51699999999994" y="93.34400000000005" type="curve"/>
      <point x="382.99699999999996" y="87.43200000000002"/>
      <point x="420.64899999999994" y="75.60799999999995"/>
      <point x="392.40899999999993" y="65.75400000000013" type="curve"/>
      <point x="298.27899999999994" y="38.164000000000215"/>
      <point x="637.15" y="-48.547999999999774"/>
      <point x="947.7829999999999" y="-78.10899999999992" type="curve" smooth="yes"/>
      <point x="1418.4389999999999" y="-123.43599999999992"/>
      <point x="3630.5209999999997" y="-141.17200000000003"/>
      <point x="10878.621" y="-158.90899999999988" type="curve" smooth="yes"/>
      <point x="13448.401" y="-164.8209999999999"/>
      <point x="15001.565999999999" y="-176.64499999999998"/>
      <point x="15227.481" y="-192.41099999999983" type="curve" smooth="yes"/>
      <point x="15500.461" y="-208.1769999999999"/>
      <point x="15764.029" y="-208.1769999999999"/>
      <point x="16300.576" y="-190.4409999999998" type="curve" smooth="yes"/>
      <point x="16695.927" y="-176.64499999999975"/>
      <point x="17260.714" y="-170.73299999999972"/>
      <point x="17552.521" y="-176.64499999999975" type="curve" smooth="yes"/>
      <point x="19039.793" y="-208.17699999999968"/>
      <point x="19341.013" y="-208.17699999999968"/>
      <point x="19717.538" y="-176.64499999999975" type="curve" smooth="yes"/>
      <point x="20094.062" y="-145.1139999999998" type="line"/>
      <point x="20159.954" y="4.662000000000262" type="line"/>
      <point x="20188.194000000003" y="87.43200000000024"/>
      <point x="20244.672000000002" y="178.08600000000024"/>
      <point x="20272.911" y="205.67600000000039" type="curve" smooth="yes"/>
      <point x="20301.151" y="233.2660000000003"/>
      <point x="20338.803" y="329.83200000000033"/>
      <point x="20357.629" y="422.45600000000036" type="curve"/>
      <point x="20367.043" y="515.0800000000004"/>
      <point x="20404.695" y="712.1530000000004"/>
      <point x="20432.934" y="859.9570000000003" type="curve" smooth="yes"/>
      <point x="20480.0" y="1129.9470000000003" type="line"/>
      <point x="20169.367" y="1200.8930000000003" type="line" smooth="yes"/>
      <point x="19924.626999999997" y="1254.1030000000003"/>
      <point x="19774.017" y="1269.8680000000004"/>
      <point x="19491.623" y="1271.8390000000004" type="curve" smooth="yes"/>
      <point x="19284.534" y="1273.8090000000004"/>
      <point x="19039.792999999998" y="1275.7800000000004"/>
      <point x="18936.249" y="1277.7510000000004" type="curve" smooth="yes"/>
      <point x="18832.704999999998" y="1279.7210000000002"/>
      <point x="18512.659" y="1269.8680000000004"/>
      <point x="18230.265" y="1256.0730000000003" type="curve" smooth="yes"/>
      <point x="17816.088" y="1238.3370000000004"/>
      <point x="17524.281" y="1238.3370000000004"/>
      <point x="16733.579999999998" y="1261.9850000000004" type="curve" smooth="yes"/>
      <point x="16197.031999999997" y="1277.7510000000004"/>
      <point x="15669.896999999997" y="1283.6630000000002"/>
      <point x="15556.939999999999" y="1277.7510000000004" type="curve" smooth="yes"/>
      <point x="15274.546999999999" y="1258.0440000000003"/>
      <point x="14210.863999999998" y="1252.1310000000003"/>
      <point x="8393.557999999999" y="1240.3070000000002" type="curve" smooth="yes"/>
      <point x="5051.901999999999" y="1234.3950000000004"/>
      <point x="3037.494999999999" y="1236.3660000000004"/>
      <point x="2698.6229999999987" y="1250.1610000000003" type="curve" smooth="yes"/>
      <point x="1710.2459999999987" y="1289.5750000000003"/>
      <point x="1521.9829999999986" y="1289.5750000000003"/>
      <point x="1013.6749999999986" y="1252.1310000000003" type="curve"/>
    </contour>
  </outline>
</glyph>
<glyph name="w17" format="2">
  <advance width="21760"/>
  <outline>
    <contour>
      <point x="115.137" y="1263.49" type="curve" smooth="yes"/>
      <point x="110.03" y="1254.981"/>
      <point x="86.197" y="1246.472"/>
      <point x="62.364" y="1246.472" type="curve" smooth="yes"/>
      <point x="-43.181000000000004" y="1246.472"/>
      <point x="-131.703" y="1151.166"/>
      <point x="-136.811" y="1032.033" type="curve" smooth="yes"/>
      <point x="-138.513" y="1001.399"/>
      <point x="-150.429" y="970.765"/>
      <point x="-162.346" y="965.659" type="curve"/>
      <point x="-174.262" y="962.256"/>
      <point x="-179.369" y="941.833"/>
      <point x="-175.965" y="919.7090000000001" type="curve"/>
      <point x="-170.857" y="897.5840000000001"/>
      <point x="-162.345" y="834.614"/>
      <point x="-157.239" y="778.451" type="curve" smooth="yes"/>
      <point x="-152.132" y="722.289"/>
      <point x="-143.619" y="654.213"/>
      <point x="-140.215" y="625.2810000000001" type="curve" smooth="yes"/>
      <point x="-136.811" y="598.051"/>
      <point x="-128.299" y="489.1300000000001"/>
      <point x="-123.19200000000001" y="383.61300000000006" type="curve" smooth="yes"/>
      <point x="-118.08500000000001" y="278.095"/>
      <point x="-107.87100000000001" y="179.38599999999997"/>
      <point x="-101.06200000000001" y="160.66499999999996" type="curve" smooth="yes"/>
      <point x="-84.03800000000001" y="118.11699999999996"/>
      <point x="36.82899999999998" y="14.301999999999907"/>
      <point x="99.81599999999997" y="-11.226000000000113" type="curve" smooth="yes"/>
      <point x="127.05399999999997" y="-21.438000000000102"/>
      <point x="212.171" y="-29.947000000000116"/>
      <point x="287.07399999999996" y="-29.947000000000116" type="curve" smooth="yes"/>
      <point x="360.275" y="-28.24500000000012"/>
      <point x="537.3199999999999" y="-33.35100000000011"/>
      <point x="676.912" y="-40.15800000000013" type="curve" smooth="yes"/>
      <point x="818.207" y="-46.96600000000012"/>
      <point x="1754.502" y="-50.37000000000012"/>
      <point x="2760.5910000000003" y="-50.37000000000012" type="curve" smooth="yes"/>
      <point x="4011.8170000000005" y="-48.66800000000012"/>
      <point x="21148.234" y="-55.475000000000136"/>
      <point x="21172.067" y="-67.38900000000012" type="curve" smooth="yes"/>
      <point x="21190.792999999998" y="-77.60000000000014"/>
      <point x="21262.291999999998" y="-86.10900000000015"/>
      <point x="21330.386" y="-87.81100000000015" type="curve" smooth="yes"/>
      <point x="21441.038999999997" y="-91.21500000000015"/>
      <point x="21459.764" y="-86.11000000000013"/>
      <point x="21498.917999999998" y="-50.37000000000012" type="curve" smooth="yes"/>
      <point x="21553.392999999996" y="0.6869999999998981"/>
      <point x="21599.356999999996" y="136.83799999999997"/>
      <point x="21587.44" y="210.01999999999998" type="curve" smooth="yes"/>
      <point x="21582.333" y="242.356"/>
      <point x="21587.44" y="276.39300000000003"/>
      <point x="21601.059999999998" y="291.71000000000004" type="curve" smooth="yes"/>
      <point x="21638.51" y="334.25800000000004"/>
      <point x="21647.022999999997" y="376.80500000000006"/>
      <point x="21621.486999999997" y="387.0160000000001" type="curve" smooth="yes"/>
      <point x="21585.737999999998" y="400.6310000000001"/>
      <point x="21575.523999999998" y="443.1790000000001"/>
      <point x="21595.951999999997" y="484.0240000000001" type="curve"/>
      <point x="21607.869" y="504.4470000000001"/>
      <point x="21614.677999999996" y="586.1380000000001"/>
      <point x="21612.976" y="676.3380000000001" type="curve" smooth="yes"/>
      <point x="21611.272999999997" y="763.1340000000001"/>
      <point x="21623.19" y="887.3720000000001"/>
      <point x="21636.808999999997" y="957.1500000000001" type="curve" smooth="yes"/>
      <point x="21657.236999999997" y="1054.1580000000001"/>
      <point x="21658.939" y="1091.6000000000001"/>
      <point x="21643.618" y="1129.0410000000002" type="curve" smooth="yes"/>
      <point x="21633.404" y="1154.569"/>
      <point x="21618.083" y="1176.694"/>
      <point x="21612.976" y="1176.694" type="curve" smooth="yes"/>
      <point x="21606.165999999997" y="1176.694"/>
      <point x="21584.036" y="1192.011"/>
      <point x="21563.608" y="1210.732" type="curve" smooth="yes"/>
      <point x="21522.751" y="1249.875"/>
      <point x="21337.195" y="1270.298"/>
      <point x="21282.72" y="1241.366" type="curve" smooth="yes"/>
      <point x="21231.65" y="1215.8380000000002"/>
      <point x="21158.449" y="1210.732"/>
      <point x="20760.099000000002" y="1212.434" type="curve" smooth="yes"/>
      <point x="20291.953" y="1214.136"/>
      <point x="9200.261" y="1383.914"/>
      <point x="8037.557" y="1372.0" type="curve" smooth="yes"/>
      <point x="6379.466" y="1356.683"/>
      <point x="850.552" y="1193.713"/>
      <point x="491.357" y="1229.453" type="curve" smooth="yes"/>
      <point x="397.72700000000003" y="1239.664"/>
      <point x="319.41900000000004" y="1243.068"/>
      <point x="314.312" y="1239.664" type="curve"/>
      <point x="310.90700000000004" y="1234.558"/>
      <point x="276.86" y="1243.068"/>
      <point x="239.409" y="1256.683" type="curve" smooth="yes"/>
      <point x="157.696" y="1285.615"/>
      <point x="128.756" y="1287.317"/>
    </contour>
  </outline>
</glyph>
<glyph name="w18" format="2">
  <advance width="23040"/>
  <outline>
    <contour>
      <point x="1779.706" y="1279.398" type="curve"/>
      <point x="1778.03" y="1277.576"/>
      <point x="1613.763" y="1270.285"/>
      <point x="1415.9679999999998" y="1264.817" type="curve" smooth="yes"/>
      <point x="1193.0339999999999" y="1257.527"/>
      <point x="1013.6809999999998" y="1242.945"/>
      <point x="946.6329999999998" y="1224.719" type="curve" smooth="yes"/>
      <point x="881.26" y="1208.315"/>
      <point x="706.936" y="1193.734"/>
      <point x="510.82" y="1186.444" type="curve" smooth="yes"/>
      <point x="100.152" y="1173.685"/>
      <point x="61.6" y="1157.281"/>
      <point x="21.37" y="960.437" type="curve" smooth="yes"/>
      <point x="-7.125" y="823.739"/>
      <point x="-7.125" y="402.71000000000004"/>
      <point x="21.37" y="337.095" type="curve" smooth="yes"/>
      <point x="33.104" y="307.932"/>
      <point x="39.809" y="271.48"/>
      <point x="33.104" y="255.07600000000002" type="curve" smooth="yes"/>
      <point x="11.314" y="193.106"/>
      <point x="44.837" y="-5.560999999999922"/>
      <point x="83.39" y="-51.12699999999995" type="curve" smooth="yes"/>
      <point x="103.504" y="-74.82099999999991"/>
      <point x="128.647" y="-94.86999999999989"/>
      <point x="140.38" y="-94.86999999999989" type="curve" smooth="yes"/>
      <point x="150.438" y="-94.86999999999989"/>
      <point x="158.819" y="-107.6289999999999"/>
      <point x="158.819" y="-124.0329999999999" type="curve" smooth="yes"/>
      <point x="158.819" y="-138.61299999999983"/>
      <point x="167.19899999999998" y="-145.904"/>
      <point x="177.25699999999998" y="-140.43599999999992" type="curve"/>
      <point x="185.63699999999997" y="-133.14599999999996"/>
      <point x="207.42799999999997" y="-140.43599999999992"/>
      <point x="222.51399999999998" y="-155.01699999999983" type="curve"/>
      <point x="245.981" y="-175.06699999999978"/>
      <point x="277.82899999999995" y="-178.71199999999976"/>
      <point x="385.105" y="-167.77599999999984" type="curve" smooth="yes"/>
      <point x="458.858" y="-158.66299999999978"/>
      <point x="601.335" y="-147.72599999999989"/>
      <point x="700.231" y="-142.2589999999998" type="curve" smooth="yes"/>
      <point x="800.802" y="-136.7909999999997"/>
      <point x="889.641" y="-127.67799999999988"/>
      <point x="898.0219999999999" y="-122.20899999999983" type="curve"/>
      <point x="924.842" y="-102.16099999999983"/>
      <point x="21690.247" y="-96.69299999999976"/>
      <point x="21785.791" y="-114.91899999999987" type="curve" smooth="yes"/>
      <point x="21839.429" y="-125.85499999999979"/>
      <point x="21956.763000000003" y="-136.79099999999994"/>
      <point x="22048.954" y="-140.43599999999992" type="curve" smooth="yes"/>
      <point x="22271.888000000003" y="-149.54999999999995"/>
      <point x="22407.66" y="-164.13099999999986"/>
      <point x="22565.222" y="-198.76099999999997" type="curve" smooth="yes"/>
      <point x="22637.299000000003" y="-213.3409999999999"/>
      <point x="22700.995000000003" y="-222.45499999999993"/>
      <point x="22706.023" y="-215.164" type="curve"/>
      <point x="22711.052" y="-209.6969999999999"/>
      <point x="22729.49" y="-213.3420000000001"/>
      <point x="22744.576" y="-222.45499999999993" type="curve" smooth="yes"/>
      <point x="22768.042" y="-235.21299999999997"/>
      <point x="22776.423000000003" y="-231.56799999999998"/>
      <point x="22783.128" y="-204.22899999999981" type="curve" smooth="yes"/>
      <point x="22788.157" y="-184.17899999999986"/>
      <point x="22804.918" y="-167.77599999999984"/>
      <point x="22820.005" y="-167.77599999999984" type="curve" smooth="yes"/>
      <point x="22885.376" y="-167.77599999999984"/>
      <point x="22927.281000000003" y="-65.70799999999986"/>
      <point x="22930.634000000002" y="109.2650000000001" type="curve" smooth="yes"/>
      <point x="22932.31" y="205.865"/>
      <point x="22940.691000000003" y="247.78500000000008"/>
      <point x="22960.805" y="264.1890000000001" type="curve" smooth="yes"/>
      <point x="22984.272" y="282.41600000000005"/>
      <point x="22982.595" y="291.5290000000001"/>
      <point x="22942.367000000002" y="351.67600000000004" type="curve" smooth="yes"/>
      <point x="22905.491" y="408.178"/>
      <point x="22902.138000000003" y="428.226"/>
      <point x="22913.872000000003" y="484.72800000000007" type="curve" smooth="yes"/>
      <point x="22922.252000000004" y="521.181"/>
      <point x="22923.929000000004" y="566.7470000000001"/>
      <point x="22918.9" y="584.9730000000001" type="curve" smooth="yes"/>
      <point x="22913.872000000003" y="601.3770000000001"/>
      <point x="22918.9" y="661.5240000000001"/>
      <point x="22928.957000000002" y="718.0260000000001" type="curve" smooth="yes"/>
      <point x="22947.396" y="812.8030000000001"/>
      <point x="22950.748000000003" y="905.7570000000001"/>
      <point x="22947.396" y="1122.651" type="curve" smooth="yes"/>
      <point x="22945.719" y="1190.0890000000002"/>
      <point x="22939.015" y="1202.847"/>
      <point x="22900.462" y="1219.251" type="curve" smooth="yes"/>
      <point x="22873.642" y="1230.1870000000001"/>
      <point x="22744.576" y="1242.9450000000002"/>
      <point x="22610.48" y="1246.5910000000001" type="curve" smooth="yes"/>
      <point x="22476.384" y="1250.236"/>
      <point x="22303.736" y="1257.526"/>
      <point x="22224.953999999998" y="1261.171" type="curve" smooth="yes"/>
      <point x="22153.0" y="1265.52"/>
      <point x="17648.742" y="1242.762"/>
      <point x="12800.0" y="1246.592" type="curve" smooth="yes"/>
      <point x="7483.16" y="1250.79"/>
      <point x="1782.336" y="1281.305"/>
    </contour>
  </outline>
</glyph>
<glyph name="w19" format="2">
  <advance width="24320"/>
  <outline>
    <contour>
      <point x="24031.78" y="-64.44100000000003" type="line"/>
      <point x="24170.584" y="-24.009000000000015"/>
      <point x="24300.766" y="90.92900000000009"/>
      <point x="24277.573" y="154.17399999999998" type="curve" smooth="yes"/>
      <point x="24271.41" y="169.106"/>
      <point x="24280.327" y="212.404"/>
      <point x="24298.21" y="249.50299999999993" type="curve" smooth="yes"/>
      <point x="24315.974" y="288.299"/>
      <point x="24325.52" y="347.0049999999999"/>
      <point x="24322.075" y="396.2679999999999" type="curve" smooth="yes"/>
      <point x="24318.987" y="440.43399999999997"/>
      <point x="24321.978" y="495.2679999999999"/>
      <point x="24330.504" y="519.762" type="curve" smooth="yes"/>
      <point x="24338.792" y="547.654"/>
      <point x="24337.485" y="566.3399999999999"/>
      <point x="24326.821" y="572.4219999999999" type="curve" smooth="yes"/>
      <point x="24316.158" y="578.5039999999999"/>
      <point x="24306.158" y="623.8939999999999"/>
      <point x="24302.595" y="674.8559999999999" type="curve" smooth="yes"/>
      <point x="24299.031000000003" y="725.8159999999999"/>
      <point x="24291.085000000003" y="766.2299999999999"/>
      <point x="24282.595" y="765.6359999999999" type="curve" smooth="yes"/>
      <point x="24275.803" y="765.1609999999998"/>
      <point x="24267.145" y="815.7659999999998"/>
      <point x="24262.75" y="878.6179999999998" type="curve" smooth="yes"/>
      <point x="24257.76" y="949.9639999999998"/>
      <point x="24238.95" y="1023.7579999999998"/>
      <point x="24216.707" y="1073.4119999999998" type="curve" smooth="yes"/>
      <point x="24162.898999999998" y="1184.0189999999998"/>
      <point x="24115.744" y="1199.4989999999998"/>
      <point x="23852.061999999998" y="1187.889" type="curve" smooth="yes"/>
      <point x="23734.773999999998" y="1181.3939999999998"/>
      <point x="23630.713999999996" y="1180.946"/>
      <point x="23620.05" y="1187.0289999999998" type="curve" smooth="yes"/>
      <point x="23609.386" y="1193.11"/>
      <point x="19353.377" y="1206.1219999999998"/>
      <point x="19196.795" y="1200.2939999999999" type="curve" smooth="yes"/>
      <point x="19040.213" y="1194.466"/>
      <point x="18801.765" y="1188.0339999999999"/>
      <point x="18665.322" y="1187.0279999999998" type="curve" smooth="yes"/>
      <point x="18421.424" y="1185.3359999999998"/>
      <point x="16672.634" y="1108.5249999999999"/>
      <point x="15929.254" y="1075.3199999999997" type="curve" smooth="yes"/>
      <point x="15723.308" y="1067.7459999999999"/>
      <point x="15539.438" y="1061.7169999999999"/>
      <point x="15520.521" y="1063.8079999999998" type="curve"/>
      <point x="15501.485" y="1067.5979999999997"/>
      <point x="13902.468" y="1075.9329999999998"/>
      <point x="13747.227" y="1075.3199999999997" type="curve" smooth="yes"/>
      <point x="13591.987000000001" y="1074.706"/>
      <point x="13423.043000000001" y="1074.8419999999999"/>
      <point x="13371.862000000001" y="1074.677" type="curve" smooth="yes"/>
      <point x="13320.681" y="1074.5119999999997"/>
      <point x="13201.219000000001" y="1074.6929999999998"/>
      <point x="13107.467" y="1073.2589999999998" type="curve" smooth="yes"/>
      <point x="13013.715" y="1071.8239999999998"/>
      <point x="5460.689" y="1187.7499999999998"/>
      <point x="5377.126" y="1187.0289999999998" type="curve" smooth="yes"/>
      <point x="5291.8640000000005" y="1186.187"/>
      <point x="5172.521000000001" y="1184.6689999999999"/>
      <point x="5109.454" y="1183.6739999999998" type="curve" smooth="yes"/>
      <point x="4910.062" y="1179.9739999999997"/>
      <point x="4713.592" y="1183.3039999999999"/>
      <point x="4685.947" y="1188.1999999999998" type="curve" smooth="yes"/>
      <point x="4672.125" y="1190.6469999999997"/>
      <point x="967.8520000000003" y="1070.293"/>
      <point x="855.4200000000001" y="1067.5519999999997" type="curve" smooth="yes"/>
      <point x="742.989" y="1064.812"/>
      <point x="589.2090000000001" y="1067.7139999999997"/>
      <point x="513.8980000000001" y="1070.9819999999997" type="curve" smooth="yes"/>
      <point x="238.12800000000016" y="1085.8389999999997"/>
      <point x="193.85800000000012" y="1084.4509999999998"/>
      <point x="154.64800000000014" y="1059.5179999999998" type="curve" smooth="yes"/>
      <point x="133.40300000000013" y="1046.0829999999999"/>
      <point x="116.03100000000015" y="1026.091"/>
      <point x="116.98100000000014" y="1012.5009999999997" type="curve" smooth="yes"/>
      <point x="117.81300000000013" y="1000.6109999999999"/>
      <point x="111.73300000000013" y="989.9429999999998"/>
      <point x="103.24200000000013" y="989.3489999999998" type="curve" smooth="yes"/>
      <point x="94.75200000000014" y="988.7559999999999"/>
      <point x="80.74000000000014" y="945.1009999999999"/>
      <point x="74.23400000000014" y="891.7289999999998" type="curve" smooth="yes"/>
      <point x="67.60900000000014" y="840.0549999999998"/>
      <point x="50.558000000000135" y="791.0659999999998"/>
      <point x="38.908000000000136" y="786.8369999999998" type="curve"/>
      <point x="2.6190000000001348" y="768.9369999999999"/>
      <point x="-1.2039999999998656" y="725.9939999999998"/>
      <point x="25.267000000000138" y="664.6849999999998" type="curve" smooth="yes"/>
      <point x="47.51000000000013" y="615.0299999999999"/>
      <point x="48.222000000000136" y="604.8379999999999"/>
      <point x="22.00300000000014" y="589.3479999999998" type="curve" smooth="yes"/>
      <point x="-7.3749999999998614" y="570.2239999999998"/>
      <point x="-12.89699999999986" y="527.1629999999998"/>
      <point x="13.288000000000139" y="518.7509999999999" type="curve" smooth="yes"/>
      <point x="32.44300000000014" y="513.2629999999998"/>
      <point x="-1.5619999999998608" y="316.28499999999985"/>
      <point x="-28.054999999999865" y="280.2929999999999" type="curve" smooth="yes"/>
      <point x="-45.18999999999987" y="256.9029999999999"/>
      <point x="-65.58899999999986" y="158.1769999999999"/>
      <point x="-67.62999999999987" y="89.75299999999993" type="curve" smooth="yes"/>
      <point x="-68.37799999999987" y="76.04499999999985"/>
      <point x="-71.80999999999986" y="51.906999999999925"/>
      <point x="-77.53299999999987" y="36.14300000000003" type="curve" smooth="yes"/>
      <point x="-83.25599999999987" y="20.38000000000011"/>
      <point x="-83.68299999999988" y="-22.325000000000045"/>
      <point x="-77.79199999999987" y="-57.75999999999999" type="curve" smooth="yes"/>
      <point x="-68.65899999999988" y="-115.16000000000008"/>
      <point x="-59.336999999999875" y="-126.45699999999988"/>
      <point x="2.2350000000001273" y="-152.87799999999993" type="curve" smooth="yes"/>
      <point x="61.87100000000013" y="-176.01999999999998"/>
      <point x="113.17100000000013" y="-177.55399999999986"/>
      <point x="361.3320000000001" y="-163.615" type="curve" smooth="yes"/>
      <point x="519.3750000000001" y="-154.26999999999998"/>
      <point x="776.7400000000001" y="-149.93000000000006"/>
      <point x="932.3370000000001" y="-154.41200000000003" type="curve" smooth="yes"/>
      <point x="1087.933" y="-158.89499999999998"/>
      <point x="6932.782" y="-146.68700000000013"/>
      <point x="7040.0" y="-142.60400000000004" type="curve" smooth="yes"/>
      <point x="7147.337" y="-140.21900000000005"/>
      <point x="7355.338" y="-137.62400000000002"/>
      <point x="7500.39" y="-137.72299999999996" type="curve" smooth="yes"/>
      <point x="7645.442" y="-137.8219999999999"/>
      <point x="13221.742" y="-146.09299999999985"/>
      <point x="13320.470000000001" y="-142.60400000000004" type="curve" smooth="yes"/>
      <point x="13417.618" y="-140.93200000000002"/>
      <point x="13586.800000000001" y="-144.46399999999994"/>
      <point x="13696.310000000001" y="-148.75600000000009" type="curve" smooth="yes"/>
      <point x="13929.272" y="-161.48500000000013"/>
      <point x="14154.135000000002" y="-156.00300000000016"/>
      <point x="14727.229000000001" y="-127.87700000000018" type="curve" smooth="yes"/>
      <point x="14960.226" y="-116.70600000000013"/>
      <point x="15195.159000000001" y="-108.8130000000001"/>
      <point x="15246.339000000002" y="-108.64700000000016" type="curve" smooth="yes"/>
      <point x="15367.499000000002" y="-108.71100000000024"/>
      <point x="22875.509000000002" y="-49.7030000000002"/>
      <point x="23118.694000000003" y="-37.81900000000019" type="curve" smooth="yes"/>
      <point x="23224.096" y="-32.1550000000002"/>
      <point x="23311.056000000004" y="-31.19600000000014"/>
      <point x="23311.412000000004" y="-36.292000000000144" type="curve" smooth="yes"/>
      <point x="23311.768000000004" y="-41.38800000000015"/>
      <point x="23337.478000000003" y="-43.00400000000013"/>
      <point x="23366.464000000004" y="-42.6840000000002" type="curve" smooth="yes"/>
      <point x="23468.469000000005" y="-37.258000000000266"/>
      <point x="23660.321000000004" y="-47.74100000000021"/>
      <point x="23774.177000000003" y="-65.38400000000024" type="curve" smooth="yes"/>
      <point x="23836.378000000004" y="-76.39800000000014"/>
      <point x="23898.460000000003" y="-85.71400000000017"/>
      <point x="23912.283000000003" y="-88.16100000000029" type="curve" smooth="yes"/>
      <point x="23926.105000000003" y="-90.60800000000017"/>
      <point x="23979.970000000005" y="-80.01300000000037"/>
      <point x="24031.780000000002" y="-64.44100000000026" type="curve"/>
    </contour>
  </outline>
</glyph>
<glyph name="w2" format="2">
  <advance width="2560"/>
  <outline>
    <contour>
      <point x="236.86" y="1178.063" type="line"/>
      <point x="167.78400000000002" y="1148.711"/>
      <point x="135.06400000000002" y="1123.273"/>
      <point x="120.52200000000002" y="1086.095" type="curve" smooth="yes"/>
      <point x="109.61500000000002" y="1056.744"/>
      <point x="95.07300000000002" y="1015.652"/>
      <point x="87.80200000000002" y="994.1279999999999" type="curve" smooth="yes"/>
      <point x="53.264000000000024" y="904.1179999999999"/>
      <point x="25.99800000000002" y="583.21"/>
      <point x="47.81100000000002" y="544.075" type="curve" smooth="yes"/>
      <point x="53.264000000000024" y="534.291"/>
      <point x="60.535000000000025" y="463.84800000000007"/>
      <point x="62.35300000000002" y="387.5350000000001" type="curve" smooth="yes"/>
      <point x="64.17100000000002" y="313.1790000000001"/>
      <point x="76.89500000000002" y="207.51400000000012"/>
      <point x="87.80300000000003" y="152.72500000000014" type="curve" smooth="yes"/>
      <point x="100.52700000000003" y="99.89300000000003"/>
      <point x="111.43300000000002" y="29.450000000000045"/>
      <point x="113.25100000000003" y="-3.814999999999827" type="curve" smooth="yes"/>
      <point x="115.06900000000003" y="-35.12299999999982"/>
      <point x="124.15800000000003" y="-80.12799999999993"/>
      <point x="131.42900000000003" y="-101.65299999999979" type="curve" smooth="yes"/>
      <point x="138.69900000000004" y="-123.17699999999968"/>
      <point x="147.78900000000004" y="-150.57099999999969"/>
      <point x="151.42400000000004" y="-162.3119999999999" type="curve" smooth="yes"/>
      <point x="167.78400000000005" y="-219.058"/>
      <point x="315.024" y="-264.0629999999999"/>
      <point x="533.158" y="-275.8029999999999" type="curve" smooth="yes"/>
      <point x="653.131" y="-283.6299999999999"/>
      <point x="825.8199999999999" y="-293.414"/>
      <point x="914.8910000000001" y="-297.328" type="curve" smooth="yes"/>
      <point x="1005.7800000000001" y="-303.19799999999987"/>
      <point x="1245.726" y="-311.02499999999986"/>
      <point x="1451.1350000000002" y="-316.895" type="curve" smooth="yes"/>
      <point x="1918.3090000000002" y="-328.635"/>
      <point x="2089.1800000000003" y="-340.376"/>
      <point x="2112.811" y="-365.8140000000001" type="curve" smooth="yes"/>
      <point x="2158.2560000000003" y="-414.7330000000002"/>
      <point x="2367.3010000000004" y="-363.85699999999997"/>
      <point x="2445.465" y="-283.6300000000001" type="curve" smooth="yes"/>
      <point x="2470.913" y="-258.1930000000002"/>
      <point x="2485.455" y="-221.01400000000012"/>
      <point x="2483.638" y="-191.663" type="curve" smooth="yes"/>
      <point x="2481.8199999999997" y="-164.269"/>
      <point x="2492.727" y="-64.47399999999993"/>
      <point x="2505.451" y="29.450000000000045" type="curve" smooth="yes"/>
      <point x="2527.265" y="184.03300000000013"/>
      <point x="2527.265" y="201.644"/>
      <point x="2498.181" y="232.952" type="curve" smooth="yes"/>
      <point x="2474.549" y="256.432"/>
      <point x="2469.096" y="283.827"/>
      <point x="2476.367" y="336.65999999999997" type="curve" smooth="yes"/>
      <point x="2485.456" y="395.36199999999997"/>
      <point x="2503.6330000000003" y="684.961"/>
      <point x="2514.54" y="945.2099999999999" type="curve" smooth="yes"/>
      <point x="2518.176" y="1039.1329999999998"/>
      <point x="2478.185" y="1121.317"/>
      <point x="2427.287" y="1123.274" type="curve" smooth="yes"/>
      <point x="2405.473" y="1123.274"/>
      <point x="2350.9399999999996" y="1127.187"/>
      <point x="2305.4959999999996" y="1131.1009999999999" type="curve" smooth="yes"/>
      <point x="2260.0509999999995" y="1135.014"/>
      <point x="1861.9579999999996" y="1138.9279999999999"/>
      <point x="1418.4149999999995" y="1140.884" type="curve" smooth="yes"/>
      <point x="673.1259999999995" y="1140.884"/>
      <point x="602.2329999999995" y="1144.7979999999998"/>
      <point x="482.25999999999954" y="1180.0189999999998" type="curve" smooth="yes"/>
      <point x="329.5659999999996" y="1226.981"/>
      <point x="355.01499999999953" y="1226.981"/>
      <point x="236.85999999999953" y="1178.0629999999999" type="curve"/>
    </contour>
  </outline>
</glyph>
<glyph name="w20" format="2">
  <advance width="25600"/>
  <outline>
    <contour>
      <point x="315.239" y="1261.622" type="line"/>
      <point x="135.14899999999997" y="1211.752"/>
      <point x="100.57199999999997" y="1191.595"/>
      <point x="59.91199999999998" y="1112.4859999999999" type="curve" smooth="yes"/>
      <point x="6.624" y="1006.408"/>
      <point x="1.135" y="852.732"/>
      <point x="42.32" y="528.255" type="curve" smooth="yes"/>
      <point x="57.524" y="403.725"/>
      <point x="70.084" y="277.20799999999997"/>
      <point x="71.076" y="248.81899999999996" type="curve"/>
      <point x="70.216" y="195.73299999999995"/>
      <point x="187.36399999999998" y="27.392000000000053"/>
      <point x="262.40099999999995" y="-23.044000000000096" type="curve" smooth="yes"/>
      <point x="298.49799999999993" y="-46.41600000000017"/>
      <point x="510.05699999999996" y="-42.81800000000021"/>
      <point x="1822.0529999999999" y="1.102999999999838" type="curve" smooth="yes"/>
      <point x="2659.6279999999997" y="30.35199999999986"/>
      <point x="3435.1229999999996" y="49.85299999999984"/>
      <point x="3546.457" y="48.05599999999981" type="curve" smooth="yes"/>
      <point x="3657.79" y="46.25899999999979"/>
      <point x="3885.877" y="42.85599999999977"/>
      <point x="4048.711" y="42.85699999999974" type="curve" smooth="yes"/>
      <point x="4214.255" y="42.95299999999975"/>
      <point x="4426.013" y="40.873999999999796"/>
      <point x="4523.793" y="38.603999999999814" type="curve" smooth="yes"/>
      <point x="4830.6849999999995" y="32.266999999999825"/>
      <point x="21347.686" y="-123.95500000000015"/>
      <point x="22058.193" y="-108.61700000000019" type="curve" smooth="yes"/>
      <point x="22437.876" y="-101.04300000000012"/>
      <point x="22915.271" y="-93.84700000000021"/>
      <point x="23116.054" y="-92.52000000000021" type="curve" smooth="yes"/>
      <point x="23316.837" y="-91.19300000000021"/>
      <point x="23702.072" y="-87.21400000000017"/>
      <point x="23970.554" y="-81.62800000000016" type="curve" smooth="yes"/>
      <point x="24239.035" y="-76.04300000000012"/>
      <point x="24605.429" y="-76.51200000000017"/>
      <point x="24784.791" y="-83.51200000000017" type="curve" smooth="yes"/>
      <point x="25216.834000000003" y="-98.74200000000019"/>
      <point x="25211.412" y="-98.93200000000024"/>
      <point x="25298.681" y="-33.35400000000027" type="curve" smooth="yes"/>
      <point x="25362.15" y="14.338999999999714"/>
      <point x="25374.711" y="43.19999999999982"/>
      <point x="25387.141" y="153.5359999999996" type="curve" smooth="yes"/>
      <point x="25392.828" y="223.84499999999957"/>
      <point x="25412.266" y="288.9489999999996"/>
      <point x="25428.265" y="297.08599999999956" type="curve" smooth="yes"/>
      <point x="25484.328999999998" y="323.67799999999954"/>
      <point x="25494.908" y="409.3159999999996"/>
      <point x="25444.927" y="441.67799999999954" type="curve" smooth="yes"/>
      <point x="25419.936999999998" y="457.8589999999996"/>
      <point x="25386.947" y="469.97099999999955"/>
      <point x="25373.394" y="469.4979999999996" type="curve" smooth="yes"/>
      <point x="25359.841" y="469.02499999999964"/>
      <point x="25364.271" y="497.60199999999963"/>
      <point x="25382.056" y="532.3309999999996" type="curve"/>
      <point x="25402.551" y="567.1539999999995"/>
      <point x="25414.187" y="622.5109999999995"/>
      <point x="25410.286" y="656.4819999999995" type="curve" smooth="yes"/>
      <point x="25406.386" y="690.4539999999995"/>
      <point x="25417.428" y="762.8439999999995"/>
      <point x="25437.196" y="818.4849999999994" type="curve" smooth="yes"/>
      <point x="25454.32" y="872.1389999999994"/>
      <point x="25467.081" y="973.0129999999995"/>
      <point x="25464.636" y="1043.0369999999996" type="curve" smooth="yes"/>
      <point x="25460.67" y="1156.5899999999995"/>
      <point x="25451.877999999997" y="1175.2319999999995"/>
      <point x="25379.552" y="1225.7619999999995" type="curve" smooth="yes"/>
      <point x="25335.059" y="1256.4209999999996"/>
      <point x="25282.632" y="1281.1179999999995"/>
      <point x="25260.881" y="1282.2539999999995" type="curve" smooth="yes"/>
      <point x="25241.841" y="1283.4839999999995"/>
      <point x="24640.021" y="1264.3619999999994"/>
      <point x="23924.291" y="1243.1579999999994" type="curve" smooth="yes"/>
      <point x="22696.191000000003" y="1205.9569999999994"/>
      <point x="5769.8240000000005" y="1349.7779999999996"/>
      <point x="5332.624" y="1357.2479999999996" type="curve" smooth="yes"/>
      <point x="5229.424" y="1359.3289999999995"/>
      <point x="4874.004" y="1356.3919999999996"/>
      <point x="4545.824" y="1350.6159999999995" type="curve" smooth="yes"/>
      <point x="4217.643" y="1344.8409999999994"/>
      <point x="3943.6079999999997" y="1342.8509999999994"/>
      <point x="3932.5669999999996" y="1348.1499999999994" type="curve"/>
      <point x="3852.7699999999995" y="1379.4699999999996"/>
      <point x="2464.5469999999996" y="1342.3619999999994"/>
      <point x="1392.0089999999996" y="1280.2749999999994" type="curve" smooth="yes"/>
      <point x="880.1" y="1251.029"/>
      <point x="749.926" y="1248.378"/>
      <point x="686.855" y="1267.019" type="curve" smooth="yes"/>
      <point x="555.095" y="1309.789"/>
      <point x="479.198" y="1307.139"/>
      <point x="315.23900000000003" y="1261.622" type="curve"/>
    </contour>
  </outline>
</glyph>
<glyph name="w3" format="2">
  <advance width="3840"/>
  <outline>
    <contour>
      <point x="290.378" y="1152.234" type="line"/>
      <point x="216.349" y="1112.924"/>
      <point x="157.82299999999998" y="1068.174"/>
      <point x="158.476" y="1055.704" type="curve" smooth="yes"/>
      <point x="159.239" y="1041.155"/>
      <point x="150.407" y="1028.187"/>
      <point x="139.026" y="1027.591" type="curve" smooth="yes"/>
      <point x="129.54000000000002" y="1027.094"/>
      <point x="126.29100000000001" y="1016.5029999999999"/>
      <point x="132.526" y="1006.409" type="curve" smooth="yes"/>
      <point x="140.768" y="994.336"/>
      <point x="138.06300000000002" y="973.3530000000001"/>
      <point x="129.341" y="958.307" type="curve" smooth="yes"/>
      <point x="111.787" y="930.293"/>
      <point x="94.85900000000001" y="781.432"/>
      <point x="93.87100000000001" y="618.817" type="curve" smooth="yes"/>
      <point x="93.144" y="487.47900000000004"/>
      <point x="87.03600000000002" y="422.55100000000004"/>
      <point x="73.013" y="363.46000000000004" type="curve" smooth="yes"/>
      <point x="66.84100000000001" y="336.043"/>
      <point x="69.827" y="315.35800000000006"/>
      <point x="79.313" y="315.855" type="curve" smooth="yes"/>
      <point x="88.797" y="316.352"/>
      <point x="92.763" y="276.962"/>
      <point x="89.578" y="228.85899999999992" type="curve" smooth="yes"/>
      <point x="84.604" y="178.57899999999995"/>
      <point x="90.74900000000001" y="97.61999999999989"/>
      <point x="102.958" y="46.156999999999925" type="curve" smooth="yes"/>
      <point x="113.268" y="-5.406000000000176"/>
      <point x="130.578" y="-81.61300000000006"/>
      <point x="138.557" y="-124.96100000000001" type="curve" smooth="yes"/>
      <point x="149.195" y="-182.75900000000001"/>
      <point x="172.023" y="-219.077"/>
      <point x="235.45" y="-267.85699999999997" type="curve" smooth="yes"/>
      <point x="303.108" y="-324.751"/>
      <point x="343.70799999999997" y="-337.212"/>
      <point x="470.0" y="-351.43499999999995" type="curve" smooth="yes"/>
      <point x="630.766" y="-370.10299999999984"/>
      <point x="823.127" y="-374.6109999999999"/>
      <point x="1031.799" y="-363.67499999999995" type="curve" smooth="yes"/>
      <point x="1100.091" y="-360.095"/>
      <point x="1275.162" y="-361.3409999999999"/>
      <point x="1421.777" y="-364.078" type="curve" smooth="yes"/>
      <point x="1568.392" y="-366.81500000000005"/>
      <point x="1787.3110000000001" y="-369.93100000000004"/>
      <point x="1907.15" y="-369.903" type="curve" smooth="yes"/>
      <point x="2027.102" y="-371.953"/>
      <point x="2139.57" y="-376.48"/>
      <point x="2154.964" y="-379.8410000000001" type="curve"/>
      <point x="2170.467" y="-385.2810000000002"/>
      <point x="2277.136" y="-388.02700000000004"/>
      <point x="2393.072" y="-386.1200000000001" type="curve" smooth="yes"/>
      <point x="2507.2200000000003" y="-386.3900000000001"/>
      <point x="2703.0480000000002" y="-384.4630000000002"/>
      <point x="2824.675" y="-382.25700000000006" type="curve" smooth="yes"/>
      <point x="3037.6850000000004" y="-381.5150000000001"/>
      <point x="3255.58" y="-401.35699999999997"/>
      <point x="3317.918" y="-429.3520000000001" type="curve" smooth="yes"/>
      <point x="3333.53" y="-436.8710000000001"/>
      <point x="3411.744" y="-441.1080000000002"/>
      <point x="3493.5330000000004" y="-440.99" type="curve" smooth="yes"/>
      <point x="3620.8510000000006" y="-438.4860000000001"/>
      <point x="3643.289" y="-431.058"/>
      <point x="3682.8450000000003" y="-387.3019999999999" type="curve" smooth="yes"/>
      <point x="3724.1890000000003" y="-341.36799999999994"/>
      <point x="3745.409" y="-238.13400000000001"/>
      <point x="3739.418" y="-123.81999999999994" type="curve" smooth="yes"/>
      <point x="3738.002" y="-96.79999999999995"/>
      <point x="3751.98" y="-73.14199999999983"/>
      <point x="3774.308" y="-63.63599999999997" type="curve" smooth="yes"/>
      <point x="3820.863" y="-44.52299999999991"/>
      <point x="3834.233" y="27.03800000000001"/>
      <point x="3805.759" y="98.49099999999999" type="curve" smooth="yes"/>
      <point x="3790.41" y="137.28500000000008"/>
      <point x="3791.0" y="162.32600000000002"/>
      <point x="3808.554" y="190.33899999999994" type="curve" smooth="yes"/>
      <point x="3822.532" y="213.99800000000005"/>
      <point x="3833.851" y="252.10500000000002"/>
      <point x="3832.434" y="279.125" type="curve" smooth="yes"/>
      <point x="3831.128" y="304.06500000000005"/>
      <point x="3839.5240000000003" y="325.347"/>
      <point x="3849.009" y="325.845" type="curve" smooth="yes"/>
      <point x="3860.391" y="326.44100000000003"/>
      <point x="3866.018" y="364.25"/>
      <point x="3863.731" y="407.89700000000005" type="curve" smooth="yes"/>
      <point x="3861.3340000000003" y="453.62300000000005"/>
      <point x="3870.1020000000003" y="504.101"/>
      <point x="3882.619" y="519.3470000000001" type="curve"/>
      <point x="3893.239" y="534.4920000000001"/>
      <point x="3904.121" y="580.9130000000001"/>
      <point x="3905.846" y="620.6020000000001" type="curve" smooth="yes"/>
      <point x="3906.635" y="714.4300000000001"/>
      <point x="3936.188" y="876.4570000000001"/>
      <point x="3953.742" y="904.4710000000001" type="curve"/>
      <point x="3996.4390000000003" y="960.8960000000002"/>
      <point x="3925.232" y="1121.8110000000001"/>
      <point x="3860.733" y="1118.431" type="curve" smooth="yes"/>
      <point x="3845.5570000000002" y="1117.6350000000002"/>
      <point x="3824.145" y="1126.9340000000002"/>
      <point x="3812.11" y="1138.8080000000002" type="curve" smooth="yes"/>
      <point x="3796.0620000000004" y="1154.64"/>
      <point x="3600.125" y="1154.7920000000001"/>
      <point x="3184.46" y="1137.1760000000002" type="curve" smooth="yes"/>
      <point x="2615.0280000000002" y="1113.5860000000002"/>
      <point x="2462.94" y="1111.8680000000002"/>
      <point x="2290.9" y="1127.861" type="curve" smooth="yes"/>
      <point x="2130.353" y="1142.373"/>
      <point x="1679.3400000000001" y="1145.8300000000002"/>
      <point x="1198.632" y="1135.226" type="curve" smooth="yes"/>
      <point x="810.9870000000001" y="1127.4150000000002"/>
      <point x="705.9970000000001" y="1134.4180000000001"/>
      <point x="664.09" y="1171.8200000000002" type="curve" smooth="yes"/>
      <point x="648.043" y="1187.652"/>
      <point x="611.346" y="1198.2340000000002"/>
      <point x="586.6850000000001" y="1196.941" type="curve" smooth="yes"/>
      <point x="562.0240000000001" y="1195.6490000000001"/>
      <point x="514.162" y="1201.477"/>
      <point x="481.36800000000005" y="1210.179" type="curve" smooth="yes"/>
      <point x="431.28400000000005" y="1222.143"/>
      <point x="397.57300000000004" y="1212.0390000000002"/>
      <point x="290.37800000000004" y="1152.2340000000002" type="curve"/>
    </contour>
  </outline>
</glyph>
